<?xml version="1.0" encoding="UTF-8" standalone="no"?>
<svg
   xmlns:dc="http://purl.org/dc/elements/1.1/"
   xmlns:cc="http://creativecommons.org/ns#"
   xmlns:rdf="http://www.w3.org/1999/02/22-rdf-syntax-ns#"
   xmlns:svg="http://www.w3.org/2000/svg"
   xmlns="http://www.w3.org/2000/svg"
   xmlns:sodipodi="http://sodipodi.sourceforge.net/DTD/sodipodi-0.dtd"
   xmlns:inkscape="http://www.inkscape.org/namespaces/inkscape"
   viewBox="0 0 633.43278 151.26689"
   version="1.1"
   id="svg32"
   sodipodi:docname="apple2gs-clear.svg"
   width="633.4328"
   height="151.26689"
   inkscape:version="0.92.5 (2060ec1f9f, 2020-04-08)">
  <metadata
     id="metadata38">
    <rdf:RDF>
      <cc:Work
         rdf:about="">
        <dc:format>image/svg+xml</dc:format>
        <dc:type
           rdf:resource="http://purl.org/dc/dcmitype/StillImage" />
        <dc:title />
      </cc:Work>
    </rdf:RDF>
  </metadata>
  <defs
     id="defs36" />
  <sodipodi:namedview
     pagecolor="#ffffff"
     bordercolor="#666666"
     borderopacity="1"
     objecttolerance="10"
     gridtolerance="10"
     guidetolerance="10"
     inkscape:pageopacity="0"
     inkscape:pageshadow="2"
     inkscape:window-width="2488"
     inkscape:window-height="1376"
     id="namedview34"
     showgrid="false"
     inkscape:zoom="2.3884899"
     inkscape:cx="328.82758"
     inkscape:cy="35.333574"
     inkscape:current-layer="svg32"
     fit-margin-top="0"
     fit-margin-left="0"
     fit-margin-right="0"
     fit-margin-bottom="0"
     inkscape:window-x="72"
     inkscape:window-y="27"
     inkscape:window-maximized="1" />
  <text
     transform="scale(1.0510851,0.95139775)"
     font-size="2"
     id="text2"
     x="391.11301"
     y="110.618"
     style="font-size:1.60876203px;font-family:ArialMT;fill:#ff0000;stroke-width:0.80438101">I don’t like bugs!</text>
  <path
     style="fill:#e6e6e6;stroke-width:0.80438101;stroke:#cccccc"
     inkscape:connector-curvature="0"
     id="path4"
     d="m 220.1109,90.413531 c 1.08812,3.13767 2.07902,5.64551 2.97015,7.52735 0.89112,1.88184 2.32505,3.406289 4.30684,4.570289 1.38573,0.89692 2.64802,1.41119 3.78687,1.54588 1.138,0.13469 1.7087,0.60534 1.7087,1.41195 0,1.25584 -1.03909,1.88184 -3.1181,1.88184 -1.28766,0 -2.94648,-0.13469 -4.97477,-0.4033 -2.02998,-0.26862 -4.5292,-0.40254 -7.49934,-0.40254 -4.15804,0 -7.49935,0.11249 -10.02393,0.33519 -2.52374,0.225 -4.28232,0.33596 -5.27152,0.33596 -1.68418,0 -2.52374,-0.53723 -2.52374,-1.61246 0,-1.43261 0.98836,-2.15121 2.97015,-2.15121 2.47385,0 4.10646,-0.2227 4.90036,-0.67193 0.79221,-0.44769 1.18789,-1.29792 1.18789,-2.55452 0,-1.163239 -0.44472,-3.178999 -1.33669,-6.048059 l -5.79149,-17.205164 c -0.19954,-0.716308 -0.94186,-1.075228 -2.22783,-1.075228 H 180.7609 c -0.29761,0 -0.61973,0.113263 -0.96553,0.335961 -0.33481,0.206627 -0.57323,0.518099 -0.66877,0.873957 l -3.56367,11.962954 c -1.48549,5.28813 -2.22782,8.73727 -2.22782,10.34973 0,1.344609 0.29761,2.241529 0.89113,2.688449 0.59352,0.44999 1.58273,0.76299 2.97015,0.94054 1.97925,0.26938 3.46474,0.58468 4.45564,0.94054 0.98836,0.35968 1.48549,1.0316 1.48549,2.01653 0,1.07522 -0.84293,1.61322 -2.52458,1.61322 -1.09066,0 -2.72411,-0.13469 -4.90036,-0.40331 -2.17878,-0.26938 -4.85217,-0.4033 -8.01931,-0.4033 -2.17878,0 -4.08363,0.11326 -5.71709,0.33596 -1.6343,0.2227 -2.99297,0.33596 -4.08363,0.33596 -1.78226,0 -2.67339,-0.58238 -2.67339,-1.74715 0,-0.71707 0.24857,-1.18696 0.74317,-1.41195 0.4963,-0.2227 1.11265,-0.38035 1.85582,-0.46989 0.79136,-0.0934 1.58357,-0.18367 2.37578,-0.26938 0.8404,-0.088 1.65712,-0.40331 2.45018,-0.94054 1.38573,-0.89462 2.42481,-2.17188 3.1181,-3.831019 0.6916,-1.65684 1.43392,-3.69633 2.22782,-6.11617 l 23.61152,-69.358655 c 0.39484,-0.984924 0.71781,-1.768577 0.96553,-2.35249 0.24604,-0.581618 0.766,-0.873957 1.5599,-0.873957 1.08812,0 1.78141,0.583913 2.07902,1.747148 0.29761,1.165531 0.79136,2.689216 1.4855,4.571055 z M 189.51915,43.770863 c -0.39652,0 -0.69328,0.359684 -0.89112,1.075227 l -6.97938,23.791984 a 4.3609492,3.9473465 0 0 0 -0.14881,0.940537 v 0.40254 c 0,0.537997 0.3458,0.807377 1.03909,0.807377 h 14.84989 c 0.2976,0 0.59352,-0.111731 0.89112,-0.33596 0.29761,-0.222699 0.44557,-0.470651 0.44557,-0.739267 0,-0.178311 -0.0998,-0.626004 -0.29761,-1.344608 l -8.01846,-23.388678 c -0.29592,-0.805081 -0.59268,-1.209152 -0.89029,-1.209152 z" />
  <path
     style="fill:#e6e6e6;stroke-width:0.80438101;stroke:#cccccc"
     sodipodi:nodetypes="csccsscccsccsscccsccccsccssccsscccsccsscccscccssscscccsccsscccsccsscccsccccsccssccsscccsccsscccscccssscscccccccsscscsssccsscccscccscscsccccsscsccssssccscccscccscscscscccscscccsssc"
     inkscape:connector-curvature="0"
     id="path6"
     d="m 248.32602,54.659355 c 0,0.627535 0.1488,0.940537 0.44557,0.940537 0.29676,0 0.69075,-0.222698 1.18789,-0.672686 l 1.48465,-1.612459 c 2.57362,-2.68845 5.19712,-4.637634 7.87135,-5.847552 2.67254,-1.209152 5.59111,-1.814493 8.76079,-1.814493 3.26691,0 6.38586,0.717838 9.35516,2.151219 2.97014,1.434147 5.54376,3.450676 7.72255,6.048057 2.17624,2.600443 3.90946,5.780207 5.19712,9.543885 1.28596,3.763678 1.93021,7.930662 1.93021,12.500951 0,5.020277 -0.7474,9.589807 -2.23712,13.710867 -1.48972,4.1226 -3.5755,7.68424 -6.25734,10.685689 -2.68269,3.00375 -5.85913,5.33328 -9.5344,6.99013 -3.67527,1.65684 -7.74961,2.48641 -12.21878,2.48641 -4.66785,0 -8.9916,-1.0316 -12.96363,-3.09099 l -0.59606,0.40254 -0.14627,19.08701 c 0,1.61246 0.14627,2.82237 0.44303,3.62898 0.29676,0.80662 1.03909,1.43262 2.22782,1.88184 0.98836,0.4477 1.95389,0.71631 2.89575,0.80661 0.93932,0.088 1.73068,0.17832 2.37577,0.26939 0.64341,0.088 1.16253,0.26938 1.5599,0.53723 0.39484,0.26938 0.59352,0.80737 0.59352,1.61322 0,1.25354 -1.03908,1.88184 -3.1181,1.88184 -9.65995,-0.13797 -17.7472,-0.0873 -25.24413,0 -1.78226,0 -2.67338,-0.71784 -2.67338,-2.15122 0,-1.2566 0.54363,-1.88184 1.63429,-1.88184 1.08813,0 2.37578,-0.26938 3.86043,-0.80661 1.28597,-0.44999 2.15342,-1.07523 2.59814,-1.88184 0.44557,-0.80661 0.66877,-2.10683 0.66877,-3.89837 V 65.410862 c 0,-2.41907 -0.34833,-4.032293 -1.03909,-4.838905 -0.69413,-0.806612 -1.46182,-1.320884 -2.30222,-1.545878 -0.84209,-0.222699 -1.60978,-0.357389 -2.30222,-0.403306 -0.69329,-0.04439 -3.40747,2.002134 -3.40747,1.105219 0,-1.075228 3.13438,-4.375287 4.67061,-4.868897 5.58215,-3.42562 7.34791,-4.526132 11.95414,-7.593935 1.28596,-1.343843 2.32505,-2.015764 3.11895,-2.015764 0.98835,0 1.48465,0.940536 1.48465,2.822375 v 6.587584 z m 3.28128,48.238285 c 2.08832,2.07316 5.02296,3.1086 8.80307,3.1086 2.8839,0 5.52009,-0.62984 7.9077,-1.89026 2.38762,-1.25966 4.45311,-3.04125 6.19309,-5.339399 1.74083,-2.29739 3.08175,-5.04477 4.02868,-8.2429 0.94355,-3.1966 1.41786,-6.68707 1.41786,-10.472179 0,-8.017139 -1.86596,-14.232028 -5.59703,-18.6462 -3.73107,-4.414171 -8.42937,-6.622022 -14.09826,-6.622022 -4.17833,0 -7.18821,1.105074 -9.02881,3.312159 -1.83975,2.207851 -2.75878,5.562101 -2.75878,10.06428 v 25.134292 c 8.5e-4,4.32387 1.04501,7.522769 3.13248,9.593629 z m 64.28638,-48.238285 c 0,0.627535 0.1488,0.940537 0.44556,0.940537 0.29676,0 0.69075,-0.222698 1.18789,-0.672686 l 1.48465,-1.612459 c 2.57362,-2.68845 5.19713,-4.637634 7.87136,-5.847552 2.67254,-1.209152 5.59111,-1.814493 8.76079,-1.814493 3.2669,0 6.38585,0.717838 9.35515,2.151219 2.97015,1.434147 5.54377,3.450676 7.72255,6.048057 2.17625,2.600443 3.90947,5.780207 5.19713,9.543885 1.28596,3.763678 1.93021,7.930662 1.93021,12.500951 0,5.020277 -0.7474,9.589807 -2.23712,13.710867 -1.48972,4.1226 -3.57551,7.68424 -6.25735,10.685689 -2.68268,3.00375 -5.85912,5.33328 -9.53439,6.99013 -3.67527,1.65684 -7.74961,2.48641 -12.21878,2.48641 -4.66785,0 -8.9916,-1.0316 -12.96363,-3.09099 l -0.59606,0.40254 -0.14627,19.08701 c 0,1.61246 0.14627,2.82237 0.44303,3.62898 0.29676,0.80662 1.03908,1.43262 2.22782,1.88184 0.98836,0.4477 1.95389,0.71631 2.89574,0.80661 0.93932,0.088 1.73069,0.17832 2.37578,0.26939 0.64341,0.088 1.16253,0.26938 1.5599,0.53723 0.39484,0.26938 0.59352,0.80737 0.59352,1.61322 0,1.25354 -1.03908,1.88184 -3.1181,1.88184 -9.05715,-0.18762 -16.90485,-0.0305 -25.24413,0 -1.78226,0 -2.67339,-0.71784 -2.67339,-2.15122 0,-1.2566 0.54364,-1.88184 1.6343,-1.88184 1.08813,0 2.37578,-0.26938 3.86043,-0.80661 1.28597,-0.44999 2.15342,-1.07523 2.59814,-1.88184 0.44556,-0.80661 0.66877,-2.10683 0.66877,-3.89837 V 65.410862 c 0,-2.41907 -0.34834,-4.032293 -1.03909,-4.838905 -0.69413,-0.806612 -1.46182,-1.320884 -2.30222,-1.545878 -0.84209,-0.222699 -1.60978,-0.357389 -2.30222,-0.403306 -0.69329,-0.04439 -3.40747,1.113989 -3.40747,0.217073 0,-1.075227 3.13438,-3.487141 4.6706,-3.980751 4.69402,-2.833518 6.90385,-4.674154 11.95414,-7.593935 1.28597,-1.343843 2.32506,-2.015764 3.11895,-2.015764 0.98836,0 1.48465,0.940536 1.48465,2.822375 v 6.587584 z m 3.28128,48.238285 c 2.08832,2.07316 5.02295,3.1086 8.80306,3.1086 2.88391,0 5.5201,-0.62984 7.90771,-1.89026 2.38762,-1.25966 4.45311,-3.04125 6.19309,-5.339399 1.74083,-2.29739 3.08175,-5.04477 4.02868,-8.2429 0.94355,-3.1966 1.41786,-6.68707 1.41786,-10.472179 0,-8.017139 -1.86596,-14.232028 -5.59703,-18.6462 -3.73108,-4.414171 -8.42937,-6.622022 -14.09826,-6.622022 -4.17833,0 -7.18821,1.105074 -9.02881,3.312159 -1.83975,2.207851 -2.75878,5.562101 -2.75878,10.06428 v 25.134292 c 8.5e-4,4.32387 1.04501,7.522769 3.13248,9.593629 z m 64.13673,-5.897289 c 0,2.95706 0.93932,4.838899 2.82219,5.645509 0.79136,0.35892 1.58188,0.56019 2.37578,0.60458 0.7922,0.0467 1.50832,0.11326 2.15342,0.20204 0.6434,0.0903 1.16252,0.29233 1.55989,0.60457 0.39399,0.3153 0.59352,0.87396 0.59352,1.68057 0,1.25583 -0.99089,1.88184 -2.97014,1.88184 -1.68418,0 -3.61102,-0.13469 -5.77796,-0.40331 -2.16695,-0.26938 -4.4734,-0.4033 -6.91935,-0.4033 -2.54319,0 -4.82596,0.13469 -6.84495,0.4033 -2.02153,0.26938 -3.72431,0.40331 -5.10919,0.40331 -1.78226,0 -2.67339,-0.71707 -2.67339,-2.15122 0,-1.25431 0.4946,-1.88184 1.4855,-1.88184 1.08812,0 2.42397,-0.26938 4.00923,-0.80661 1.38573,-0.44769 2.22782,-1.05227 2.52373,-1.8145 0.29761,-0.76069 0.44557,-1.814489 0.44557,-3.159099 V 27.90954 c 0,-1.164001 -0.32297,-2.016529 -0.96553,-2.55376 -0.64372,-0.536563 -1.40185,-0.948304 -2.22782,-1.209918 -0.75575,-0.23812 -1.49913,-0.507269 -2.22782,-0.806612 -0.6451,-0.26938 -0.96553,-0.671921 -0.96553,-1.209917 0,-0.984924 0.66877,-1.633886 2.00461,-1.949184 1.3367,-0.313002 2.89406,-0.782888 4.67293,-1.411188 3.42501,-1.164001 5.94199,-2.262186 7.55684,-3.293792 1.61485,-1.02931 2.66577,-1.545878 3.1553,-1.545878 0.78207,0 1.27159,0.224228 1.46859,0.671921 0.19699,0.449223 0.29761,1.075227 0.29761,1.881839 0,1.165531 -0.0744,2.509373 -0.22321,4.033058 -0.1488,1.524451 -0.2232,3.225682 -0.2232,5.107521 v 71.376721 z m 25.84019,-27.690356 c -0.79306,0 -1.28681,0.134691 -1.48465,0.403306 -0.19954,0.268616 -0.29761,0.852529 -0.29761,1.747149 v 3.225681 c 0,8.33473 1.95389,14.92079 5.86589,19.75969 3.91031,4.83814 8.98484,7.257979 15.22189,7.257979 2.76977,0 5.17176,-0.40331 7.20259,-1.20992 2.02744,-0.806609 3.71247,-1.701229 5.04916,-2.688449 1.3367,-0.98493 2.16729,-3.55654 2.90877,-4.36315 0.74148,-0.80661 1.68097,-1.62859 1.97857,-1.62859 0.79137,0 0.97771,2.58774 0.97771,3.57267 0,0.98645 -0.59352,2.28438 -1.78141,3.8976 -1.18789,1.613219 -2.89575,3.205019 -5.12357,4.771559 -2.22782,1.5696 -4.87753,2.9364 -7.94406,4.09964 -3.06991,1.164 -6.53466,1.74715 -10.39509,1.74715 -4.06081,0 -7.74792,-0.73927 -11.06386,-2.21704 -3.31764,-1.47929 -6.16265,-3.60679 -8.53928,-6.38555 -2.37578,-2.776449 -4.20876,-6.136829 -5.49388,-10.081109 -1.28765,-3.94199 -1.93021,-8.37759 -1.93021,-13.307563 0,-4.926913 0.71696,-9.386236 2.15342,-13.374908 1.43307,-3.986376 3.43769,-7.369707 6.01384,-10.148461 2.57278,-2.776459 5.61733,-4.926913 9.1328,-6.452129 3.51294,-1.522919 7.35054,-2.285144 11.50858,-2.285144 3.56451,0 6.83058,0.560954 9.80157,1.679803 2.97014,1.12191 5.49388,2.621871 7.5729,4.50371 2.07902,1.881838 3.68711,4.07821 4.8268,6.586053 1.13716,2.509374 1.70786,5.197824 1.70786,8.064587 0,1.16553 -0.39653,1.928521 -1.18789,2.285144 -0.79306,0.35892 -2.07902,0.537231 -3.86043,0.537231 h -32.82041 z m 23.67846,-4.46132 c 3.26398,-0.09679 3.9334,1.927718 1.12095,-7.099094 -0.66586,-2.13713 -2.05243,-4.44893 -4.08072,-6.330769 -2.02998,-1.881841 -3.59364,-2.674354 -6.76078,-2.674354 -3.46729,0 -6.48562,1.209918 -9.0584,3.628987 -2.57615,2.41907 -4.2578,5.467205 -5.05001,9.139814 l -0.44472,2.15122 v 0.26938 c 0,0.806612 0.59353,1.209918 1.78142,1.209918 h 9.65276 c 4.84963,0 7.50317,-0.04798 12.8395,-0.295102 z" />
  <path
     d="m 577.03405,85.039681 c 0,-1.69052 -0.16064,-2.79559 -0.48276,-3.31675 -0.32213,-0.51963 -1.19973,-0.94284 -2.63111,-1.268076 -0.69208,-0.11714 -1.39103,-0.19814 -2.09339,-0.2426 -0.53917,-0.0247 -1.07669,-0.0733 -1.61063,-0.1454 -0.4667,-0.0635 -0.82434,-0.17755 -1.0746,-0.33979 -0.2511,-0.16071 -0.37539,-0.46912 -0.37539,-0.92293 0,-0.90763 0.6079,-1.36068 1.82538,-1.36068 0.71527,0 1.98686,0.13086 3.81224,0.38876 1.82537,0.2602 4.2764,0.38877 7.35477,0.38877 3.436,0 6.04766,-0.12857 7.83838,-0.38877 1.78902,-0.2579 2.93463,-0.38876 3.436,-0.38876 1.07459,0 1.61062,0.42243 1.61062,1.26348 0,0.45382 -0.12597,0.77754 -0.37539,0.97192 -0.25195,0.19438 -0.57407,0.32524 -0.96722,0.38876 -0.46163,0.0727 -0.92748,0.12168 -1.39503,0.14541 -0.53772,0.0337 -1.12786,0.11403 -1.77211,0.24259 -1.2885,0.260196 -2.09423,0.665036 -2.41551,1.215276 -0.32213,0.55177 -0.48362,1.66909 -0.48362,3.35348 v 14.7731 c 0,1.490779 -0.55463,2.866759 -1.66389,4.130249 -1.1101,1.26349 -2.63026,2.33259 -4.56301,3.20731 -1.93275,0.87472 -4.17157,1.5543 -6.71052,2.04102 -2.54234,0.48596 -5.24447,0.72855 -8.10724,0.72855 -4.43958,0 -8.53674,-0.77753 -12.29402,-2.33259 -3.75813,-1.55506 -6.98023,-3.70858 -9.6646,-6.46284 -2.68438,-2.753499 -4.77777,-6.041939 -6.28187,-9.865309 -1.5024,-3.8226 -2.25487,-8.00184 -2.25487,-12.537686 0,-4.86033 0.8404,-9.34644 2.52373,-13.461385 1.6808,-4.114175 3.98979,-7.662042 6.92527,-10.642832 2.93464,-2.979259 6.44166,-5.311852 10.52191,-6.997777 4.08025,-1.684395 8.51814,-2.526975 13.31451,-2.526975 1.93275,0 3.75813,0.117854 5.47697,0.353562 1.71716,0.235708 3.27452,0.537231 4.6704,0.906864 1.39503,0.370398 2.577,0.771408 3.54253,1.20303 0.28956,0.128988 0.33765,-1.44096 0.60315,-1.424167 0.49695,0.03143 1.28895,-0.156839 1.54071,0.115003 0.23348,0.21134 0.4236,2.719733 0.47428,3.302787 0.29892,3.438765 0.65722,4.651926 0.65722,8.662988 0,1.814494 -0.4667,2.721358 -1.39588,2.721358 -0.78882,0 -1.34176,-0.436979 -1.66473,-1.311701 -0.32213,-0.875487 -0.76938,-1.959133 -1.34177,-3.256293 -2.50683,-5.700617 -6.9092,-8.552839 -13.20713,-8.552839 -3.07921,0 -5.92423,0.728553 -8.53674,2.186423 -2.6142,1.45787 -4.88514,3.532561 -6.81789,6.220247 -1.93276,2.689981 -3.43516,5.928672 -4.50976,9.719132 -1.07375,3.790465 -1.61062,8.018665 -1.61062,12.683085 0,4.342236 0.55378,8.262036 1.66473,11.760166 1.10926,3.49888 2.61251,6.49651 4.50976,8.99058 1.89555,2.494829 4.11576,4.421819 6.65725,5.783269 2.54065,1.35991 5.24278,2.04101 8.10724,2.04101 2.07479,0 3.72093,-0.26019 4.93925,-0.78135 1.21579,-0.51963 2.1475,-1.25125 2.79175,-2.19408 0.64425,-0.94283 1.05515,-2.06551 1.23524,-3.36496 0.17755,-1.299459 0.26801,-2.730539 0.26801,-4.290959 z m 22.09116,-29.93493 c 0.89451,-2.077752 2.16441,-3.861634 3.81224,-5.354708 1.64529,-1.490777 3.63215,-2.644064 5.95889,-3.455267 2.3259,-0.811203 4.95617,-1.21757 7.89249,-1.21757 3.0065,0 5.67228,0.384173 7.99902,1.15099 1.00747,0.332812 1.88094,0.668477 2.54627,0.970112 0.16003,0.07255 0.2276,-0.995192 0.51659,-1.137133 0.50551,-0.248299 1.26093,-0.253701 1.49289,0.0253 0.57238,0.648963 0.54584,6.377269 0.54584,12.791899 0,1.360679 -0.46671,2.041018 -1.39588,2.041018 -0.78883,0 -1.3071,-0.436978 -1.55736,-1.311701 -0.25111,-0.875487 -0.76938,-2.153515 -1.55652,-3.839441 -1.14561,-2.591259 -2.39945,-4.567993 -3.75812,-5.928672 -1.36037,-1.360679 -3.29397,-2.041019 -5.79826,-2.041019 -3.22125,0 -5.74414,0.888498 -7.56952,2.664727 -1.82537,1.776995 -2.73764,4.214431 -2.73764,7.313841 0,2.585137 0.80489,4.683549 2.41552,6.297539 1.61062,1.61552 4.13436,3.23027 7.56952,4.844259 2.86277,1.35762 5.40426,2.71371 7.62447,4.0698 2.21768,1.35761 4.09716,2.8591 5.63677,4.506 1.5361,1.64442 2.71973,3.533846 3.49011,5.571276 0.78714,2.06704 1.18028,4.45704 1.18028,7.16922 0,2.84303 -0.51996,5.45802 -1.55651,7.84877 -1.03909,2.389989 -2.47048,4.457029 -4.29501,6.201119 -1.82537,1.74255 -4.01007,3.11548 -6.54987,4.11647 -2.54234,1.001 -5.31549,1.50226 -8.32199,1.50226 -4.72451,0 -8.5545,-0.68034 -11.48914,-2.04102 -2.93632,-1.36068 -4.40237,-3.43307 -4.40237,-6.22025 0,-1.10048 0.0355,-2.170349 0.10737,-3.207309 0.0702,-1.0362 0.10738,-2.00735 0.10738,-2.91574 0,-0.71248 -0.0178,-1.2788 -0.0533,-1.70123 -0.0372,-0.42091 -0.0533,-0.69565 -0.0533,-0.82575 0,-2.00811 0.53687,-3.01369 1.61062,-3.01369 0.49968,0 0.859,0.17907 1.07375,0.53417 0.21475,0.35738 0.37539,0.84334 0.48277,1.45787 0.10737,0.61682 0.23166,1.34537 0.37623,2.18642 0.14204,0.84334 0.35679,1.7173 0.64425,2.62416 1.07376,3.304509 2.80782,5.865159 5.20727,7.678119 2.39776,1.8145 4.95616,2.72212 7.67774,2.72212 1.57343,0 3.07668,-0.29233 4.50975,-0.87701 1.40837,-0.56862 2.66999,-1.39727 3.70402,-2.43285 1.0374,-1.03849 1.86089,-2.27213 2.46963,-3.69939 0.60789,-1.427259 0.91311,-2.983849 0.91311,-4.672839 0,-2.98462 -1.02049,-5.66082 -3.06061,-8.03015 -2.04013,-2.36933 -5.0999,-4.59096 -9.18015,-6.66795 -2.03872,-1.044686 -4.06101,-2.115426 -6.06627,-3.211896 -1.89808,-1.0385 -3.54337,-2.23847 -4.94009,-3.60221 -1.39503,-1.36221 -2.50599,-2.98385 -3.32863,-4.86722 -0.82434,-1.881069 -1.23524,-4.250399 -1.23524,-7.106439 -0.002,-2.530041 0.44472,-4.831257 1.34092,-6.909009 z"
     id="path10"
     inkscape:connector-curvature="0"
     style="fill:#e6e6e6;stroke-width:0.80438101;stroke:#cccccc"
     sodipodi:nodetypes="scccccsscscsscccccsscscscccscccscccscsssccscccscccscscsscccscsscsscccscscccccscccscscscsscccccscccscccccccc" />
  <g
     id="g16"
     style="fill:#040404"
     transform="translate(-49.213678,-14.821075)">
    <path
       d="m 542.726,112.08927 c 0,1.43491 0.0228,2.59967 0.0744,3.49506 0.049,0.89691 0.197,1.63618 0.44557,2.21703 0.23161,0.56732 0.64528,1.05901 1.18789,1.41196 0.54279,0.35892 1.31048,0.67192 2.30138,0.94053 0.89197,0.26938 1.73152,0.40254 2.52458,0.40254 0.79136,0 1.48549,0.0467 2.07902,0.13469 0.59352,0.0903 1.06275,0.29234 1.41109,0.60535 0.34495,0.31453 0.51912,0.82957 0.51912,1.54587 0,1.2566 0.33258,1.90187 -1.74644,1.90187 -10.83246,0.047 -20.21248,-0.0722 -29.58763,-0.02 -2.07902,0 -3.11811,-0.71631 -3.11811,-2.15122 0,-0.62524 0.17164,-1.07523 0.51997,-1.34384 0.34495,-0.26938 0.79136,-0.44769 1.33585,-0.538 0.61331,-0.0942 1.2346,-0.13926 1.85666,-0.13469 0.69075,0 1.38488,-0.088 2.07901,-0.26861 1.18705,-0.26939 2.10185,-0.58239 2.74695,-0.94054 0.64256,-0.35739 1.11348,-0.82804 1.41109,-1.41195 0.29676,-0.58162 0.46839,-1.34385 0.51912,-2.28438 0.049,-0.94054 0.0744,-2.1275 0.0744,-3.56241 V 50.52735 c 0,-2.151219 -0.17417,-3.606028 -0.51912,-4.369019 -0.34833,-0.759929 -1.26229,-1.364505 -2.74779,-1.814493 -0.99089,-0.268616 -1.93021,-0.402541 -2.82134,-0.402541 -0.79305,0 -1.51086,-0.04439 -2.15342,-0.13469 -0.64509,-0.08801 -1.1397,-0.245657 -1.48549,-0.470651 -0.34749,-0.221933 -0.51912,-0.692584 -0.51912,-1.411188 0,-1.254304 0.74232,-1.881839 2.22782,-1.881839 0.79136,0 2.37578,0.180607 4.75155,0.537231 2.37663,0.359684 5.69173,0.537996 9.95038,0.537996 4.25526,0 7.5729,-0.178312 9.94952,-0.537996 2.37662,-0.356624 3.9585,-0.537231 4.7524,-0.537231 1.48465,0 2.22698,0.627535 2.22698,1.881839 0,0.627534 -0.14796,1.054564 -0.44472,1.277262 -0.29761,0.224229 -0.74232,0.381878 -1.33669,0.469886 -0.59352,0.0903 -1.28766,0.157649 -2.07902,0.202036 -0.79305,0.04668 -1.63345,0.157649 -2.52374,0.335195 -1.88286,0.359685 -2.99635,0.964261 -3.34131,1.815259 -0.34833,0.852529 -0.51996,2.351725 -0.51996,4.502944 z"
       id="path12"
       inkscape:connector-curvature="0"
       sodipodi:nodetypes="cccccsccsccscccccccssccsccsscscssccccccc"
       style="stroke-width:0.80438101;fill:#e6e6e6;stroke:#cccccc" />
    <path
       d="m 574.20634,112.08927 c 0,1.43491 0.0228,2.59967 0.0744,3.49506 0.049,0.89691 0.197,1.63618 0.44557,2.21703 0.23161,0.56732 0.64528,1.05901 1.18789,1.41196 0.54279,0.35892 1.31048,0.67192 2.30137,0.94053 0.89198,0.26938 1.73153,0.40254 2.52459,0.40254 0.79136,0 1.48549,0.0467 2.07901,0.13469 0.59353,0.0903 1.06276,0.29234 1.4111,0.60535 0.34495,0.31453 0.51912,0.82957 0.51912,1.54587 0,1.2566 -1.03909,1.88184 -3.11811,1.88184 -10.04199,-0.24724 -20.06325,-0.0979 -28.21596,0 -2.07902,0 -2.03405,0.24491 -2.03405,-1.19 0,-0.62524 -1.20003,-2.41693 -0.8517,-2.68554 0.34496,-0.26939 1.07897,-0.0672 1.62346,-0.15752 0.61331,-0.0942 1.2346,-0.13925 1.85665,-0.13469 0.69076,0 1.38489,-0.088 2.07902,-0.26861 1.18705,-0.26938 2.10185,-0.58238 2.74694,-0.94054 0.64256,-0.35739 1.11349,-0.82804 1.4111,-1.41195 0.29676,-0.58162 0.46839,-1.34384 0.51912,-2.28438 0.049,-0.94054 0.0744,-2.1275 0.0744,-3.56241 V 50.52735 c 0,-2.151219 -0.17417,-3.606028 -0.51912,-4.369019 -0.34834,-0.759929 -1.26229,-1.364505 -2.74779,-1.814493 -0.99089,-0.268616 -1.93021,-0.402541 -2.82134,-0.402541 -0.79305,0 -1.51086,-0.04439 -2.15342,-0.13469 -0.6451,-0.08801 -1.1397,-0.245657 -1.4855,-0.470651 -0.34749,-0.221933 -0.51912,-0.692584 -0.51912,-1.411188 0,-1.254304 0.74233,-1.881839 2.22782,-1.881839 0.79137,0 2.37578,0.180607 4.75156,0.537231 2.37663,0.359684 5.69173,0.537996 9.95037,0.537996 4.25527,0 7.5729,-0.178312 9.94953,-0.537996 2.37662,-0.356624 3.9585,-0.537231 4.7524,-0.537231 1.48465,0 2.22698,0.627535 2.22698,1.881839 0,0.627534 -0.14796,1.054564 -0.44472,1.277262 -0.29761,0.224229 -0.74233,0.381878 -1.33669,0.469886 -0.59353,0.0903 -1.28766,0.157649 -2.07902,0.202036 -0.79306,0.04668 -1.63346,0.157649 -2.52374,0.335195 -1.88287,0.359685 -2.99635,0.964261 -3.34131,1.815259 -0.34833,0.852529 -0.51996,2.351725 -0.51996,4.502944 z"
       id="path14"
       inkscape:connector-curvature="0"
       sodipodi:nodetypes="cccccsccsccscccccccssccsccsscscssccccccc"
       style="stroke-width:0.80438101;fill:#e6e6e6;stroke:#cccccc" />
    <path
       d="m 139.77445,41.789976 c 6.04428,-6.183131 9.19403,-14.866134 9.62821,-26.544961 l 0.0156,-0.42394 -0.44494,0.08477 C 127.7455,18.954692 116.7825,31.359242 116.38841,51.773948 l -0.007,0.397506 0.42147,-0.0611 c 10.11225,-1.476036 17.62628,-4.852962 22.97235,-10.320408 z"
       id="path4-1"
       inkscape:connector-curvature="0"
       style="fill:#008000;stroke-width:0.94420856" />
    <path
       d="m 66.719995,146.79463 0.390166,0.52332 c 3.508635,4.71894 7.532612,9.30934 11.958494,13.64901 3.37075,3.30308 8.740296,5.121 15.118026,5.121 4.674267,0 9.520639,-1.02475 12.648879,-2.67491 6.4716,-3.40975 9.90103,-3.41705 12.4044,-3.42069 0.50263,0 0.97201,-0.002 1.42379,-0.0265 l 0.40875,-0.0246 c 0.54175,-0.032 1.1011,-0.0675 1.73183,-0.0675 2.21978,0 5.53479,0.40571 11.56147,3.58115 4.20587,1.64561 8.2846,2.47799 12.12278,2.47799 9.8e-4,0 9.8e-4,0 0.002,0 10.44962,0 19.61235,-6.09742 28.01038,-18.62687 l 0.34324,-0.51147 H 66.719995 Z"
       id="path6-7"
       inkscape:connector-curvature="0"
       style="fill:#0000ff;stroke-width:0.94420856" />
    <path
       d="m 176.08607,68.613913 c 1.39739,-1.29825 2.90332,-2.578276 4.52074,-3.83642 l 0.27087,-0.210598 -0.22296,-0.25619 C 172.7779,55.252087 161.99189,50.367217 149.46329,50.183052 l -0.57402,-0.0022 c -6.34937,0 -11.96436,1.109534 -16.23671,3.208262 -5.54067,2.720508 -9.66145,3.324051 -9.70154,3.329516 -0.0724,0.0086 -0.52611,0.0255 -1.76997,0.0255 -1.50985,0 -2.81336,-0.02281 -2.96982,-0.04378 l -0.0997,-0.01183 c -1.77684,-0.214209 -6.30539,-0.908926 -9.97636,-2.73323 -4.98914,-2.479852 -10.547416,-3.791786 -16.073409,-3.791786 l -0.36377,0.0022 C 77.086505,50.317903 64.871814,56.955967 57.282483,68.614741 Z"
       id="path8"
       inkscape:connector-curvature="0"
       style="fill:#008000;stroke-width:0.94420856" />
    <path
       d="m 163.83519,87.980184 c 1.43749,-6.482174 5.31868,-12.775618 11.64753,-18.798283 l 0.59651,-0.567988 H 57.280514 l -0.104624,0.16137 c -3.640645,5.632462 -6.052096,12.147444 -7.197197,19.203991 z"
       id="path10-4"
       inkscape:connector-curvature="0"
       style="fill:#ffff00;stroke-width:0.94420856" />
    <path
       d="m 166.61824,107.11122 c -2.87302,-5.50209 -4.2841,-11.859346 -2.85443,-18.728066 l 0.0822,-0.39842 H 49.990422 l -0.04502,0.28263 c -0.963216,6.11839 -0.963216,12.451946 -0.07238,18.842946 H 166.61818 Z"
       id="path12-6"
       inkscape:connector-curvature="0"
       style="fill:#ff6600;stroke-width:0.94420856" />
    <path
       d="M 55.465572,127.18132 H 185.5803 l 0.76177,-1.53622 -0.31292,-0.14405 c -6.22714,-2.87457 -14.57529,-9.16711 -19.3278,-18.20384 l -0.0988,-0.1869 H 49.869162 l 0.05375,0.37744 c 0.794039,5.53674 2.417326,12.26232 5.542629,19.69357 z"
       id="path14-0"
       inkscape:connector-curvature="0"
       style="fill:#ff0000;stroke-width:0.94420856" />
    <path
       d="M 66.721943,146.79463 H 174.83243 c 4.12762,-6.23691 7.53065,-13.1038 10.52003,-19.13832 l 0.23469,-0.47409 H 55.486103 l 0.196562,0.45768 c 2.843668,6.62256 6.537126,13.02176 11.039278,19.15473 z"
       id="path16"
       inkscape:connector-curvature="0"
       style="fill:#800080;stroke-width:0.94420856" />
  </g>
</svg>
