<?xml version="1.0" encoding="UTF-8" standalone="no"?>
<svg
   xmlns:dc="http://purl.org/dc/elements/1.1/"
   xmlns:cc="http://creativecommons.org/ns#"
   xmlns:rdf="http://www.w3.org/1999/02/22-rdf-syntax-ns#"
   xmlns:svg="http://www.w3.org/2000/svg"
   xmlns="http://www.w3.org/2000/svg"
   xmlns:sodipodi="http://sodipodi.sourceforge.net/DTD/sodipodi-0.dtd"
   xmlns:inkscape="http://www.inkscape.org/namespaces/inkscape"
   version="1.0"
   width="1303.976"
   height="420.457"
   viewBox="0 0 13039.76 4204.57"
   preserveAspectRatio="xMidYMid meet"
   id="svg29"
   sodipodi:docname="hikaru.svg"
   inkscape:version="1.0.1 (3bc2e813f5, 2020-09-07)">
  <metadata
     id="metadata35">
    <rdf:RDF>
      <cc:Work
         rdf:about="">
        <dc:format>image/svg+xml</dc:format>
        <dc:type
           rdf:resource="http://purl.org/dc/dcmitype/StillImage" />
        <dc:title></dc:title>
      </cc:Work>
    </rdf:RDF>
  </metadata>
  <defs
     id="defs33" />
  <sodipodi:namedview
     pagecolor="#ffffff"
     bordercolor="#666666"
     borderopacity="1"
     objecttolerance="10"
     gridtolerance="10"
     guidetolerance="10"
     inkscape:pageopacity="0"
     inkscape:pageshadow="2"
     inkscape:window-width="2245"
     inkscape:window-height="1104"
     id="namedview31"
     showgrid="false"
     fit-margin-top="0"
     fit-margin-left="0"
     fit-margin-right="0"
     fit-margin-bottom="0"
     inkscape:zoom="0.60760761"
     inkscape:cx="952.9126"
     inkscape:cy="251.89713"
     inkscape:window-x="0"
     inkscape:window-y="30"
     inkscape:window-maximized="0"
     inkscape:current-layer="svg29" />
  <g
     id="layer101"
     fill="#0f4593"
     stroke="none"
     transform="translate(1135.6013,-55.826387)">
    <path
       d="m 10509.52,4236.3751 c -143.532,-33.4905 -358.828,-153.0994 -454.515,-253.5708 -47.842,-50.2357 -117.2163,-150.7072 -155.4913,-222.4726 l -66.981,-131.5698 -7.176,-901.8508 -7.177,-904.2432 h 346.8663 346.865 l 7.177,784.6343 c 4.784,590.8678 14.353,796.5951 38.274,837.2621 117.217,203.3351 521.496,193.7663 607.614,-14.3531 16.745,-40.6671 31.098,-337.297 38.276,-834.87 l 9.567,-772.6733 h 346.867 344.472 l -7.176,892.2822 -7.177,889.89 -62.196,131.5698 c -169.844,361.2189 -480.828,528.6713 -973.616,523.8869 -141.138,-2.3921 -296.631,-11.9609 -344.473,-23.9217 z"
       id="path2"
       style="stroke-width:2.39218" />
    <path
       d="M -1135.6013,3006.7958 V 1822.6679 h 346.86584 346.86561 V 2241.299 2659.93 H -71.082317 299.70518 v -418.631 -418.6311 h 346.8658 346.8657 V 3006.7958 4190.9237 H 646.57098 299.70518 V 3724.449 3257.9744 H -71.082317 -441.86985 v 466.4746 466.4747 h -346.86561 -346.86584 z"
       id="path4"
       style="stroke-width:2.39218" />
    <path
       d="M 1447.9505,3006.7958 V 1822.6679 h 346.8657 346.8658 v 1184.1279 1184.1279 h -346.8658 -346.8657 z"
       id="path6"
       style="stroke-width:2.39218" />
    <path
       d="M 2620.1172,3006.7958 V 1822.6679 h 346.8655 346.8667 v 397.1015 397.1014 l 306.1977,-394.7093 303.8078,-397.1014 h 437.7683 c 282.277,-2.3922 435.3759,7.1764 430.591,21.5296 -2.3912,11.9608 -210.5112,265.5316 -459.2978,562.1617 l -449.7293,538.2399 222.4722,267.9239 c 576.515,698.516 748.7522,901.851 758.3207,892.2822 7.1761,-4.7842 205.7276,-519.1025 444.9457,-1141.0687 l 435.3758,-1131.4999 370.7874,-7.1766 373.1799,-4.7843 437.7683,1153.0296 c 239.2168,636.3192 442.5519,1169.7749 447.3368,1186.5201 9.5698,21.5296 -74.1569,28.7061 -368.3949,28.7061 H 6622.2306 L 6373.444,3497.1922 c -136.3542,-380.3563 -253.5715,-693.7315 -260.7475,-693.7315 -7.1761,0 -124.3933,313.3752 -260.7463,693.7315 l -248.7866,693.7315 -815.733,-4.7844 -813.3407,-7.1766 -325.336,-416.2388 -322.9435,-416.239 -7.1773,423.4156 -4.7837,421.0232 h -346.8667 -346.8655 z"
       id="path8"
       style="stroke-width:2.39218" />
    <path
       d="M 7595.8474,3006.7958 V 1822.6679 h 581.2986 c 648.2796,0 741.5747,14.3531 940.1247,150.7071 167.454,114.8247 253.572,284.6692 267.925,519.1026 19.137,327.7284 -112.432,593.26 -351.65,710.4767 l -95.688,47.8437 358.828,456.9058 c 196.158,251.1787 356.434,461.6903 356.434,471.2589 0,7.1766 -200.943,9.5688 -447.337,7.1766 l -449.7305,-7.1766 -232.0407,-346.8656 -234.4331,-344.4737 v 351.6502 351.6501 h -346.8655 -346.8655 z m 980.7916,-246.3943 c 31.0993,-23.9218 55.0199,-78.9419 64.5897,-138.7463 19.1371,-143.5306 -59.8048,-227.2568 -227.2571,-244.0021 l -124.3932,-11.9609 v 220.0804 217.6881 h 117.2159 c 76.5507,0 133.9631,-14.353 169.8447,-43.0592 z"
       id="path10"
       style="stroke-width:2.39218" />
    <path
       d="m 2518.0725,1467.7389 v -107.5 h 339 c 376,0 379,-0.5 445,-32.5 93,-46 153,-142.5 153,-247.5 0,-115.50002 -71.5,-216.50002 -184.5,-260.00002 -27,-10.5 -44,-12 -178.5,-17.5 l -148.5,-6 -38,-18.5 c -83,-41 -132.5,-120 -132.5,-210.5 0,-105.5 71,-198.5 172,-225.5 20.5,-5.5 95,-7 374.5,-7 h 348.5 v 105 105 h -334.5 -335 l -7.5,11 c -6.5,9.5 -7,12.5 -1,21.5 6.5,9.5 13,10 138.5,13 139.5,3.5 158,6 227.5,32 113,42.5 207,129 262,240 39.5,80 47.5,118 47,222.50002 0,80.5 -1.5,91 -14,132 -61,201 -225,334.5 -433,353.5 -26,2 -194.5,4 -373.5,4.5 h -326.5 z"
       id="path12"
       style="stroke-width:0.5" />
    <path
       d="m 4090.5725,1562.7389 c -163,-35.5 -294.5,-171.5 -322.5,-332.5 -4,-22.5 -5,-151 -4,-425.00002 2,-442 -0.5,-412.5 42,-497.5 54,-108.5 148,-185 269.5,-218.499999 39.5,-11 45.5,-11 426.5,-13 l 386,-1.5 v 107.499999 108 l -379,1 -379,1.5 -38,19 c -59,29 -100,79.5 -114,139.5 -3,13 -5,159.5 -5,374 0,382.00002 0,378.50002 28,429.50002 16.5,30.5 52,65 82.5,81 48,24.5 48.5,24.5 436,24.5 h 363.5 v 105 105 l -381,-0.5 c -294.5,0 -388.5,-2 -411.5,-7 z"
       id="path14"
       style="stroke-width:0.5" />
    <path
       d="m 5285.5725,1561.7389 c -130,-27.5 -246.5,-124.5 -295.5,-245.5 -30.5,-76 -29,-53 -31,-476.00002 -1,-341 -0.5,-392.5 6.5,-427.5 32,-158.5 146.5,-280 305,-323.499999 39.5,-11 46,-11 416.5,-13 l 376,-1.5 v 107.999999 107.5 h -357 c -343.5,0 -358,0.5 -389.5,10 -56,17.5 -100,57 -128,115 l -13,27.5 -1.5,371 c -1.5,365.50002 -1,371.50002 9,402.00002 24,70.5 75,118 148.5,137 23.5,6 72,7.5 272.5,7.5 h 244 v -280 -280.00002 h -190 -190 v -105 -105 h 297.5 297.5 l 1,403 1.5,403.00002 197.5,-581.50002 c 182.5,-538.5 199.5,-584.5 221.5,-618 39,-58.5 93.5,-99.999999 164.5,-124.999999 29.5,-10.5 48.5,-13.5 97.5,-15.5 75,-2.5 119.5,6 178,35.5 48,23.999999 107,79.499999 130,122.499999 12.5,23 458.5,1337.50002 458.5,1350.50002 0,4 -128.5,5.5 -420,5.5 h -420 v -105 -105 h 272.5 c 158.5,0 272.5,-2 272.5,-4.5 0,-8 -349.5,-1039.50002 -357,-1054.00002 -18,-34.5 -58,-58.5 -98,-58.5 -39.5,0 -80,24 -98,57.5 -3.5,7.5 -97,280 -207.5,605 -110.5,325.50002 -206,608.50002 -213,628.50002 l -12.5,36 -455.5,-0.5 c -385,-0.5 -461.5,-1.5 -491,-8 z"
       id="path16"
       style="stroke-width:0.5" />
    <path
       d="m 6279.0725,1564.2389 c 1.5,-3.5 96.5,-284.5 211.5,-624.00002 115,-339.5 212.5,-622.5 216,-628.5 9.5,-14.5 36.5,-26.5 60,-26.5 21.5,0 48,14 56.5,30 3,6 72,208 153.5,449 81,241.00002 156,464.00002 166.5,495.00002 l 19.5,56 h -245 -244.5 l -0.5,-83.5 v -84 l -71.5,210 -71.5,210 -126.5,1.5 c -100,1 -125.5,0 -124,-5 z m 520,-581.50002 c -18.5,-53.5 -34.5,-97.5 -36,-97.5 -1.5,0 -17.5,44 -36,97.5 l -33,97.50002 h 69 69.5 z"
       id="path18"
       style="stroke-width:0.5" />
    <path
       d="m 2518.0725,1210.2389 v -105 h 329 c 289.5,0 330,-1 340,-8 12,-8.5 14.5,-23 5,-31 -4,-3 -58,-6 -134,-7.5 -108.5,-2 -133.5,-3.5 -169,-13 -175,-44.5 -306,-173.00002 -357,-348.00002 -10,-35 -11.5,-51 -11.5,-130 0,-79 1.5,-95 11.5,-129.5 24,-83 60.5,-146.5 121,-210 80,-83.5 179,-133.499999 292.5,-147.499999 28.5,-3.5 168.5,-5.5 384,-5.5 h 338.5 v 107.499999 107 l -358.5,1.5 -359,1.5 -33.5,13 c -45,17.5 -77.5,39 -110,73.5 -53.5,56 -75.5,111.5 -75.5,188.5 0,77 22,132.5 75.5,188.5 33,35 65.5,56.5 110,73 31.5,12 41.5,12.5 171,16 158.5,4.5 177.5,8.5 231.5,49.5 89.5,67.5 118,188.50002 69.5,290.50002 -17.5,36.5 -70.5,89.5 -106,106 -50,23.5 -60.5,24 -422.5,24 h -342.5 z"
       id="path20"
       style="stroke-width:0.5" />
    <path
       d="m 4140.5725,1310.7389 c -45,-11 -86,-45 -107.5,-88 -12.5,-25 -12.5,-25 -14,-201 l -1.5,-176.50002 h 360 360.5 v 107.5 107.50002 h -255 -254.5 l 4,11 c 2,6 10,16 17.5,21.5 13.5,10 21,10 323.5,11.5 l 309.5,1.5 v 104.5 105 l -363.5,-0.5 c -200.5,-0.5 -370.5,-2 -379,-4 z"
       id="path22"
       style="stroke-width:0.5" />
    <path
       d="m 5321.0725,1306.7389 c -18.5,-5.5 -33,-15.5 -55.5,-38 -51,-51 -48,-22 -46.5,-454.00002 l 1.5,-372 11.5,-22 c 17.5,-32 52,-63.5 84,-75 26.5,-10.5 36,-10.5 387,-10.5 h 360 v 105 105 h -303 -303 l -14.5,14.5 -14.5,14.5 v 248 248.00002 l 14,14.5 c 13.5,14.5 14.5,14.5 82.5,18 l 68.5,3 v -22.5 -23 h -62.5 -62.5 v -107.50002 -107.5 h 167.5 167.5 v 235.00002 235 l -228.5,-0.5 c -189.5,0 -233.5,-1.5 -253.5,-8 z"
       id="path24"
       style="stroke-width:0.5" />
    <path
       d="m 4019.0725,626.73888 c 1.5,-165.5 2,-175 12,-197 16,-34.5 45.5,-64 79.5,-80.5 l 30,-14 h 374 373.5 v 105 105 h -310 c -220,0 -313,1.5 -322,5.5 -7,3.5 -16,13 -20,21.5 l -7.5,15.5 255,1.5 254.5,1 v 105 105 h -360.5 -360 z"
       id="path26"
       style="stroke-width:0.5" />
  </g>
</svg>
