<!DOCTYPE svg PUBLIC "-//W3C//DTD SVG 20010904//EN" "http://www.w3.org/TR/2001/REC-SVG-20010904/DTD/svg10.dtd">
<svg version="1.0" xmlns="http://www.w3.org/2000/svg" width="999px" height="455px" viewBox="0 0 9990 4550" preserveAspectRatio="xMidYMid meet">
<g id="layer101" fill="#0f4593" stroke="none">
 <path d="M7188 4539 c-60 -14 -150 -64 -190 -106 -20 -21 -49 -63 -65 -93 l-28 -55 -3 -377 -3 -378 145 0 145 0 3 328 c2 247 6 333 16 350 49 85 218 81 254 -6 7 -17 13 -141 16 -349 l4 -323 145 0 144 0 -3 373 -3 372 -26 55 c-71 151 -201 221 -407 219 -59 -1 -124 -5 -144 -10z"/>
 <path d="M2320 4025 l0 -495 145 0 145 0 0 175 0 175 155 0 155 0 0 -175 0 -175 145 0 145 0 0 495 0 495 -145 0 -145 0 0 -195 0 -195 -155 0 -155 0 0 195 0 195 -145 0 -145 0 0 -495z"/>
 <path d="M3400 4025 l0 -495 145 0 145 0 0 495 0 495 -145 0 -145 0 0 -495z"/>
 <path d="M3890 4025 l0 -495 145 0 145 0 0 166 0 166 128 -165 127 -166 183 0 c118 -1 182 3 180 9 -1 5 -88 111 -192 235 l-188 225 93 112 c241 292 313 377 317 373 3 -2 86 -217 186 -477 l182 -473 155 -3 156 -2 183 482 c100 266 185 489 187 496 4 9 -31 12 -154 12 l-160 0 -104 -290 c-57 -159 -106 -290 -109 -290 -3 0 -52 131 -109 290 l-104 290 -341 -2 -340 -3 -136 -174 -135 -174 -3 177 -2 176 -145 0 -145 0 0 -495z"/>
 <path d="M5970 4025 l0 -495 243 0 c271 0 310 6 393 63 70 48 106 119 112 217 8 137 -47 248 -147 297 l-40 20 150 191 c82 105 149 193 149 197 0 3 -84 4 -187 3 l-188 -3 -97 -145 -98 -144 0 147 0 147 -145 0 -145 0 0 -495z m410 -103 c13 -10 23 -33 27 -58 8 -60 -25 -95 -95 -102 l-52 -5 0 92 0 91 49 0 c32 0 56 -6 71 -18z"/>
 <path d="M0 2825 l0 -215 678 0 c752 0 758 -1 890 -65 186 -92 306 -285 306 -495 0 -231 -143 -433 -369 -520 -54 -21 -88 -24 -357 -35 l-297 -12 -76 -37 c-166 -82 -265 -240 -265 -421 0 -211 142 -397 344 -451 41 -11 190 -14 749 -14 l697 0 0 210 0 210 -669 0 -670 0 -15 22 c-13 19 -14 25 -2 43 13 19 26 20 277 26 279 7 316 12 455 64 226 85 414 258 524 480 79 160 95 236 94 445 0 161 -3 182 -28 264 -122 402 -450 669 -866 707 -52 4 -389 8 -747 9 l-653 0 0 -215z"/>
 <path d="M3145 3015 c-326 -71 -589 -343 -645 -665 -8 -45 -10 -302 -8 -850 4 -884 -1 -825 84 -995 108 -217 296 -370 539 -437 79 -22 91 -22 853 -26 l772 -3 0 215 0 216 -758 2 -758 3 -76 38 c-118 58 -200 159 -228 279 -6 26 -10 319 -10 748 0 764 0 757 56 859 33 61 104 130 165 162 96 49 97 49 872 49 l727 0 0 210 0 210 -762 -1 c-589 0 -777 -4 -823 -14z"/>
 <path d="M5535 3013 c-260 -55 -493 -249 -591 -491 -61 -152 -58 -106 -62 -952 -2 -682 -1 -785 13 -855 64 -317 293 -560 610 -647 79 -22 92 -22 833 -26 l752 -3 0 216 0 215 -714 0 c-687 0 -716 1 -779 20 -112 35 -200 114 -256 230 l-26 55 -3 742 c-3 731 -2 743 18 804 48 141 150 236 297 274 47 12 144 15 545 15 l488 0 0 -560 0 -560 -380 0 -380 0 0 -210 0 -210 595 0 595 0 2 806 3 806 395 -1163 c365 -1077 399 -1169 443 -1236 78 -117 187 -200 329 -250 59 -21 97 -27 195 -31 150 -5 239 12 356 71 96 48 214 159 260 245 25 46 917 2675 917 2701 0 8 -257 11 -840 11 l-840 0 0 -210 0 -210 545 0 c317 0 545 -4 545 -9 0 -16 -699 -2079 -714 -2108 -36 -69 -116 -117 -196 -117 -79 0 -160 48 -196 115 -7 15 -194 560 -415 1210 -221 651 -412 1217 -426 1257 l-25 72 -911 -1 c-770 -1 -923 -3 -982 -16z"/>
 <path d="M7522 3018 c3 -7 193 -569 423 -1248 230 -679 425 -1245 432 -1257 19 -29 73 -53 120 -53 43 0 96 28 113 60 6 12 144 416 307 898 162 482 312 928 333 990 l39 112 -490 0 -489 0 -1 -167 0 -168 -143 420 -143 420 -253 3 c-200 2 -251 0 -248 -10z m1040 -1163 c-37 -107 -69 -195 -72 -195 -3 0 -35 88 -72 195 l-66 195 138 0 139 0 -67 -195z"/>
 <path d="M0 2310 l0 -210 658 0 c579 0 660 -2 680 -16 24 -17 29 -46 10 -62 -8 -6 -116 -12 -268 -15 -217 -4 -267 -7 -338 -26 -350 -89 -612 -346 -714 -696 -20 -70 -23 -102 -23 -260 0 -158 3 -190 23 -259 48 -166 121 -293 242 -420 160 -167 358 -267 585 -295 57 -7 337 -11 768 -11 l677 0 0 215 0 214 -717 3 -718 3 -67 26 c-90 35 -155 78 -220 147 -107 112 -151 223 -151 377 0 154 44 265 151 377 66 70 131 113 220 146 63 24 83 25 342 32 317 9 355 17 463 99 179 135 236 377 139 581 -35 73 -141 179 -212 212 -100 47 -121 48 -845 48 l-685 0 0 -210z"/>
 <path d="M3245 2511 c-90 -22 -172 -90 -215 -176 -25 -50 -25 -50 -28 -402 l-3 -353 720 0 721 0 0 215 0 215 -510 0 -509 0 8 22 c4 12 20 32 35 43 27 20 42 20 647 23 l619 3 0 209 0 210 -727 -1 c-401 -1 -741 -4 -758 -8z"/>
 <path d="M5606 2503 c-37 -11 -66 -31 -111 -76 -102 -102 -96 -44 -93 -908 l3 -744 23 -44 c35 -64 104 -127 168 -150 53 -21 72 -21 774 -21 l720 0 0 210 0 210 -606 0 -606 0 -29 29 -29 29 0 496 0 496 28 29 c27 29 29 29 165 36 l137 6 0 -45 0 -46 -125 0 -125 0 0 -215 0 -215 335 0 335 0 0 470 0 470 -457 -1 c-379 0 -467 -3 -507 -16z"/>
 <path d="M3002 1143 c3 -331 4 -350 24 -394 32 -69 91 -128 159 -161 l60 -28 748 0 747 0 0 210 0 210 -620 0 c-440 0 -626 3 -644 11 -14 7 -32 26 -40 43 l-15 31 510 3 509 2 0 210 0 210 -721 0 -720 0 3 -347z"/>
 </g>

</svg>