<?xml version="1.0" encoding="utf-8"?>
<!DOCTYPE svg PUBLIC "-//W3C//DTD SVG 20010904//EN" "http://www.w3.org/TR/2001/REC-SVG-20010904/DTD/svg10.dtd">
<svg version="1.0" xmlns="http://www.w3.org/2000/svg" width="499px" height="192px" viewBox="0 0 499 192" preserveAspectRatio="xMidYMid meet">
 <g fill="#181816">
  <path d="M1 96 l0 -95 34.3 0 34.2 0 -0.3 30.5 -0.3 30.5 214.8 0 214.8 0 -0.3 64.5 -0.2 64.5 -157 0 -157 0 0 -30.5 0 -30.5 -27 0 -27 0 0 30.5 0 30.5 -64.5 0 -64.5 0 0 -95z"/>
 </g>
 <g fill="#27a7dc">
  <path d="M8 34.5 l0 -26.5 27.5 0 27.5 0 0 26.5 0 26.5 -27.5 0 -27.5 0 0 -26.5z"/>
 </g>
 <g fill="#7ad563">
  <path d="M8 127 l0 -58 27.5 0 27.5 0 -0.2 57.8 -0.3 57.7 -27.2 0.3 -27.3 0.3 0 -58.1z"/>
 </g>
 <g fill="#96f263">
  <path d="M8.1 183.3 c0 -1 0.3 -1.3 0.6 -0.5 0.3 0.9 6.1 1.2 23.8 1.2 20.3 0 23.4 -0.2 23.9 -1.6 0.3 -0.9 0.6 -26.1 0.6 -56 l0 -54.5 -24.5 0.3 c-22.8 0.3 -24.5 0.2 -24.5 -1.4 0 -1.7 2 -1.8 27.5 -1.8 l27.5 0 -0.2 57.8 -0.3 57.7 -27.2 0.3 c-25.8 0.3 -27.3 0.2 -27.2 -1.5z"/>
 </g>
 <g fill="#63c8f5">
  <path d="M56.8 36.3 l-0.3 -24.8 -24.3 0 c-22.4 0 -24.2 -0.1 -24.2 -1.7 0 -1.7 2 -1.8 27.5 -1.8 l27.5 0 0 26.5 0 26.5 -3 0 -3 0 -0.2 -24.7z"/>
 </g>
 <g fill="#ffffff">
  <path d="M70 127 l0 -58 57 0 57 0 0 27 0 27 -30.5 0 -30.5 0 0 31 0 31 -26.5 0 -26.5 0 0 -58z"/>
  <path d="M192.3 184.3 c-1 -0.4 -1.3 -12.9 -1.3 -57.9 l0 -57.4 58 0 58 0 -0.2 37.8 -0.3 37.7 -36.8 0.3 -36.8 0.2 0.3 3.6 0.3 3.5 36.5 0.2 36.5 0.2 0 16 0 16 -56.5 0.2 c-31.1 0.1 -57.1 -0.1 -57.7 -0.4z m73.7 -76.3 l0 -4 -16.2 0.2 c-16.2 0.3 -16.3 0.3 -16.6 2.6 -0.7 5.1 -0.4 5.2 16.8 5.2 l16 0 0 -4z"/>
  <path d="M314 127 l0 -58 89 0 89 0 -0.2 57.8 -0.3 57.7 -24.5 0.3 c-13.5 0.1 -25.5 0 -26.7 -0.3 l-2.3 -0.5 0 -28.5 0 -28.5 -3.5 0 -3.5 0 0 29 0 29 -26.5 0 -26.5 0 0 -29 0 -29 -3.7 0 -3.8 0 0 28.7 0 28.8 -28.2 0.3 -28.3 0.2 0 -58z"/>
 </g>
</svg>