<?xml version="1.0" encoding="UTF-8" standalone="no"?>
<svg
   xmlns:dc="http://purl.org/dc/elements/1.1/"
   xmlns:cc="http://creativecommons.org/ns#"
   xmlns:rdf="http://www.w3.org/1999/02/22-rdf-syntax-ns#"
   xmlns:svg="http://www.w3.org/2000/svg"
   xmlns="http://www.w3.org/2000/svg"
   xmlns:sodipodi="http://sodipodi.sourceforge.net/DTD/sodipodi-0.dtd"
   xmlns:inkscape="http://www.inkscape.org/namespaces/inkscape"
   version="1.0"
   width="1274.05"
   height="311"
   viewBox="0 0 12740.5 3110"
   preserveAspectRatio="xMidYMid meet"
   id="svg18"
   sodipodi:docname="medias-clear.svg"
   inkscape:version="0.92.5 (2060ec1f9f, 2020-04-08)">
  <metadata
     id="metadata24">
    <rdf:RDF>
      <cc:Work
         rdf:about="">
        <dc:format>image/svg+xml</dc:format>
        <dc:type
           rdf:resource="http://purl.org/dc/dcmitype/StillImage" />
        <dc:title></dc:title>
      </cc:Work>
    </rdf:RDF>
  </metadata>
  <defs
     id="defs22" />
  <sodipodi:namedview
     pagecolor="#ffffff"
     bordercolor="#666666"
     borderopacity="1"
     objecttolerance="10"
     gridtolerance="10"
     guidetolerance="10"
     inkscape:pageopacity="0"
     inkscape:pageshadow="2"
     inkscape:window-width="2488"
     inkscape:window-height="1376"
     id="namedview20"
     showgrid="false"
     fit-margin-top="0"
     fit-margin-left="0"
     fit-margin-right="0"
     fit-margin-bottom="0"
     inkscape:zoom="0.3515625"
     inkscape:cx="320.84444"
     inkscape:cy="155.5"
     inkscape:window-x="72"
     inkscape:window-y="27"
     inkscape:window-maximized="1"
     inkscape:current-layer="svg18" />
  <g
     id="layer101"
     style="fill:#000000;stroke:none"
     transform="translate(-20,-20)">
    <path
       d="m 11948,2664 c -242,-58 -417,-287 -459,-599 -16,-119 -6,-324 21,-435 11,-47 41,-127 66,-179 37,-76 61,-109 127,-176 136,-136 259,-181 477,-172 192,7 296,50 412,169 66,67 128,185 151,290 l 15,67 -27,5 c -14,3 -82,13 -151,21 -69,8 -137,18 -151,21 -25,5 -27,2 -33,-38 -28,-185 -196,-287 -351,-214 -126,58 -185,211 -185,480 0,243 60,389 186,452 56,27 175,26 229,-3 76,-40 125,-114 125,-188 v -35 h -140 -140 v -150 -150 h 320 320 v 415 415 h -88 -88 l -23,-80 c -13,-44 -26,-80 -28,-80 -3,0 -29,21 -57,48 -64,58 -134,96 -211,117 -73,19 -239,19 -317,-1 z"
       id="path2"
       style="fill:#f2f2f2;stroke:#1a1a1a"
       inkscape:connector-curvature="0" />
    <path
       d="M 3580,1650 V 640 h 720 720 v 205 205 h -470 -470 v 220 220 h 370 370 v 190 190 h -370 -370 v 395 395 h -250 -250 z"
       id="path4"
       style="fill:#f2f2f2;stroke:#1a1a1a"
       inkscape:connector-curvature="0" />
    <path
       d="M 5250,1650 V 640 h 720 720 v 205 205 h -470 -470 v 220 220 h 375 375 v 190 190 h -375 -375 v 395 395 h -250 -250 z"
       id="path6"
       style="fill:#f2f2f2;stroke:#1a1a1a"
       inkscape:connector-curvature="0" />
    <path
       d="m 6880,1890 v -770 h 283 284 l 128,440 c 71,242 132,440 135,440 4,0 67,-197 142,-437 l 135,-438 286,-3 287,-2 v 770 770 h -185 -185 l -2,-606 -3,-606 -186,604 -186,603 -129,3 -129,2 -182,-602 -182,-603 v 603 l -1,602 h -155 -155 z"
       id="path8"
       style="fill:#f2f2f2;stroke:#1a1a1a"
       inkscape:connector-curvature="0" />
    <path
       d="m 8850,1889 v -771 l 403,4 c 429,5 459,8 559,59 58,30 150,119 181,177 75,138 75,331 0,490 -55,116 -186,210 -323,232 -36,5 -149,10 -252,10 h -188 v 285 285 h -190 -190 z m 701,-100 c 103,-35 157,-163 110,-264 -43,-93 -99,-115 -297,-115 h -144 v 195 195 h 149 c 84,0 163,-5 182,-11 z"
       id="path10"
       style="fill:#f2f2f2;stroke:#1a1a1a"
       inkscape:connector-curvature="0" />
    <path
       d="m 10240,1890 v -770 h 555 555 v 150 150 h -365 -365 v 155 155 h 285 285 v 145 145 h -285 -285 v 165 165 h 365 365 v 155 155 h -555 -555 z"
       id="path12"
       style="fill:#f2f2f2;stroke:#1a1a1a"
       inkscape:connector-curvature="0" />
  </g>
  <g
     id="layer102"
     style="fill:#008700;stroke:none"
     transform="translate(-20,-20)">
    <path
       d="M 135,3111 C 113,3101 85,3082 73,3069 22,3013 5,2915 35,2842 46,2816 396,2459 1238,1617 L 2425,430 h -155 -155 l -880,881 c -603,604 -893,887 -920,900 -73,34 -176,19 -234,-34 -13,-12 -32,-40 -42,-62 -17,-37 -19,-75 -19,-538 0,-425 2,-503 15,-535 11,-25 112,-133 303,-324 L 625,430 H 400 C 203,430 170,427 135,411 62,377 20,309 20,225 20,141 62,73 135,39 172,22 210,20 673,20 c 536,0 539,0 595,53 62,57 81,170 43,245 -11,20 -213,230 -450,467 l -431,430 v 155 155 l 738,-737 c 515,-515 748,-742 774,-753 32,-13 110,-15 538,-15 400,0 507,3 533,14 38,16 83,59 105,101 21,40 20,141 -1,181 -8,17 -549,563 -1202,1215 l -1186,1184 152,3 153,3 891,-890 c 721,-720 897,-891 929,-901 57,-18 147,-9 189,20 49,34 85,93 92,154 4,28 5,260 3,516 -3,432 -4,467 -22,500 -10,19 -147,161 -304,315 l -285,280 240,5 c 233,5 241,6 275,29 68,47 103,126 92,209 -8,51 -35,94 -87,136 l -39,31 h -527 -528 l -41,-29 c -50,-34 -92,-112 -92,-170 0,-89 22,-116 474,-566 l 426,-425 v -155 -155 l -738,737 c -516,517 -748,742 -774,753 -32,13 -110,15 -535,15 -463,0 -501,-2 -538,-19 z"
       id="path15"
       inkscape:connector-curvature="0" />
  </g>
</svg>
