<!DOCTYPE svg PUBLIC "-//W3C//DTD SVG 20010904//EN" "http://www.w3.org/TR/2001/REC-SVG-20010904/DTD/svg10.dtd">
<svg version="1.0" xmlns="http://www.w3.org/2000/svg" width="1290px" height="231px" viewBox="0 0 12900 2310" preserveAspectRatio="xMidYMid meet">
<g id="layer101" fill="#000000" stroke="none">
<path d="M2407 2113 c15 -27 71 -122 125 -213 l97 -165 -109 -3 -110 -3 0 -159 0 -160 193 0 192 -1 349 -634 c192 -349 351 -635 355 -635 5 1 1111 1985 1119 2009 3 8 -60 11 -200 11 l-203 0 -112 -212 -112 -213 -496 0 -497 0 -117 212 -116 213 -193 0 -193 0 28 -47z m1376 -811 c-195 -364 -289 -530 -294 -524 -4 4 -83 148 -177 320 l-170 312 349 0 350 0 -58 -108z"/>
<path d="M7120 1155 c0 -553 3 -1005 8 -1005 4 0 254 288 557 639 302 352 550 639 551 638 18 -26 1109 -1303 1115 -1305 5 -2 9 427 9 1017 l0 1021 -180 0 -180 0 -2 -540 -3 -539 -380 459 c-209 252 -383 458 -387 457 -4 -1 -177 -204 -385 -452 l-378 -450 -3 533 -2 532 -170 0 -170 0 0 -1005z"/>
<path d="M9980 1130 l0 -1030 170 0 170 0 0 1030 0 1030 -170 0 -170 0 0 -1030z"/>
<path d="M320 1144 l0 -1006 48 38 c89 74 1377 1138 1429 1182 l53 44 -7 -641 -6 -641 171 0 172 0 0 1006 c0 553 -3 1003 -7 1001 -5 -3 -354 -287 -778 -631 l-770 -626 -3 640 -2 640 -150 0 -150 0 0 -1006z"/>
</g>
<g id="layer102" fill="#f36418" stroke="none">
<path d="M5518 2255 c-221 -36 -419 -137 -585 -298 -309 -299 -413 -752 -267 -1157 95 -265 288 -482 539 -608 163 -81 299 -112 500 -112 302 0 540 98 756 310 155 152 240 295 295 492 32 116 44 344 24 466 -71 443 -412 803 -852 898 -102 22 -303 27 -410 9z m358 -345 c309 -79 531 -327 575 -645 36 -255 -81 -530 -294 -691 -407 -308 -992 -135 -1167 343 -131 361 31 764 375 934 161 79 346 101 511 59z"/>
<path d="M11210 2177 l0 -94 300 -292 c417 -407 552 -563 649 -752 63 -124 86 -221 78 -338 -7 -104 -17 -140 -59 -211 -64 -105 -170 -159 -328 -167 -153 -8 -278 31 -424 131 -37 26 -70 46 -72 44 -13 -14 -94 -204 -90 -213 8 -21 144 -106 224 -140 144 -60 199 -70 392 -70 170 0 178 1 260 31 262 93 400 300 400 598 0 181 -45 325 -157 505 -88 142 -207 277 -474 544 l-268 267 479 0 480 0 0 125 0 125 -695 0 -695 0 0 -93z"/>
</g>


</svg>