<?xml version="1.0" encoding="UTF-8" standalone="no"?>
<svg
   xmlns:dc="http://purl.org/dc/elements/1.1/"
   xmlns:cc="http://creativecommons.org/ns#"
   xmlns:rdf="http://www.w3.org/1999/02/22-rdf-syntax-ns#"
   xmlns:svg="http://www.w3.org/2000/svg"
   xmlns="http://www.w3.org/2000/svg"
   xmlns:sodipodi="http://sodipodi.sourceforge.net/DTD/sodipodi-0.dtd"
   xmlns:inkscape="http://www.inkscape.org/namespaces/inkscape"
   version="1.1"
   x="0px"
   y="0px"
   width="282.97052"
   height="67.400574"
   viewBox="-110.047 5.731 282.97052 67.400574"
   enable-background="new -110.047 5.731 566.93 64.168"
   xml:space="preserve"
   id="svg166"
   sodipodi:docname="saturn.svg"
   inkscape:version="1.0.1 (3bc2e813f5, 2020-09-07)"><metadata
   id="metadata172"><rdf:RDF><cc:Work
       rdf:about=""><dc:format>image/svg+xml</dc:format><dc:type
         rdf:resource="http://purl.org/dc/dcmitype/StillImage" /></cc:Work></rdf:RDF></metadata><defs
   id="defs170" /><sodipodi:namedview
   pagecolor="#ffffff"
   bordercolor="#666666"
   borderopacity="1"
   objecttolerance="10"
   gridtolerance="10"
   guidetolerance="10"
   inkscape:pageopacity="0"
   inkscape:pageshadow="2"
   inkscape:window-width="2560"
   inkscape:window-height="1387"
   id="namedview168"
   showgrid="false"
   inkscape:zoom="3.0283373"
   inkscape:cx="108.24698"
   inkscape:cy="40.164965"
   inkscape:window-x="-8"
   inkscape:window-y="22"
   inkscape:window-maximized="1"
   inkscape:current-layer="svg166" />
<g
   id="Ebene_2_1_"
   transform="translate(0.00118771,-0.00706671)">
</g>
<g
   id="Ebene_1"
   transform="translate(0.00118771,2.1393256)">
	<title
   id="title3">Sega Saturn Logo</title>
	<g
   id="g163">
		
			<radialGradient
   id="SVGID_1_"
   cx="-90.551804"
   cy="191.2813"
   r="110.8008"
   gradientTransform="matrix(1,0,0,-1,-0.0449,199.7598)"
   gradientUnits="userSpaceOnUse">
			<stop
   offset="0"
   style="stop-color:#FFFFFF"
   id="stop5" />
			<stop
   offset="1"
   style="stop-color:#000000"
   id="stop7" />
		</radialGradient>
		<path
   fill="url(#SVGID_1_)"
   d="m -96.884,37.078 c 2.093,-1.583 5.084,-3.551 8.511,-5.267 3.43,-1.837 7.289,-3.489 11.575,-5.143 v 0.062 c 4.225,-1.592 8.694,-3.062 13.348,-4.348 4.716,-1.348 9.368,-2.45 14.022,-3.245 4.714,-0.918 9.245,-1.471 13.533,-1.716 4.409,-0.367 9.435,-0.025 10.701,0.062 1.267,0.087 3.075,-0.183 3.871,-0.795 0.797,-0.673 1.225,-1.471 1.347,-2.449 0.123,-1.042 -0.183,-1.96 -0.794,-2.696 -0.674,-0.795 -2.143,-1.284 -3.123,-1.346 -3.92,-0.43 -7.654,-0.43 -12.491,-0.124 -4.533,0.306 -9.309,0.918 -14.39,1.837 -4.838,0.857 -9.738,2.021 -14.636,3.368 -4.899,1.348 -9.55,2.879 -13.96,4.53 -4.592,1.778 -9.555,4.026 -12.37,5.452 -2.815,1.425 -6.441,3.472 -9.506,6 -3.064,2.527 -4.362,3.736 -6.415,6.918 -2.053,3.182 -2.524,6.79 -1.26,8.951 3.253,5.562 14.854,3.739 19.264,2.882 3.551,-0.733 7.898,-1.731 13.104,-3.199 3.795,-1.163 8.634,-2.694 14.511,-4.654 l 14.574,-4.775 c 5.327,-1.775 9.673,-3.124 13.043,-4.042 4.103,-1.225 11.39,-2.961 15.14,-2.281 -0.188,2.35 -3.106,8.643 -16.123,14.466 -4.838,2.205 -10.225,4.226 -16.166,6.185 h -0.061 c -4.59,1.469 -9.305,2.756 -14.144,3.919 -4.715,1.104 -9.125,1.899 -13.35,2.573 l 0.062,-0.062 c -6.645,0.927 -16.2,0.102 -18.088,0.349 -3.737,0.238 -4.646,2.591 -4.686,3.612 -0.04,1.018 -0.09,3.406 4.887,3.715 4.978,0.309 9.625,0.721 18.929,-0.39 5.774,-0.851 9.062,-1.53 13.899,-2.632 h 0.062 c 5.022,-1.225 9.92,-2.573 14.696,-4.104 6.246,-1.958 11.941,-4.163 17.021,-6.489 11.423,-5.124 15.536,-9.808 18.213,-13.834 2.678,-4.026 3.654,-9.559 0.876,-12.157 -3.182,-2.977 -9.235,-2.445 -11.314,-2.248 -2.971,0.283 -7.407,0.991 -11.876,2.276 -3.428,0.98 -7.839,2.328 -13.35,4.166 L -64.37,35.18 c -5.817,1.899 -10.533,3.43 -14.267,4.531 -4.96,1.472 -9.063,2.573 -12.494,3.247 -7.83,1.803 -10.348,0.794 -10.348,0.794 -0.105,-2.243 2.502,-5.092 4.595,-6.674 z"
   id="path10"
   style="fill:url(#SVGID_1_)" />
		<path
   fill="#333333"
   d="m -89.039,66.582 c -2.612,0 -4.834,-0.14 -6.982,-0.277 l -0.958,-0.06 c -5.437,-0.338 -5.325,-3.213 -5.288,-4.158 0.05,-1.282 1.178,-3.774 5.086,-4.023 0.244,-0.033 0.653,-0.049 1.261,-0.049 0.772,0 1.793,0.027 2.976,0.058 1.584,0.042 3.554,0.094 5.569,0.094 3.388,0 6.086,-0.147 8.25,-0.449 0.07,-0.009 0.137,-0.001 0.2,0.02 4.92,-0.79 9.074,-1.593 13.05,-2.524 5.12,-1.231 9.737,-2.51 14.11,-3.91 0.04,-0.013 0.082,-0.02 0.123,-0.021 6.267,-2.067 11.52,-4.079 16.057,-6.146 11.518,-5.152 15.31,-10.859 15.822,-13.718 -0.443,-0.056 -0.946,-0.084 -1.499,-0.084 -3.648,0 -9.128,1.248 -13.042,2.416 -3.333,0.908 -7.713,2.266 -13.029,4.037 l -14.577,4.777 c -5.071,1.692 -9.957,3.259 -14.519,4.657 -4.407,1.243 -8.703,2.291 -13.142,3.208 -3.388,0.658 -6.46,0.992 -9.137,0.992 -5.439,0 -9,-1.372 -10.583,-4.077 -1.363,-2.331 -0.854,-6.107 1.27,-9.398 2.082,-3.228 3.438,-4.488 6.502,-7.016 2.497,-2.059 5.721,-4.095 9.584,-6.052 2.685,-1.359 7.712,-3.65 12.409,-5.468 4.615,-1.729 9.324,-3.256 14.001,-4.544 5.355,-1.472 10.155,-2.576 14.674,-3.377 5.152,-0.931 9.875,-1.534 14.437,-1.842 2.309,-0.146 4.304,-0.217 6.101,-0.217 2.25,0 4.365,0.112 6.466,0.342 1.083,0.068 2.658,0.615 3.402,1.494 0.717,0.863 1.025,1.907 0.893,3.022 -0.138,1.102 -0.627,1.993 -1.496,2.726 -0.941,0.726 -2.879,0.985 -4.175,0.896 -0.822,-0.057 -3.321,-0.228 -6.196,-0.228 -1.632,0 -3.126,0.056 -4.441,0.165 -4.425,0.253 -8.958,0.828 -13.487,1.709 -4.464,0.763 -9.036,1.821 -13.986,3.236 -4.498,1.243 -8.976,2.701 -13.315,4.337 -0.07,0.026 -0.145,0.035 -0.217,0.022 -4.686,1.814 -8.283,3.417 -11.306,5.036 -3.961,1.983 -6.997,4.128 -8.455,5.231 -2.085,1.577 -4.284,4.076 -4.419,6.008 0.336,0.074 1.003,0.178 2.087,0.178 2.064,0 4.666,-0.359 7.733,-1.064 3.173,-0.624 7.014,-1.622 12.468,-3.24 3.711,-1.095 8.448,-2.632 14.255,-4.527 L -49.929,30 c 4.874,-1.625 9.371,-3.028 13.366,-4.17 5.406,-1.554 10.16,-2.119 11.953,-2.291 0.577,-0.055 1.774,-0.168 3.149,-0.168 3.845,0 6.704,0.851 8.499,2.529 3.058,2.862 1.864,8.683 -0.813,12.707 -2.825,4.246 -7.008,8.88 -18.395,13.987 -5.313,2.432 -11.056,4.622 -17.068,6.507 -4.572,1.465 -9.389,2.81 -14.724,4.11 -0.033,0.009 -0.067,0.013 -0.101,0.013 h -0.015 c -5.003,1.14 -8.206,1.791 -13.885,2.627 -4.183,0.499 -7.699,0.731 -11.076,0.731 z m -6.881,-7.713 c -0.562,0 -0.948,0.015 -1.179,0.045 -3.328,0.213 -4.274,2.189 -4.314,3.206 -0.037,0.969 -0.116,2.985 4.486,3.27 l 0.959,0.062 c 2.135,0.136 4.342,0.276 6.928,0.276 3.342,0 6.827,-0.231 10.964,-0.725 5.657,-0.833 8.847,-1.484 13.854,-2.625 0.031,-0.007 0.063,-0.01 0.095,-0.01 h 0.011 c 5.295,-1.292 10.076,-2.627 14.618,-4.083 5.981,-1.875 11.691,-4.052 16.974,-6.471 11.192,-5.02 15.282,-9.542 18.035,-13.682 2.517,-3.784 3.557,-9.16 0.941,-11.608 -1.631,-1.525 -4.293,-2.299 -7.914,-2.299 -1.335,0 -2.506,0.112 -3.068,0.165 -1.769,0.169 -6.461,0.727 -11.798,2.261 -3.984,1.139 -8.47,2.538 -13.333,4.16 l -14.575,4.776 c -5.814,1.898 -10.557,3.438 -14.279,4.535 -5.48,1.626 -9.345,2.63 -12.532,3.256 -3.117,0.717 -5.784,1.083 -7.912,1.083 -1.845,0 -2.597,-0.279 -2.677,-0.312 -0.155,-0.063 -0.26,-0.21 -0.268,-0.376 -0.125,-2.616 2.934,-5.653 4.762,-7.036 1.481,-1.12 4.565,-3.299 8.578,-5.308 3.092,-1.656 6.785,-3.297 11.612,-5.16 0.073,-0.028 0.151,-0.035 0.225,-0.023 4.293,-1.61 8.721,-3.049 13.164,-4.276 4.978,-1.423 9.578,-2.487 14.064,-3.254 4.557,-0.887 9.128,-1.467 13.581,-1.721 1.327,-0.111 2.844,-0.167 4.501,-0.167 2.904,0 5.425,0.173 6.253,0.229 0.146,0.01 0.298,0.015 0.456,0.015 1.267,0 2.581,-0.304 3.124,-0.722 0.691,-0.584 1.073,-1.276 1.185,-2.164 0.103,-0.874 -0.138,-1.695 -0.7,-2.37 -0.56,-0.661 -1.901,-1.134 -2.82,-1.192 -3.794,-0.416 -7.257,-0.452 -12.438,-0.124 -4.528,0.306 -9.219,0.904 -14.341,1.831 -4.495,0.796 -9.269,1.895 -14.598,3.359 -4.652,1.281 -9.337,2.8 -13.924,4.519 -4.665,1.806 -9.66,4.082 -12.326,5.432 -3.807,1.928 -6.979,3.93 -9.427,5.949 -3.053,2.519 -4.302,3.68 -6.328,6.82 -1.922,2.98 -2.436,6.476 -1.25,8.503 1.418,2.425 4.73,3.654 9.844,3.654 2.622,0 5.639,-0.328 8.969,-0.975 4.414,-0.912 8.69,-1.955 13.069,-3.191 4.546,-1.393 9.425,-2.958 14.492,-4.648 l 14.576,-4.776 c 5.329,-1.776 9.726,-3.139 13.063,-4.048 1.917,-0.572 8.57,-2.449 13.276,-2.449 0.778,0 1.469,0.053 2.053,0.16 0.216,0.04 0.368,0.236 0.35,0.455 -0.063,0.796 -1.062,7.972 -16.374,14.822 -4.579,2.086 -9.88,4.116 -16.206,6.2 -0.042,0.014 -0.084,0.021 -0.129,0.021 -4.375,1.398 -8.991,2.677 -14.109,3.907 -4.071,0.953 -8.324,1.772 -13.383,2.58 -0.075,0.013 -0.152,0.004 -0.222,-0.023 -2.155,0.282 -4.807,0.42 -8.093,0.42 -2.026,0 -4.003,-0.052 -5.593,-0.095 -1.173,-0.031 -2.185,-0.058 -2.952,-0.058 z"
   id="path12" />
		<g
   id="Ebene_2">
			<g
   id="g27">
				
					<radialGradient
   id="SVGID_2_"
   cx="-54.784698"
   cy="815.39752"
   r="28.278601"
   gradientTransform="translate(-0.1797,-790.9609)"
   gradientUnits="userSpaceOnUse">
					<stop
   offset="0.04"
   style="stop-color:#FFFFFF"
   id="stop14" />
					<stop
   offset="0.04"
   style="stop-color:#FFFFFF"
   id="stop16" />
					<stop
   offset="0.23"
   style="stop-color:#6E93E1"
   id="stop18" />
					<stop
   offset="1"
   style="stop-color:#363499"
   id="stop20" />
				</radialGradient>
				<circle
   fill="url(#SVGID_2_)"
   cx="-60.064999"
   cy="37.814999"
   r="31.229"
   id="circle23"
   style="fill:url(#SVGID_2_)" />
				<path
   fill="#33317A"
   d="m -60.065,69.899 c -17.691,0 -32.083,-14.393 -32.083,-32.084 0,-17.692 14.393,-32.084 32.083,-32.084 17.69,0 32.085,14.393 32.085,32.084 0,17.691 -14.394,32.084 -32.085,32.084 z m 0,-62.457 c -16.748,0 -30.373,13.625 -30.373,30.374 0,16.748 13.625,30.373 30.373,30.373 16.748,0 30.373,-13.625 30.373,-30.373 0,-16.75 -13.625,-30.374 -30.373,-30.374 z"
   id="path25" />
			</g>
		</g>
		<g
   id="Ebene_4">
			
				<radialGradient
   id="SVGID_3_"
   cx="-140.0278"
   cy="512.74902"
   r="244.9883"
   gradientTransform="translate(-0.0898,-395.4805)"
   gradientUnits="userSpaceOnUse">
				<stop
   offset="0"
   style="stop-color:#FFFFFF"
   id="stop30" />
				<stop
   offset="1"
   style="stop-color:#000000"
   id="stop32" />
			</radialGradient>
			<path
   fill="url(#SVGID_3_)"
   d="m -89.657,50.012 c 3.551,-0.733 7.898,-1.731 13.104,-3.199 3.795,-1.163 14.511,-4.654 14.511,-4.654 l 14.574,-4.775 c 5.327,-1.775 9.673,-3.124 13.043,-4.042 0,0 5.039,-1.327 5.895,-1.48 -0.306,-3.179 -2.131,-7.001 -2.131,-7.001 -1.84,0.356 -3.809,0.811 -5.785,1.379 -3.428,0.98 -7.839,2.328 -13.35,4.165 l -14.572,4.775 c -5.817,1.899 -10.533,3.43 -14.267,4.531 -7.69,2.397 -12.921,3.343 -13.128,3.389 -10e-4,0 0.693,4.555 2.106,6.912 z"
   id="path35"
   style="fill:url(#SVGID_3_)" />
		</g>
		<g
   id="Ebene_3">
			<g
   id="g40">
				<path
   fill="#333333"
   d="m -98.956,44.459 c -1.863,0 -2.623,-0.288 -2.68,-0.311 -0.219,-0.088 -0.326,-0.337 -0.238,-0.556 0.087,-0.22 0.337,-0.326 0.556,-0.238 0.021,0.007 2.563,0.919 10.093,-0.813 3.173,-0.623 7.014,-1.622 12.468,-3.24 3.712,-1.095 8.448,-2.632 14.255,-4.528 l 14.571,-4.774 c 4.874,-1.625 9.372,-3.029 13.367,-4.17 5.406,-1.554 10.16,-2.119 11.953,-2.29 0.232,-0.019 0.444,0.15 0.466,0.385 0.022,0.235 -0.15,0.444 -0.385,0.466 -1.769,0.168 -6.461,0.727 -11.798,2.261 -3.984,1.138 -8.47,2.538 -13.333,4.16 l -14.575,4.776 c -5.814,1.898 -10.557,3.437 -14.279,4.535 -5.48,1.626 -9.345,2.63 -12.532,3.256 -3.704,0.852 -6.245,1.081 -7.909,1.081 z"
   id="path38" />
			</g>
			<g
   id="g44">
				<path
   fill="#333333"
   d="m -98.664,51.409 c -4.477,0 -8.793,-0.929 -10.627,-4.063 -0.119,-0.204 -0.05,-0.466 0.153,-0.585 0.203,-0.119 0.466,-0.05 0.585,0.153 2.895,4.95 13.029,3.802 18.813,2.679 4.415,-0.912 8.691,-1.956 13.069,-3.191 3.739,-1.146 14.388,-4.615 14.495,-4.649 l 14.573,-4.775 c 5.329,-1.776 9.725,-3.139 13.063,-4.048 0.017,-0.005 2.057,-0.577 5.91,-1.483 3.625,-0.854 6.6,-1.168 8.604,-0.911 0.235,0.03 0.4,0.245 0.37,0.479 -0.03,0.234 -0.244,0.4 -0.479,0.37 -1.327,-0.172 -3.844,-0.154 -8.299,0.895 -3.833,0.902 -5.858,1.47 -5.878,1.475 -3.327,0.906 -7.708,2.264 -13.024,4.036 l -14.574,4.777 c -0.108,0.035 -10.763,3.506 -14.519,4.657 -4.407,1.243 -8.703,2.291 -13.142,3.208 -2.524,0.488 -5.851,0.976 -9.093,0.976 z"
   id="path42" />
			</g>
		</g>
		<g
   id="g93">
			<g
   id="g75">
				
					<linearGradient
   id="SVGID_4_"
   gradientUnits="userSpaceOnUse"
   x1="5.5630002"
   y1="-255.8076"
   x2="46.187599"
   y2="-215.1834"
   gradientTransform="matrix(0.67173724,0,0,-0.67173724,18.663146,-137.82259)">
					<stop
   offset="0"
   style="stop-color:#999999"
   id="stop47" />
					<stop
   offset="0.98"
   style="stop-color:#F3F3F3"
   id="stop49" />
				</linearGradient>
				<path
   fill="url(#SVGID_4_)"
   d="M 48.932836,8.8805866 C 48.54793,8.2384056 48.027334,7.8521566 47.382466,7.6385446 35.615645,4.336284 28.027701,4.810531 24.667,9.1405486 23.459216,10.5559 22.726351,11.928259 22.510723,13.342266 c -0.259962,1.414006 -0.08733,2.744046 0.558885,4.031766 h -0.04434 c 0.47559,0.984096 1.207784,1.884223 2.156949,2.700384 h 0.04299 c 0.775856,0.642181 1.594032,1.158075 2.542525,1.587987 0.644867,0.341914 2.155604,0.556198 4.568485,0.598518 0.47559,0.04366 1.381091,0.04366 2.758825,0.04366 1.207111,0.04366 2.156948,0.04366 2.844807,0.08531 h 0.04366 c 2.155604,0.04433 4.344124,0.253245 5.044746,0.470217 0.697935,0.218986 1.926543,1.491256 2.022601,2.062233 0.09942,0.565603 0,0 0,0 0.130317,0.341242 0.259962,0.43327 0.137035,1.301155 -0.126287,0.867884 -0.392295,0.713385 -0.73824,1.142625 v -0.04568 c -0.389607,0.343258 -1.035147,0.599861 -1.939977,0.859152 -1.291079,0.302953 -2.845479,0.515222 -4.655139,0.558213 -1.811004,0.04299 -3.620664,0 -5.473987,-0.214284 -1.76734,-0.215627 -3.318382,-0.517909 -4.612819,-0.901471 -0.645539,-0.212269 -1.334742,-0.170621 -1.940649,0.173308 -0.644867,0.300267 -1.077466,0.814146 -1.29175,1.499989 -0.215628,0.642181 -0.128974,1.328025 0.169949,1.970877 0.346616,0.59919 0.865198,1.027087 1.510737,1.244729 1.551041,0.511864 3.404364,0.853778 5.559969,1.114413 2.113957,0.213612 4.180221,0.300266 6.250515,0.255931 2.24293,-0.08665 4.182908,-0.341242 5.77694,-0.727491 2.240244,-0.559557 3.793972,-1.416694 4.612148,-2.531106 h 0.04299 c 0.688531,-0.859824 1.205097,-1.632993 1.507379,-2.319509 v -0.04366 c 0.346616,-0.854449 0.518581,-1.714273 0.518581,-2.612386 v -0.088 c -0.04299,-0.642181 0.01142,-1.582613 -0.333854,-2.484085 -0.129645,-0.470216 -0.255932,-0.730178 -0.949164,-2.228152 -0.695249,-1.493272 -2.297342,-2.449154 -5.09983,-3.047672 h -0.04232 c -1.379748,-0.25929 -3.362045,-0.473575 -5.90457,-0.558213 -0.732194,-0.04434 -1.72435,-0.04434 -3.017444,-0.088 -1.291751,0 -2.196581,0 -2.672843,-0.04299 -1.378404,-0.0403 -2.283234,-0.08531 -2.628507,-0.169278 -0.47559,-0.215628 -0.905502,-0.472231 -1.251447,-0.772498 C 28.198982,15.825 27.896029,15.482414 27.72272,15.141172 v -0.04434 c -0.17398,-0.256603 -0.216971,-0.558213 -0.130317,-0.859823 0.130317,-0.556871 0.432599,-1.154717 0.992156,-1.713602 2.585517,-2.4861 8.362457,-2.4861 17.371125,0.08665 0.692561,0.16995 1.338101,0.128974 1.939977,-0.256604 0.648899,-0.341242 1.078139,-0.857808 1.251447,-1.543652 0.218314,-0.639494 0.133004,-1.2850334 -0.214284,-1.9292294 z"
   id="path52"
   inkscape:transform-center-x="21.385281"
   inkscape:transform-center-y="30.441383"
   style="fill:url(#SVGID_4_);stroke-width:0.671737" />
				
					<linearGradient
   id="SVGID_5_"
   gradientUnits="userSpaceOnUse"
   x1="48.721199"
   y1="-252.3672"
   x2="88.273201"
   y2="-212.815"
   gradientTransform="matrix(0.67173724,0,0,-0.67173724,18.663146,-137.82259)">
					<stop
   offset="0"
   style="stop-color:#999999"
   id="stop54" />
					<stop
   offset="0.98"
   style="stop-color:#F3F3F3"
   id="stop56" />
				</linearGradient>
				<path
   fill="url(#SVGID_5_)"
   d="M 74.29629,6.706845 C 73.777709,6.234614 73.175161,5.977338 72.442967,5.977338 H 55.199472 c -0.689202,0 -1.335413,0.257948 -1.811003,0.729507 -0.516566,0.5125356 -0.774513,1.1164266 -0.774513,1.8439186 V 29.993288 c 0,0.685844 0.25929,1.331383 0.774513,1.8016 0.47559,0.518581 1.120457,0.773169 1.811003,0.773169 h 17.243495 c 0.732194,0 1.334742,-0.255932 1.853323,-0.773169 0.473575,-0.470217 0.732866,-1.115756 0.732866,-1.8016 0,-0.73085 -0.259291,-1.328696 -0.732866,-1.846605 -0.518581,-0.470216 -1.121129,-0.729507 -1.853323,-0.729507 H 57.787676 v -5.57206 h 10.774665 c 0.732194,0 1.334742,-0.255932 1.853323,-0.771827 0.472903,-0.474246 0.733537,-1.116427 0.733537,-1.802271 0,-0.728163 -0.259962,-1.328696 -0.733537,-1.843918 -0.518581,-0.476262 -1.121129,-0.732194 -1.853323,-0.732194 H 57.787676 v -5.572732 h 14.65462 c 0.732193,0 1.334741,-0.259962 1.853323,-0.77317 0.473574,-0.4735744 0.732865,-1.0700774 0.732865,-1.8015994 0,-0.724804 -0.259291,-1.328024 -0.732194,-1.8405596 z"
   id="path59"
   inkscape:transform-center-x="-5.9966793"
   inkscape:transform-center-y="30.028071"
   style="fill:url(#SVGID_5_);stroke-width:0.671737" />
				
					<linearGradient
   id="SVGID_6_"
   gradientUnits="userSpaceOnUse"
   x1="86.330101"
   y1="-256.55759"
   x2="129.8642"
   y2="-213.02341"
   gradientTransform="matrix(0.67173724,0,0,-0.67173724,18.663146,-137.82259)">
					<stop
   offset="0"
   style="stop-color:#999999"
   id="stop61" />
					<stop
   offset="0.98"
   style="stop-color:#F3F3F3"
   id="stop63" />
				</linearGradient>
				<path
   fill="url(#SVGID_6_)"
   d="m 104.06433,9.7410816 c -0.12696,-0.744956 -0.5159,-1.34952 -1.07344,-1.766669 C 98.259173,4.575423 93.07269,3.929883 88.059515,4.810531 86.082592,5.27403 85.442426,5.22768 83.282791,6.298429 81.127186,7.3651476 79.625182,9.3481156 79.625182,9.3481156 78.593393,10.46723 78.033836,11.832872 77.344634,13.643204 c -0.689202,1.810332 -0.685844,2.708444 -0.771826,4.941971 -0.08598,2.236213 0.212941,4.285683 0.857808,6.237752 0.644868,1.958114 1.634337,3.681792 2.969751,5.124683 v -0.05038 c 1.290407,1.4926 2.882424,2.651347 4.731717,3.397647 1.849964,0.79265 3.872565,1.212486 6.065115,1.212486 5.161629,0 8.908581,-1.168152 11.231451,-3.493034 2.71046,-2.373248 3.82755,-5.954951 3.39831,-10.748468 -0.043,-0.744956 -0.34191,-1.3072 -0.81817,-1.816377 -0.51522,-0.466858 -1.07411,-0.69995 -1.76466,-0.69995 H 92.059038 c -0.685844,0 -1.330711,0.276755 -1.810332,0.790634 -0.515222,0.558214 -0.773169,1.207112 -0.773169,2.001106 0,0.744956 0.257947,1.442219 0.773169,1.953411 0.479621,0.558214 1.12516,0.836313 1.810332,0.836313 h 8.606972 c -0.17331,1.397214 -0.73354,2.564693 -1.594707,3.445341 -1.676656,1.442891 -4.29979,2.140826 -7.871417,2.140826 -1.507378,0 -2.927431,-0.278099 -4.173503,-0.790635 l -0.04366,-0.04568 c -1.120458,-0.466857 -2.06492,-1.119114 -2.88444,-2.04947 -0.815489,-0.883334 -1.420724,-1.955427 -1.806301,-3.116861 -0.429912,-1.25682 -0.602549,-2.65269 -0.558214,-4.142603 0.04232,-1.58127 0.215628,-2.440422 0.514551,-3.509156 0.217643,-0.793993 0.559557,-1.442891 1.033132,-1.955427 0,0 0.769811,-1.19502 2.066935,-1.84056 1.297796,-0.648898 2.236885,-0.837656 3.828902,-1.257492 h 0.04366 c 3.788598,-0.9303564 7.401201,-0.139721 10.887512,2.418926 0.59987,0.419836 1.24541,0.558214 1.93125,0.419836 0.69055,-0.1854 1.24809,-0.559557 1.63702,-1.210471 0.3876,-0.605235 0.51724,-1.30317 0.3876,-2.0964924 z"
   id="path66"
   inkscape:transform-center-x="-33.412399"
   inkscape:transform-center-y="30.236405"
   style="fill:url(#SVGID_6_);stroke-width:0.671737" />
				
					<linearGradient
   id="SVGID_7_"
   gradientUnits="userSpaceOnUse"
   x1="136.45509"
   y1="-258.24411"
   x2="179.0757"
   y2="-215.6239"
   gradientTransform="matrix(0.67173724,0,0,-0.67173724,18.663146,-137.82259)">
					<stop
   offset="0"
   style="stop-color:#999999"
   id="stop68" />
					<stop
   offset="0.98"
   style="stop-color:#F3F3F3"
   id="stop70" />
				</linearGradient>
				<path
   fill="url(#SVGID_7_)"
   d="m 136.63956,32.36049 c 0.43125,-0.599861 0.6012,-1.198379 0.51656,-1.928557 -2.71516,-17.883661 -7.58526,-26.633038 -14.65462,-26.203127 -7.06601,-0.429911 -11.98312,8.019871 -14.61365,25.343975 -0.088,0.685843 0.0443,1.329368 0.47694,1.889597 0.42991,0.598518 0.98947,0.940432 1.67867,1.028429 0.69122,0.125615 1.33676,-0.04635 1.93998,-0.476261 0.55888,-0.427897 0.90751,-0.984095 1.03581,-1.673298 0.32311,-2.151574 0.67913,-4.139916 1.06135,-5.960996 h 0.0141 16.72223 c 0.43461,2.061561 0.83967,4.332705 1.21114,6.815446 0.12897,0.685844 0.43193,1.245401 1.0338,1.675313 0.55889,0.429911 1.20712,0.598517 1.89699,0.468872 0.68853,-0.07725 1.24809,-0.419836 1.68069,-0.979393 z M 115.3616,19.240119 c 1.88624,-6.345902 4.27226,-9.6327124 7.13722,-9.8637904 2.77897,0.227719 5.13677,3.5178884 7.02704,9.8637904 z"
   id="path73"
   inkscape:transform-center-x="-64.694769"
   inkscape:transform-center-y="29.553239"
   style="fill:url(#SVGID_7_);stroke-width:0.671737" />
			</g>
			<g
   id="g79">
				<path
   fill="#484848"
   d="m 36.976585,34.51408 c -1.744502,0 -3.465493,-0.08867 -5.263062,-0.270038 -2.406834,-0.290191 -4.212464,-0.654273 -5.692301,-1.143297 -0.79265,-0.266008 -1.431472,-0.79265 -1.853323,-1.5235 -0.40976,-0.87393 -0.478277,-1.714274 -0.221674,-2.479382 0.263993,-0.847061 0.825566,-1.496631 1.619559,-1.866087 0.662333,-0.380203 1.563804,-0.475589 2.396087,-0.199505 1.235325,0.365425 2.753451,0.662332 4.493922,0.875273 1.655832,0.191445 3.478927,0.253245 5.383302,0.210254 1.637024,-0.03896 3.160524,-0.221002 4.528853,-0.542092 0.868556,-0.249886 1.392511,-0.473575 1.67061,-0.720774 0.03493,-0.0309 0.07389,-0.0571 0.112852,-0.07926 0.08464,-0.07994 0.161217,-0.138378 0.223688,-0.186071 0.116211,-0.08867 0.148454,-0.11218 0.196819,-0.454095 0.04232,-0.29019 0.05105,-0.454766 0.03963,-0.569633 -0.01411,-0.01747 -0.02754,-0.03627 -0.03963,-0.05575 v 0 c -0.0013,0 -0.0013,-0.002 -0.0013,-0.002 v -6.72e-4 c 0,0 0,0 -0.0013,-6.72e-4 0.0013,0 -6.72e-4,-6.71e-4 -6.72e-4,-6.71e-4 0,-6.72e-4 0,-6.72e-4 0,-6.72e-4 v -0.0013 c 0,0 0,0 -6.72e-4,-6.71e-4 0,0 0,0 0,-6.72e-4 v 0 c -0.0403,-0.06583 -0.06986,-0.139722 -0.08464,-0.219658 l -0.04165,-0.237795 c -0.0013,-0.0067 -0.002,-0.01344 -0.004,-0.01948 -0.07725,-0.32512 -1.084184,-1.410648 -1.595376,-1.571865 -0.567618,-0.175995 -2.593577,-0.394981 -4.87211,-0.441331 -0.44469,-0.02351 -0.901471,-0.03359 -1.437518,-0.04635 -0.435286,-0.0094 -0.922295,-0.02015 -1.459013,-0.03963 -1.364298,0.0034 -2.289281,6.71e-4 -2.793755,-0.04635 -2.447924,-0.04172 -4.033895,-0.260705 -4.803035,-0.66845 -0.905501,-0.408416 -1.749875,-0.929684 -2.545212,-1.574552 -0.05777,-0.02351 -0.111508,-0.05374 -0.153828,-0.09068 -1.03246,-0.886693 -1.80966,-1.863399 -2.311448,-2.900561 -0.03291,-0.06852 -0.05239,-0.140393 -0.05911,-0.212941 -0.615983,-1.333398 -0.781902,-2.709116 -0.507161,-4.201044 0.223688,-1.472448 0.976706,-2.948255 2.295326,-4.4932514 1.991029,-2.5660356 5.429652,-3.8786106 10.202345,-3.8786106 3.567597,0 7.993673,0.734209 13.153287,2.181803 0.851091,0.2814576 1.468418,0.7765276 1.915123,1.5208126 0.455438,0.842359 0.540748,1.6585194 0.269367,2.4498264 -0.197491,0.793993 -0.738911,1.46573 -1.549026,1.892955 -0.42118,0.271382 -0.941104,0.423195 -1.497303,0.423195 v 0 c -0.278771,0 -0.574335,-0.03896 -0.881319,-0.113524 -8.676158,-2.477372 -14.396673,-2.545889 -16.792088,-0.242502 -0.420507,0.420508 -0.699278,0.896769 -0.817504,1.406618 -0.04501,0.15853 -0.02888,0.269367 0.03896,0.369455 0.04165,0.06247 0.0712,0.130989 0.08934,0.202865 0.134348,0.223689 0.35938,0.477605 0.670394,0.754361 0.265336,0.230406 0.614639,0.448049 1.03649,0.644868 0.435958,0.08195 1.83653,0.122928 2.448483,0.140393 0.486337,0.04299 1.396541,0.04299 2.655377,0.04299 0.569633,0.01881 1.06336,0.02956 1.505363,0.03896 0.609266,0.01343 1.123145,0.02485 1.551041,0.05038 2.325555,0.07658 4.384429,0.27071 5.936142,0.559557 0.03829,0.0013 0.07792,0.006 0.102776,0.01075 2.995948,0.640166 4.755228,1.718976 5.5331,3.393616 l 0.132332,0.287504 c 0.593816,1.282346 0.718087,1.549698 0.852435,2.038051 0.290862,0.751002 0.315716,1.546339 0.33654,2.183818 0.004,0.151812 0.0094,0.29422 0.01814,0.423194 l 0.0013,0.129645 c 0,0.949837 -0.174651,1.856682 -0.532687,2.767558 -0.0094,0.05172 -0.0215,0.101432 -0.03829,0.139721 -0.312358,0.705324 -0.832283,1.508722 -1.591346,2.456543 -0.04232,0.05172 -0.08934,0.09606 -0.143752,0.130317 -0.933714,1.165464 -2.562005,2.044097 -4.846584,2.615073 -1.685389,0.409088 -3.670372,0.659646 -5.903898,0.7463 -0.364754,0.0054 -0.719431,0.0087 -1.073436,0.0087 z M 26.976432,28.113767 c -0.298251,0 -0.582396,0.07523 -0.841687,0.223017 -0.525298,0.246528 -0.839671,0.613296 -1.00559,1.145312 -0.197491,0.589114 -0.03291,1.15203 0.140393,1.522157 0.247199,0.423866 0.641509,0.749659 1.145984,0.918936 1.396541,0.462156 3.124921,0.807429 5.435697,1.086871 2.096492,0.211597 4.115734,0.296908 6.162518,0.251902 2.139483,-0.08262 4.041843,-0.321762 5.642593,-0.710698 2.090446,-0.522612 3.523933,-1.29511 4.258814,-2.295326 0.04635,-0.06314 0.102104,-0.115539 0.165919,-0.155844 0.601876,-0.76578 1.023056,-1.411319 1.280331,-1.966174 0.0081,-0.03963 0.01747,-0.07658 0.02956,-0.106807 0.318404,-0.786604 0.472903,-1.565147 0.472903,-2.379293 v -0.088 c -0.0074,-0.10076 -0.01276,-0.257275 -0.01881,-0.424537 -0.01747,-0.573664 -0.03963,-1.224577 -0.274069,-1.837202 -0.122928,-0.435286 -0.222345,-0.6536 -0.800711,-1.903703 l -0.130989,-0.28616 c -0.596502,-1.282347 -2.062905,-2.137468 -4.615506,-2.688964 -0.03023,-0.002 -0.06113,-0.0047 -0.08061,-0.0081 -1.042536,-0.196819 -2.897874,-0.451408 -5.809183,-0.547466 -0.430584,-0.0262 -0.928341,-0.03695 -1.518126,-0.04971 -0.447377,-0.0087 -0.946478,-0.02015 -1.49999,-0.03896 -1.313246,0.0054 -2.202626,6.71e-4 -2.707101,-0.04568 -1.635008,-0.04635 -2.356454,-0.09539 -2.720536,-0.184056 -0.03762,-0.0094 -0.07456,-0.02217 -0.109493,-0.03829 -0.558213,-0.252573 -1.029773,-0.54545 -1.401915,-0.869228 -0.482308,-0.428568 -0.810787,-0.824221 -1.008278,-1.2145 -0.01948,-0.03829 -0.03426,-0.07658 -0.04568,-0.116211 -0.20488,-0.377516 -0.25123,-0.81213 -0.12763,-1.24137 0.163904,-0.708683 0.554855,-1.385794 1.150014,-1.980954 2.79577,-2.6876204 8.786995,-2.6963534 17.981062,-0.07053 0.52194,0.126958 1.018354,0.08329 1.434831,-0.182041 0.54881,-0.291534 0.855793,-0.666363 0.982752,-1.172181 0.171965,-0.50649 0.114195,-0.9753634 -0.157858,-1.4818534 C 48.108615,8.7166406 47.72371,8.4083136 47.186992,8.2303026 42.16374,6.82167 37.851859,6.102911 34.396443,6.102911 c -4.368979,0 -7.477107,1.1513576 -9.238402,3.4204856 -1.182258,1.3864664 -1.841904,2.6594084 -2.032677,3.9148854 -0.241826,1.317948 -0.07792,2.508939 0.499101,3.660296 0.03359,0.06583 0.05441,0.136363 0.06247,0.208239 0.411774,0.777871 1.01701,1.520141 1.801599,2.212031 0.04971,0.02082 0.09673,0.04769 0.134347,0.07926 0.749659,0.621357 1.513424,1.097619 2.402805,1.49999 0.364081,0.191445 1.357581,0.49104 4.323301,0.543435 0.493055,0.04366 1.389824,0.04366 2.748077,0.04366 0.553511,0.01948 1.034475,0.03023 1.464387,0.03963 0.555527,0.01276 1.027758,0.02351 1.419381,0.04702 2.21942,0.04433 4.461678,0.257947 5.233505,0.497086 0.818847,0.257275 2.216732,1.594032 2.434375,2.471321 l 0.0356,0.08397 c 0.151813,0.351991 0.240482,0.646211 0.121585,1.489242 -0.112852,0.782574 -0.372814,1.035819 -0.673081,1.264881 -0.07725,0.05911 -0.133004,0.102104 -0.194804,0.180025 -0.07725,0.09539 -0.176667,0.162561 -0.288175,0.199506 -0.42521,0.303626 -1.023056,0.551497 -1.965503,0.822207 -1.481853,0.347288 -3.091335,0.54142 -4.812326,0.581053 -0.412446,0.01008 -0.824893,0.01545 -1.23734,0.01545 -1.551041,0 -2.964376,-0.07591 -4.322629,-0.233764 -1.814362,-0.221002 -3.400334,-0.532016 -4.718954,-0.922967 -0.218986,-0.07255 -0.419164,-0.106135 -0.616655,-0.106135 z"
   id="path77"
   inkscape:transform-center-x="21.385646"
   inkscape:transform-center-y="30.442533"
   style="stroke-width:0.671737" />
			</g>
			<g
   id="g83">
				<path
   fill="#484848"
   d="M 72.442296,33.189414 H 55.198801 c -0.886694,0 -1.692106,-0.345945 -2.268457,-0.974019 -0.591129,-0.536718 -0.938417,-1.340116 -0.938417,-2.222107 V 8.5507636 c 0,-0.884678 0.322434,-1.6531446 0.959241,-2.2845776 0.592472,-0.587771 1.389824,-0.909533 2.248304,-0.909533 h 17.243495 c 0.856465,0 1.620902,0.299595 2.271816,0.890724 0.63412,0.6845 0.937073,1.4449066 0.937073,2.3006996 0,0.879304 -0.308327,1.6336654 -0.915578,2.2409154 -0.642181,0.634792 -1.412663,0.954539 -2.293311,0.954539 H 58.409033 v 4.330018 h 10.153308 c 0.860496,0 1.624933,0.300938 2.273159,0.895426 0.633448,0.686515 0.93573,1.448937 0.93573,2.302715 0,0.853778 -0.325121,1.649115 -0.915578,2.240916 -0.639494,0.633448 -1.409976,0.953867 -2.293982,0.953867 H 58.409033 v 4.330018 h 14.033934 c 0.853778,0 1.617544,0.298923 2.271816,0.890052 0.635463,0.693904 0.937073,1.455654 0.937073,2.308089 0,0.85848 -0.325121,1.65516 -0.916921,2.24293 -0.636135,0.631433 -1.407962,0.951852 -2.292639,0.951852 z M 55.198801,6.598024 c -0.527986,0 -1.014995,0.195475 -1.373703,0.550152 -0.403042,0.3996836 -0.590457,0.8457176 -0.590457,1.4025876 V 29.993288 c 0,0.529329 0.202865,1.006263 0.57232,1.342803 0.382219,0.413118 0.849748,0.611281 1.392511,0.611281 h 17.243495 c 0.559557,0 1.00895,-0.188758 1.415351,-0.592472 0.354677,-0.351991 0.549481,-0.836313 0.549481,-1.36094 0,-0.548138 -0.180698,-1.00156 -0.569633,-1.427442 -0.387593,-0.346616 -0.843702,-0.527313 -1.395199,-0.527313 H 57.787676 c -0.34393,0 -0.622029,-0.2781 -0.622029,-0.621357 v -5.572061 c 0,-0.343257 0.278099,-0.621357 0.622029,-0.621357 h 10.774665 c 0.559557,0 1.00895,-0.187414 1.416022,-0.5918 0.352662,-0.354677 0.548138,-0.839 0.548138,-1.36094 0,-0.548137 -0.180026,-1.000217 -0.56829,-1.424754 -0.384905,-0.349976 -0.841015,-0.530673 -1.39587,-0.530673 H 57.787676 c -0.34393,0 -0.622029,-0.278099 -0.622029,-0.621357 v -5.572732 c 0,-0.343258 0.278099,-0.621357 0.622029,-0.621357 h 14.65462 c 0.557541,0 1.007605,-0.188758 1.416693,-0.5944874 0.368784,-0.368112 0.548138,-0.813474 0.548138,-1.358925 0,-0.54142 -0.1854,-1.004919 -0.56829,-1.4193806 -0.387592,-0.348631 -0.843702,-0.53 -1.396541,-0.53 z"
   id="path81"
   inkscape:transform-center-x="-5.9970148"
   inkscape:transform-center-y="30.028407"
   style="stroke-width:0.671737" />
			</g>
			<g
   id="g87">
				<path
   fill="#484848"
   d="m 91.198543,35.127376 c -2.231511,0 -4.354201,-0.42521 -6.309628,-1.261523 -1.838545,-0.741597 -3.458103,-1.882207 -4.804265,-3.38757 -0.05038,-0.02821 -0.09807,-0.06381 -0.139049,-0.108822 -1.379749,-1.491928 -2.424972,-3.292856 -3.104098,-5.352402 -0.685844,-2.075668 -0.976034,-4.186938 -0.888037,-6.455395 l 0.01344,-0.364082 c 0.07389,-1.978938 0.111508,-2.971765 0.798695,-4.776051 0.716744,-1.881536 1.307873,-3.306291 2.404148,-4.4945944 0.0262,-0.03963 1.577239,-2.0655916 3.838307,-3.1847066 1.746516,-0.866541 2.549242,-1.033131 3.765759,-1.286376 0.335868,-0.06986 0.707339,-0.147111 1.145312,-0.250558 1.413335,-0.249887 2.778305,-0.372815 4.092223,-0.372815 4.166786,0 7.983597,1.223906 11.34161,3.6367856 0.71943,0.536718 1.17353,1.285033 1.32467,2.167024 0.1545,0.9498374 -0.006,1.8009284 -0.47761,2.5358084 -0.43797,0.734881 -1.11441,1.23734 -1.99909,1.473792 -0.24787,0.05172 -0.46014,0.07322 -0.66636,0.07322 v 0 c -0.62875,0 -1.22861,-0.196147 -1.78212,-0.584411 -3.321069,-2.439078 -6.779172,-3.2082174 -10.382371,-2.324211 -0.0356,0.0081 -0.0712,0.01411 -0.10815,0.01679 l -0.585083,0.151813 c -1.203753,0.311014 -2.000433,0.515894 -3.050359,1.041193 -1.132549,0.563587 -1.816377,1.610826 -1.823095,1.621573 -0.01881,0.03023 -0.04232,0.05911 -0.0665,0.08531 -0.406401,0.439988 -0.697934,0.995515 -0.890051,1.698152 -0.295565,1.058658 -0.452751,1.867429 -0.492384,3.362045 -0.04366,1.459013 0.133676,2.778977 0.524627,3.925632 0.374158,1.122473 0.937073,2.09582 1.676656,2.895859 0.738911,0.839672 1.607467,1.456327 2.666125,1.896986 0.05307,0.02284 0.102776,0.0524 0.148454,0.08733 1.157403,0.459468 2.478039,0.701294 3.829574,0.701294 3.419143,0 5.93144,-0.670394 7.465688,-1.990358 0.606579,-0.622028 1.034475,-1.417365 1.258835,-2.353095 h -7.865371 c -0.888708,0 -1.698823,-0.373486 -2.281891,-1.052612 -0.583068,-0.574336 -0.922967,-1.425427 -0.922967,-2.357798 0,-0.946478 0.306984,-1.7398 0.939088,-2.422285 0.594488,-0.640165 1.398557,-0.99014 2.26577,-0.99014 h 11.185095 c 0.82825,0 1.54164,0.281458 2.1818,0.860495 0.66032,0.702637 0.97268,1.403259 1.02172,2.241587 0.44536,4.971528 -0.76847,8.763484 -3.60925,11.251599 -2.40482,2.40952 -6.331128,3.645517 -11.639867,3.645517 z M 80.709366,29.361855 c 0.05978,0.03224 0.114195,0.07456 0.161888,0.128974 1.245401,1.441548 2.758154,2.527747 4.493923,3.227026 1.812347,0.776528 3.770461,1.167479 5.832694,1.167479 4.966825,0 8.597565,-1.114412 10.790789,-3.310321 2.59223,-2.271144 3.63477,-5.616395 3.21963,-10.254069 -0.0329,-0.558886 -0.23376,-0.999545 -0.65292,-1.446922 -0.37618,-0.337212 -0.79131,-0.503803 -1.31124,-0.503803 H 92.059038 c -0.517909,0 -0.999545,0.210925 -1.355566,0.592472 -0.413118,0.448049 -0.60725,0.949837 -0.60725,1.577911 0,0.598518 0.210254,1.134564 0.589785,1.511409 0.382219,0.442003 0.845046,0.656959 1.373031,0.656959 h 8.606972 c 0.17801,0 0.34729,0.07591 0.46484,0.209582 0.11822,0.133004 0.17398,0.311014 0.15181,0.487681 -0.18473,1.495959 -0.79668,2.810549 -1.767338,3.804048 -1.830484,1.577911 -4.538257,2.326898 -8.315436,2.326898 -1.575895,0 -3.059091,-0.281458 -4.409283,-0.836985 -0.0571,-0.02351 -0.110165,-0.05508 -0.156515,-0.09337 -1.187631,-0.512536 -2.170383,-1.221219 -3.001322,-2.165681 -0.850419,-0.919609 -1.502004,-2.043425 -1.930573,-3.330473 -0.437972,-1.28369 -0.636807,-2.752108 -0.589113,-4.358232 0.04299,-1.612169 0.221673,-2.530434 0.536718,-3.657609 0.237123,-0.865198 0.621357,-1.596719 1.14061,-2.172398 0.170621,-0.248543 0.984767,-1.367657 2.280548,-2.012525 1.168151,-0.584411 2.06089,-0.814145 3.295543,-1.1325494 l 0.652928,-0.169278 c 0.0403,-0.01075 0.08128,-0.01679 0.1236,-0.01948 3.935037,-0.946478 7.749161,-0.09337 11.333553,2.5384954 0.33452,0.233764 0.6845,0.350647 1.05798,0.350647 v 0 c 0.12629,0 0.25392,-0.01344 0.38289,-0.03963 0.53806,-0.145767 0.93976,-0.440659 1.22592,-0.919608 0.31572,-0.492383 0.41245,-1.035147 0.30766,-1.6766564 -0.0961,-0.558886 -0.38356,-1.033132 -0.83228,-1.369672 C 98.488235,5.505783 93.589256,4.470636 88.168336,5.422488 c -0.415805,0.09875 -0.79668,0.17801 -1.141953,0.249886 -1.161434,0.241825 -1.863399,0.388264 -3.466836,1.183601 -1.993045,0.9867816 -3.425188,2.8501806 -3.440638,2.8689896 -0.982752,1.0720924 -1.505363,2.3336154 -2.192551,4.1399164 -0.615311,1.612841 -0.645539,2.422956 -0.718758,4.380399 l -0.01411,0.364753 c -0.08128,2.117988 0.18943,4.086849 0.826909,6.018766 0.599861,1.81369 1.503348,3.405707 2.688964,4.73306 z"
   id="path85"
   inkscape:transform-center-x="-33.412889"
   inkscape:transform-center-y="30.235302"
   style="stroke-width:0.671737" />
			</g>
			<g
   id="g91">
				<path
   fill="#484848"
   d="m 134.50746,34.004231 v 0 c -0.65091,0 -1.28167,-0.221673 -1.82578,-0.640165 -0.67711,-0.482308 -1.09762,-1.158075 -1.26622,-2.052829 -0.33923,-2.267785 -0.70936,-4.381071 -1.10568,-6.309628 h -15.72471 c -0.3446,1.690762 -0.66434,3.514529 -0.95319,5.432339 -0.15853,0.857137 -0.58508,1.548354 -1.27227,2.072981 -0.77317,0.55284 -1.57724,0.749659 -2.42833,0.593816 -0.83161,-0.10412 -1.53962,-0.535375 -2.07298,-1.276301 -0.50045,-0.646883 -0.70331,-1.436846 -0.58844,-2.330256 2.67553,-17.625714 7.79618,-26.334115 15.26859,-25.886067 0.1021,-0.01075 0.27877,-0.01612 0.45476,-0.01612 7.2111,0 12.04358,8.748705 14.77554,26.745889 0.10412,0.895426 -0.0954,1.6471 -0.62539,2.384668 -0.56493,0.729506 -1.27294,1.139266 -2.11799,1.234653 -0.14375,0.02888 -0.33184,0.04702 -0.51791,0.04702 z M 114.07993,23.758895 h 16.73566 c 0.29422,0 0.5468,0.206223 0.60725,0.493055 0.44066,2.083057 0.84975,4.388459 1.21786,6.85172 0.10614,0.556198 0.34864,0.951852 0.78056,1.261522 0.45007,0.345945 0.91961,0.461484 1.4214,0.36341 0.55015,-0.06381 0.9626,-0.306312 1.30518,-0.748315 0.33453,-0.466857 0.45611,-0.913563 0.39028,-1.476478 -2.64597,-17.42688 -7.37097,-26.070794 -13.999,-25.654989 -0.23444,-0.0094 -0.39162,-0.01411 -0.54679,-0.01411 -6.45003,0 -10.98896,8.354396 -13.49118,24.831439 -0.0699,0.547466 0.045,1.016339 0.35401,1.416022 0.34057,0.472903 0.74965,0.72682 1.26622,0.79265 0.14308,0.02418 0.2519,0.03426 0.35871,0.03426 0.39028,0 0.76376,-0.130317 1.14195,-0.401027 0.42387,-0.323778 0.68585,-0.747644 0.78526,-1.280331 0.31639,-2.107912 0.67577,-4.125139 1.06403,-5.975103 0.0611,-0.287504 0.31505,-0.493727 0.6086,-0.493727 z m 15.44593,-3.89742 H 115.3616 c -0.19749,0 -0.38154,-0.0927 -0.49843,-0.249886 -0.11822,-0.157186 -0.15382,-0.360723 -0.0981,-0.548137 1.98499,-6.678412 4.49796,-10.0491894 7.68333,-10.3064654 0.0316,-0.002 0.0665,-0.002 0.10009,0 3.10544,0.254589 5.58281,3.6253664 7.5725,10.3064654 0.0558,0.188086 0.0188,0.390951 -0.0981,0.548137 -0.11486,0.157187 -0.29959,0.249886 -0.49708,0.249886 z m -13.32459,-1.242713 h 12.48357 c -1.72166,-5.415546 -3.85375,-8.387983 -6.18804,-8.6190614 -2.43841,0.2344364 -4.55505,3.1323114 -6.29553,8.6190614 z"
   id="path89"
   inkscape:transform-center-x="-64.692115"
   inkscape:transform-center-y="29.553326"
   style="stroke-width:0.671737" />
			</g>
		</g>
		<g
   id="g161">
			
				<linearGradient
   id="SVGID_8_"
   gradientUnits="userSpaceOnUse"
   x1="196.2188"
   y1="-256.54001"
   x2="237.9565"
   y2="-214.8022"
   gradientTransform="matrix(0.68060641,0,0,-0.68060641,-138.12691,-105.02802)">
				<stop
   offset="0"
   style="stop-color:#999999"
   id="stop95" />
				<stop
   offset="0.98"
   style="stop-color:#F3F3F3"
   id="stop97" />
			</linearGradient>
			<path
   fill="url(#SVGID_8_)"
   d="m 23.047377,43.380045 c -0.39339,-0.656106 -0.92427,-1.050176 -1.58445,-1.269331 -12.0229204,-3.373766 -19.7757104,-2.891896 -23.2100504,1.534767 -1.23395,1.444928 -1.9826,2.846978 -2.2038,4.293266 -0.26545,1.444927 -0.0885,2.802057 0.57172,4.117669 h -0.0442 c 0.48595,1.007296 1.23461,1.925436 2.2038,2.759179 h 0.0435 c 0.79154002,0.656104 1.62937002,1.182893 2.59856,1.621885 0.6595,0.351872 2.20244,0.570347 4.66692,0.613224 0.48732,0.04289 1.41227,0.04289 2.81839,0.04289 1.2353004,0.04493 2.2044904,0.04493 2.9075504,0.08984 h 0.0442 c 2.20245,0.0456 4.43824,0.257949 5.15493,0.478466 0.71259,0.226642 1.97035,1.525239 2.06767,2.1092 0.10138,0.580557 0,0 0,0 0.13136,0.34915 0.26611,0.441032 0.13743,1.327862 -0.12792,0.890916 -0.40089,0.730291 -0.75344,1.169283 v -0.04424 c -0.39815,0.348471 -1.05835,0.609142 -1.98261,0.875939 -1.31901,0.307634 -2.90686,0.526109 -4.75743,0.568987 -1.8505704,0.04696 -3.6991004,0 -5.5932304,-0.217113 -1.80361,-0.219836 -3.38875,-0.526789 -4.71116,-0.92154 -0.66153998,-0.218475 -1.36460998,-0.171514 -1.98259998,0.175595 -0.66155002,0.309675 -1.10189002,0.831021 -1.32038002,1.532047 -0.21984,0.656104 -0.13136,1.357129 0.17356,2.013232 0.35458,0.613228 0.88411002,1.052217 1.54429002,1.272735 1.58309998,0.524067 3.47790998,0.87526 5.68237998,1.140016 2.15821,0.217112 4.26945,0.306273 6.3847704,0.262032 2.29228,-0.08779 4.27422,-0.351873 5.90358,-0.745944 2.28683,-0.571708 3.87606,-1.444927 4.71253,-2.584942 h 0.0442 c 0.70442,-0.876622 1.23189,-1.668167 1.54157,-2.368513 v -0.04491 c 0.35391,-0.87526 0.52951,-1.750518 0.52951,-2.6707 v -0.08779 c -0.0435,-0.656105 0.0131,-1.61576 -0.34031,-2.539343 -0.13267,-0.481192 -0.26271,-0.745947 -0.96917,-2.273908 -0.71193,-1.527962 -2.34947,-2.505313 -5.21142,-3.115818 h -0.0448 c -1.4075,-0.265436 -3.43434,-0.48187 -6.03086,-0.568987 -0.74934,-0.04289 -1.76141,-0.04289 -3.0838304,-0.09051 -1.31969,0 -2.24464,0 -2.73126,-0.04424 -1.40749,-0.03947 -2.33311,-0.08712 -2.68567,-0.172193 -0.48596,-0.22256 -0.92426,-0.483911 -1.27886,-0.789505 -0.39475,-0.349832 -0.70375,-0.701024 -0.88071,-1.049495 v -0.04493 c -0.17763,-0.262718 -0.21984,-0.56899 -0.13201,-0.876624 0.13201,-0.568987 0.44171,-1.181532 1.01273,-1.750521 2.6428,-2.542744 8.5450104,-2.542744 17.7481804,0.08915 0.7085,0.172192 1.36801,0.130673 1.98261,-0.263395 0.66358,-0.349151 1.10189,-0.878662 1.27954,-1.579006 0.21982,-0.658147 0.13201,-1.317656 -0.22187,-1.973759 z"
   id="path100"
   style="fill:url(#SVGID_8_);stroke-width:0.680606" />
			
				<linearGradient
   id="SVGID_9_"
   gradientUnits="userSpaceOnUse"
   x1="244.28999"
   y1="-261.6377"
   x2="289.43051"
   y2="-216.49741"
   gradientTransform="matrix(0.68060641,0,0,-0.68060641,-138.12691,-105.02802)">
				<stop
   offset="0"
   style="stop-color:#999999"
   id="stop102" />
				<stop
   offset="0.98"
   style="stop-color:#F3F3F3"
   id="stop104" />
			</linearGradient>
			<path
   fill="url(#SVGID_9_)"
   d="m 30.203957,68.956554 c 0.57306,-0.439671 0.92698,-1.00934 1.05765,-1.710363 0.3335,-2.197679 0.69627,-4.22997 1.0849,-6.087344 h 17.10499 c 0.44512,2.106476 0.85552,4.426664 1.23394,6.963965 0.13202,0.701023 0.439,1.272734 1.05699,1.709002 0.57238,0.437631 1.23188,0.613906 1.93836,0.481869 0.70444,-0.08848 1.27613,-0.439671 1.71648,-1.006616 0.439,-0.615949 0.61664,-1.229856 0.52815,-1.972397 -2.77346,-18.270201 -7.75278,-27.208604 -14.97468,-26.769613 -7.2226,-0.438991 -12.19988,8.194501 -14.93115,25.894352 -0.13137,0.701024 0.0442,1.357129 0.48323,1.928158 0.44238,0.615269 1.01273,0.966461 1.72057,1.050176 0.74935,0.132034 1.36394,-0.04152 1.98057,-0.481189 z m 3.45339,-13.058116 c 1.92952,-6.482775 4.36949,-9.838845 7.29611,-10.075017 2.86533,0.228684 5.26719,3.591561 7.18651,10.075017 z"
   id="path107"
   style="fill:url(#SVGID_9_);stroke-width:0.680606" />
			
				<linearGradient
   id="SVGID_10_"
   gradientUnits="userSpaceOnUse"
   x1="275.25589"
   y1="-251.48441"
   x2="317.45999"
   y2="-209.2802"
   gradientTransform="matrix(0.68060641,0,0,-0.68060641,-138.12691,-105.02802)">
				<stop
   offset="0"
   style="stop-color:#999999"
   id="stop109" />
				<stop
   offset="0.98"
   style="stop-color:#F3F3F3"
   id="stop111" />
			</linearGradient>
			<path
   fill="url(#SVGID_10_)"
   d="m 78.520197,42.621849 c -0.52747,-0.480508 -1.14613,-0.743903 -1.89345,-0.743903 h -22.90104 c -0.70647,0 -1.36666,0.263395 -1.85261,0.743903 -0.52679,0.52679 -0.79154,1.140015 -0.79154,1.884598 0,0.701027 0.26544,1.357131 0.79154,1.841042 0.48595,0.529511 1.14614,0.790183 1.85261,0.790183 h 8.80637 v 20.152077 c 0,0.703067 0.26543,1.360532 0.79221,1.843082 0.48595,0.52679 1.14615,0.789503 1.85057,0.789503 0.7514,0 1.36735,-0.263394 1.89279,-0.789503 0.48662,-0.48255 0.75138,-1.140015 0.75138,-1.843082 V 47.13631 h 8.80705 c 0.74799,0 1.36597,-0.262031 1.89276,-0.788821 0.48595,-0.483911 0.74866,-1.140015 0.74866,-1.841042 10e-4,-0.743901 -0.26134,-1.357128 -0.7473,-1.884598 z"
   id="path114"
   style="fill:url(#SVGID_10_);stroke-width:0.680606" />
			
				<linearGradient
   id="SVGID_11_"
   gradientUnits="userSpaceOnUse"
   x1="319.35941"
   y1="-255.396"
   x2="362.02859"
   y2="-212.72659"
   gradientTransform="matrix(0.68060641,0,0,-0.68060641,-138.12691,-105.02802)">
				<stop
   offset="0"
   style="stop-color:#999999"
   id="stop116" />
				<stop
   offset="0.98"
   style="stop-color:#F3F3F3"
   id="stop118" />
			</linearGradient>
			<path
   fill="url(#SVGID_11_)"
   d="m 109.37889,42.098463 c -0.52747,-0.526789 -1.14477,-0.788142 -1.89412,-0.788142 -0.70444,0 -1.36395,0.261353 -1.84921,0.788142 -0.52815,0.479147 -0.79359,1.138655 -0.79359,1.83968 v 13.011152 c 0,1.010701 -0.1756,1.973759 -0.569,2.85038 -0.35391,0.918139 -0.92629,1.664082 -1.58853,2.365107 -0.70442,0.656106 -1.45241,1.227815 -2.376,1.577646 -0.880016,0.394753 -1.850566,0.567626 -2.863306,0.567626 h -3.9203 c -1.01205,0 -1.93767,-0.170832 -2.86193,-0.567626 -0.92494,-0.349831 -1.67158,-0.92154 -2.37668,-1.577646 -0.66292,-0.701025 -1.19038,-1.446289 -1.58786,-2.323589 v -0.04152 c -0.34848,-0.876621 -0.56899,-1.83968 -0.56899,-2.850381 V 43.937457 c 0,-0.701023 -0.26611,-1.360531 -0.75002,-1.839678 -0.53155,-0.52679 -1.14343,-0.788143 -1.89345,-0.788143 -0.70239,0 -1.36666,0.261353 -1.84921,0.788143 -0.53088,0.479147 -0.7929,1.138655 -0.7929,1.839678 v 13.011155 c 0,1.712405 0.3505,3.331568 0.96986,4.908532 h 0.0429 c 0.61663,1.534769 1.54156,2.846978 2.68702,4.031914 1.18699,1.138653 2.51008,2.058154 4.04894,2.717661 1.54497,0.656105 3.17366,0.963059 4.93575,0.963059 h 3.91962 c 1.76141,0 3.391456,-0.306954 4.977276,-0.963059 h -0.0449 c 1.54022,-0.659507 2.86196,-1.579008 4.05438,-2.717661 1.14205,-1.184936 2.06769,-2.497145 2.73059,-4.031914 v 0.04493 c 0.66019,-1.579004 0.97123,-3.198167 0.97123,-4.95345 V 43.937466 c -0.008,-0.700342 -0.27225,-1.360533 -0.75752,-1.838997 z"
   id="path121"
   style="fill:url(#SVGID_11_);stroke-width:0.680606" />
			
				<linearGradient
   id="SVGID_12_"
   gradientUnits="userSpaceOnUse"
   x1="367.93649"
   y1="-257.2793"
   x2="410.9108"
   y2="-214.30479"
   gradientTransform="matrix(0.68060641,0,0,-0.68060641,-138.12691,-105.02802)">
				<stop
   offset="0"
   style="stop-color:#999999"
   id="stop123" />
				<stop
   offset="0.98"
   style="stop-color:#F3F3F3"
   id="stop125" />
			</linearGradient>
			<path
   fill="url(#SVGID_12_)"
   d="m 112.92825,42.124326 c -0.4669,0.479148 -0.74798,1.044051 -0.74798,1.738269 v 22.630164 c 0,0.694219 0.28108,1.34692 0.79494,1.827428 0.56355,0.519983 1.26661,0.782017 2.01527,0.782017 0.79497,0 1.45038,-0.262034 1.96696,-0.782017 0.56423,-0.480508 0.84259,-1.133209 0.84259,-1.827428 V 46.299165 c 6.04446,-0.345748 10.67667,-0.04152 13.9082,0.871857 2.43589,0.738459 3.7474,1.956744 3.88558,3.654857 0.0477,1.348281 -0.51318,2.307256 -1.6852,2.875563 -1.87507,0.783376 -4.63764,1.000491 -8.28707,0.607101 -0.65608,-0.04493 -1.21964,0.04424 -1.78248,0.390668 -0.56218,0.30287 -0.93721,0.738457 -1.17132,1.306764 -0.23482,0.522025 -0.23482,1.084205 -0.0925,1.651831 0.1858,0.568307 0.56354,1.000492 1.07944,1.347602 l 14.05247,9.574091 c 0.60847,0.429461 1.3088,0.6071 2.0602,0.477105 0.79562,-0.08848 1.40477,-0.435589 1.87234,-1.048133 0.42267,-0.564906 0.60982,-1.217608 0.51795,-1.913187 -0.14218,-0.740501 -0.51795,-1.304041 -1.1264,-1.740991 l -7.44652,-5.048058 c 1.07945,-0.257949 2.01324,-0.567626 2.81158,-0.955571 3.18593,-1.483722 4.77923,-4.002646 4.8289,-7.529548 0.18513,-4.174841 -2.43861,-7.047 -7.77387,-8.616478 -4.17008,-1.304043 -10.40102,-1.610316 -18.69082,-0.955572 -0.70374,0.04697 -1.31288,0.349832 -1.83218,0.87526 z"
   id="path128"
   style="fill:url(#SVGID_12_);stroke-width:0.680606" />
			
				<linearGradient
   id="SVGID_13_"
   gradientUnits="userSpaceOnUse"
   x1="414.89841"
   y1="-256.93411"
   x2="456.6366"
   y2="-215.19591"
   gradientTransform="matrix(0.68060641,0,0,-0.68060641,-138.12691,-105.02802)">
				<stop
   offset="0"
   style="stop-color:#999999"
   id="stop130" />
				<stop
   offset="0.98"
   style="stop-color:#F3F3F3"
   id="stop132" />
			</linearGradient>
			<path
   fill="url(#SVGID_13_)"
   d="m 145.46395,42.576929 c -0.31036,0.43967 -0.48322,0.922902 -0.48322,1.489847 v 22.785343 c 0,0.702386 0.26202,1.360532 0.79085,1.839679 0.48394,0.526789 1.14412,0.788823 1.84991,0.788823 0.74935,0 1.36461,-0.261353 1.8914,-0.788823 0.48526,-0.479147 0.75071,-1.136612 0.75071,-1.839679 V 50.599236 l 17.48342,18.050363 c 0.39815,0.392711 0.83508,0.657468 1.368,0.786784 0.52681,0.08779 1.01071,0.04289 1.53954,-0.129315 0.48732,-0.222558 0.88002,-0.52679 1.19108,-1.007298 0.30898,-0.43899 0.44101,-0.92154 0.44101,-1.44833 V 44.066776 c 0,-0.743902 -0.26544,-1.357128 -0.75207,-1.883918 -0.52747,-0.479146 -1.14138,-0.746625 -1.89209,-0.746625 -0.70375,0 -1.36326,0.268158 -1.84988,0.746625 -0.52747,0.52679 -0.79222,1.140016 -0.79222,1.883918 V 60.323061 L 149.5612,42.227779 c -0.39815,-0.348471 -0.83713,-0.610505 -1.36801,-0.745264 -0.52611,-0.08508 -1.05699,-0.04289 -1.53954,0.176956 -0.48662,0.174235 -0.92426,0.48187 -1.1897,0.917458 z"
   id="path135"
   style="fill:url(#SVGID_13_);stroke-width:0.680606" />
			<g
   id="g139">
				<path
   fill="#484848"
   d="m 10.842047,69.571143 c -1.7763604,0 -3.5377904,-0.09052 -5.3870004,-0.275646 -2.45017,-0.295384 -4.29462,-0.666316 -5.81781998,-1.169282 -0.80720002,-0.269522 -1.46058002,-0.808561 -1.89345002,-1.55859 -0.41856,-0.892274 -0.48867,-1.750519 -0.22527,-2.532537 0.26612,-0.860967 0.83987,-1.523876 1.65183002,-1.904336 0.69014,-0.388627 1.60828,-0.48323 2.45153998,-0.203501 1.25096,0.372973 2.80139,0.675843 4.59001,0.893637 1.71648,0.197376 3.57318,0.25999 5.4993104,0.213029 1.66407,-0.03881 3.22131,-0.224601 4.62948,-0.552653 0.58804,-0.170831 1.34624,-0.417212 1.70831,-0.735053 0.0354,-0.02995 0.0707,-0.05514 0.10826,-0.07623 0.0891,-0.08508 0.16879,-0.146332 0.23618,-0.196694 0.11776,-0.08916 0.15035,-0.113658 0.2001,-0.464855 0.0429,-0.295384 0.0517,-0.463494 0.0422,-0.580557 -0.066,-0.081 -0.11236,-0.179001 -0.13136,-0.289258 l -0.0429,-0.244338 c -10e-4,-0.0069 -10e-4,-0.01294 -0.003,-0.01906 -0.0817,-0.331454 -1.11143,-1.441523 -1.63345,-1.607593 -0.57852,-0.177635 -2.64823,-0.401556 -4.97661,-0.449879 -0.46416,-0.02586 -0.93922,-0.03606 -1.49869,-0.04901 -0.4376104,-0.01015 -0.9242704,-0.02178 -1.4619404,-0.04084 -1.3966,0.0035 -2.3372,6.81e-4 -2.85173,-0.0456 -2.50464,-0.04219 -4.12652,-0.266796 -4.91058,-0.684009 -0.92630998,-0.418571 -1.78863998,-0.950808 -2.60128,-1.608953 -0.0585,-0.02518 -0.11236,-0.05649 -0.15593,-0.09324 -1.05698,-0.90793 -1.85057,-1.905699 -2.3617,-2.964721 -0.0334,-0.06874 -0.0537,-0.141566 -0.0606,-0.215754 -0.62891,-1.362575 -0.79905,-2.769387 -0.51933,-4.291904 0.22938,-1.504821 0.99778,-3.013045 2.3447,-4.59137 2.03366002,-2.622377 5.54694,-3.963852 10.42282,-3.963852 3.6453204,0 8.1679604,0.751388 13.4412904,2.230347 0.86981,0.287895 1.50005,0.793586 1.95811,1.553143 0.46212,0.858245 0.55196,1.691307 0.27768,2.502591 -0.20419,0.814686 -0.75615,1.501418 -1.58444,1.937685 -0.43082,0.278368 -0.96102,0.432866 -1.53138,0.432866 v 0 c -0.28721,0 -0.58056,-0.03676 -0.89704,-0.114344 -8.86625,-2.533215 -14.7113104,-2.603316 -17.1580804,-0.248419 -0.43082,0.428784 -0.71328,0.914736 -0.83579,1.437441 -0.0448,0.160615 -0.0293,0.274285 0.0415,0.377737 0.0408,0.06192 0.072,0.130673 0.0891,0.202821 0.13889,0.231406 0.36956,0.490037 0.68604,0.770448 0.27021,0.234807 0.62887,0.457367 1.06039,0.658826 0.46078,0.08575 1.93292,0.127266 2.5019,0.143612 0.49685,0.04493 1.42588,0.04493 2.71223,0.04493 0.62002,0.02109 1.1529504,0.03335 1.6280104,0.04354 0.58123,0.01229 1.0774,0.02382 1.49257,0.04765 2.38756,0.08031 4.48996,0.277005 6.0676,0.571028 0.0382,0.0013 0.0784,0.006 0.10488,0.01168 3.05932,0.652701 4.85614,1.754603 5.6538,3.468369 l 0.13955,0.302189 c 0.60437,1.302681 0.72894,1.573562 0.86574,2.071086 0.29809,0.770447 0.32396,1.583091 0.34439,2.235113 0.007,0.154488 0.008,0.298786 0.017,0.430823 0.001,0.01425 0.001,0.11639 0.001,0.130002 0,0.969185 -0.17899,1.896169 -0.54448,2.829282 -0.01,0.05241 -0.0218,0.102767 -0.0395,0.142924 -0.32057,0.723485 -0.85282,1.544977 -1.62734,2.509396 -0.0422,0.05308 -0.0919,0.09732 -0.14627,0.133393 -0.95216,1.1897 -2.6176,2.087421 -4.95141,2.67002 -1.7369,0.421294 -3.76511,0.677884 -6.03289,0.765001 -0.37025,0.0082 -0.72825,0.01168 -1.08761,0.01168 z M 0.61595662,63.032556 c -0.30628,0 -0.59692,0.07623 -0.86575,0.226641 -0.53495,0.252505 -0.85552002,0.62684 -1.02498002,1.167241 -0.20147,0.602337 -0.0326,1.17745 0.14364,1.555866 0.25386002,0.434908 0.65610002,0.767044 1.16995002,0.939236 1.43744998,0.475064 3.20430998,0.828298 5.55646998,1.112112 2.15549,0.216431 4.21501,0.298106 6.2962904,0.257268 2.17182,-0.08371 4.117,-0.328051 5.76678,-0.728247 2.13643,-0.534276 3.60109,-1.3231 4.35112,-2.343328 0.047,-0.06467 0.10477,-0.118424 0.17084,-0.159943 0.61458,-0.778615 1.04404,-1.437441 1.30677,-2.007109 0.008,-0.04084 0.0183,-0.07894 0.0313,-0.1089 0.32533,-0.8072 0.48392,-1.602146 0.48392,-2.433168 -0.008,-0.190571 -0.0147,-0.351193 -0.019,-0.520665 -0.0183,-0.586683 -0.0402,-1.250953 -0.28108,-1.880514 -0.12465,-0.443075 -0.22528,-0.664954 -0.81266,-1.932242 l -0.13889,-0.300831 c -0.60981,-1.312208 -2.10986,-2.187468 -4.71524,-2.750329 -0.0307,-0.002 -0.0619,-0.0047 -0.0811,-0.0082 -1.06106,-0.199417 -2.9511,-0.458727 -5.93624,-0.558777 -0.41721,-0.02451 -0.89841,-0.03471 -1.46263,-0.04629 -0.47983,-0.01015 -1.0202304,-0.02246 -1.6232404,-0.04354 -1.34079,6.78e-4 -2.25077,6.78e-4 -2.7653,-0.04765 -1.63619,-0.04493 -2.4012,-0.09666 -2.77824,-0.186486 -0.0395,-0.0095 -0.0776,-0.02315 -0.11433,-0.04017 -0.56762,-0.259991 -1.04814,-0.558097 -1.42995,-0.88683 -0.49208,-0.434908 -0.82762,-0.839188 -1.03180998,-1.242788 -0.0196,-0.03812 -0.0353,-0.07758 -0.0455,-0.11911 -0.21031,-0.385223 -0.25658,-0.828298 -0.13005,-1.264568 0.16471,-0.715997 0.57374998,-1.427231 1.17403998,-2.025484 2.85583,-2.748969 8.9792404,-2.759178 18.3722904,-0.07146 0.53291,0.129314 1.03792,0.08507 1.46466,-0.187845 0.56083,-0.298107 0.87459,-0.68197 1.00595,-1.199911 0.17287,-0.51794 0.11497,-0.998449 -0.16331,-1.515709 -0.28449,-0.470984 -0.67719,-0.786105 -1.22646,-0.967824 -5.13312,-1.440165 -9.54005,-2.174539 -13.0696704,-2.174539 -4.46342,0 -7.63912998,1.175408 -9.43798,3.495595 -1.20806,1.415661 -1.88118,2.716981 -2.07788,3.999244 -0.24706,1.345557 -0.0782,2.561121 0.50977,3.73857 0.0347,0.06738 0.0552,0.138848 0.0641,0.211669 0.41925,0.793586 1.03791,1.552463 1.84172002,2.260974 0.0511,0.02246 0.0987,0.04901 0.13676,0.081 0.76432,0.634326 1.54499,1.12096 2.45425998,1.532728 0.37163,0.197377 1.3864,0.503648 4.41783,0.557416 0.50228,0.04289 1.41839,0.04289 2.80613,0.04289 0.55538,0.01974 1.03658,0.02994 1.4687504,0.04017 0.57987,0.01294 1.07331,0.0245 1.48032,0.05037 0.74323,0.01425 4.97933,0.392709 5.34481,0.505009 0.83986,0.267479 2.26642,1.633456 2.48966,2.527772 l 0.0367,0.08643 c 0.15379,0.35936 0.245,0.658827 0.12185,1.519793 -0.11434,0.801075 -0.38115,1.060386 -0.68878,1.295195 -0.0789,0.0592 -0.13545,0.102767 -0.19805,0.181722 -0.0768,0.09528 -0.17968,0.165387 -0.29062,0.20282 -0.43286,0.307635 -1.04404,0.56082 -2.01187,0.83987 -1.52456,0.355957 -3.1689,0.553332 -4.91873,0.594168 -0.42811,0.01168 -0.85758,0.01702 -1.28772,0.01702 -1.5599504,0 -2.9960304,-0.07827 -4.3926304,-0.238893 -1.86283,-0.227322 -3.48403,-0.544485 -4.82142,-0.942639 -0.21984,-0.07079 -0.42401998,-0.104808 -0.62546998,-0.104808 z"
   id="path137"
   style="stroke-width:0.680606" />
			</g>
			<g
   id="g143">
				<path
   fill="#484848"
   d="m 53.227507,70.992248 c -0.67381,0 -1.30199,-0.220517 -1.87031,-0.656104 -0.69285,-0.487316 -1.12164,-1.17813 -1.29587,-2.095588 -0.3512,-2.351495 -0.72758,-4.511059 -1.12572,-6.446704 h -16.0705 c -0.34914,1.718531 -0.67584,3.582033 -0.97598,5.548304 -0.16199,0.875941 -0.59757,1.581728 -1.29792,2.118728 -0.62343,0.444436 -1.23802,0.654744 -1.89343,0.654744 v 0 c -0.1865,0 -0.38115,-0.01769 -0.58261,-0.05241 -0.85008,-0.09937 -1.57696,-0.539719 -2.12622,-1.304723 -0.54583,-0.709191 -0.75478,-1.549739 -0.59144,-2.416153 2.80954,-18.221195 7.92157,-26.875788 15.59201,-26.410251 0.10477,-0.0108 0.28721,-0.01572 0.46553,-0.01572 7.36757,0 12.30742,8.937043 15.09927,27.323625 0.10825,0.90861 -0.096,1.676334 -0.6391,2.436571 -0.57511,0.7405 -1.29383,1.160435 -2.15344,1.267971 -0.1579,0.02994 -0.34847,0.04766 -0.53427,0.04766 z m -20.881,-10.467727 h 17.10499 c 0.29946,0 0.55811,0.210308 0.62139,0.502969 0.44105,2.087419 0.85826,4.443678 1.24007,7.002077 0.10826,0.569668 0.35528,0.973269 0.79631,1.284985 0.46417,0.354597 0.93855,0.471662 1.45514,0.376376 0.55809,-0.07146 0.98142,-0.322608 1.33127,-0.772488 0.34302,-0.481188 0.46758,-0.937876 0.39883,-1.508223 -2.70406,-17.803985 -7.49757,-26.634853 -14.30635,-26.210153 -0.23822,-0.0095 -0.39952,-0.01425 -0.5581,-0.01425 -6.5481,0 -11.18509,8.536166 -13.78227,25.371646 -0.0994,0.528832 0.0225,1.007299 0.35799,1.444248 0.34983,0.486632 0.76841,0.744583 1.29112,0.807199 0.16199,0.02723 0.28312,0.03881 0.3995,0.03881 v 0 c 0.39272,0 0.74391,-0.125907 1.13867,-0.407003 0.43286,-0.330775 0.70102,-0.76364 0.80107,-1.308125 0.32873,-2.162967 0.69557,-4.222483 1.08897,-6.101638 0.0619,-0.295382 0.32056,-0.506369 0.6214,-0.506369 z m 15.79279,-3.991075 h -14.48195 c -0.20078,0 -0.38863,-0.0946 -0.50841,-0.254547 -0.1204,-0.161303 -0.15725,-0.36889 -0.0994,-0.560821 2.02889,-6.820357 4.59818,-10.264226 7.85148,-10.52694 0.0354,-6.81e-4 0.0673,-0.004 0.10203,0 3.19069,0.254548 5.72457,3.698415 7.74531,10.527621 0.0565,0.19193 0.019,0.399516 -0.10007,0.56014 -0.12055,0.160629 -0.30966,0.254547 -0.50908,0.254547 z m -13.62303,-1.269331 h 12.76546 c -1.7689,-5.610241 -3.89714,-8.570879 -6.32896,-8.802965 -2.49443,0.238212 -4.65671,3.19885 -6.4365,8.802965 z"
   id="path141"
   style="stroke-width:0.680606" />
			</g>
			<g
   id="g147">
				<path
   fill="#484848"
   d="m 65.174197,70.557342 c -0.9025,0 -1.72603,-0.353237 -2.3168,-0.993007 -0.60573,-0.55197 -0.96033,-1.372782 -0.96033,-2.273905 V 47.772679 h -8.17204 c -0.90589,0 -1.73077,-0.353915 -2.32018,-0.995048 -0.60506,-0.553333 -0.95899,-1.373463 -0.95899,-2.270503 0,-0.899761 0.32942,-1.68518 0.97804,-2.333799 0.60846,-0.599614 1.42451,-0.929027 2.30181,-0.929027 h 22.90104 c 0.87866,0 1.65864,0.305593 2.32156,0.909291 0.64725,0.698982 0.955567,1.478277 0.953527,2.354217 0,0.87594 -0.332137,1.689265 -0.934467,2.28956 -0.64523,0.645895 -1.43269,0.973947 -2.34062,0.973947 h -8.17203 V 67.29043 c 0,0.878662 -0.3335,1.692669 -0.9406,2.293644 -0.64522,0.645214 -1.43335,0.973268 -2.33992,0.973268 z M 53.725027,42.512951 c -0.54177,0 -1.03996,0.199418 -1.40545,0.560821 -0.41109,0.411086 -0.60302,0.867092 -0.60302,1.432675 0,0.545848 0.20213,1.020231 0.586,1.373466 0.38794,0.420613 0.8671,0.623435 1.42247,0.623435 h 8.80637 c 0.35187,0 0.63569,0.284492 0.63569,0.635005 V 67.29043 c 0,0.548569 0.20282,1.02363 0.5853,1.375505 0.39069,0.420615 0.86915,0.623436 1.42181,0.623436 0.57307,0 1.03382,-0.191931 1.44424,-0.603698 0.3648,-0.363443 0.56557,-0.857564 0.56557,-1.394563 v -20.1548 c 0,-0.35051 0.28518,-0.635004 0.63502,-0.635004 h 8.80705 c 0.57374,0 1.03383,-0.19193 1.44287,-0.602338 0.36412,-0.362081 0.56355,-0.856202 0.56355,-1.392521 0,-0.562179 -0.18443,-1.023631 -0.57987,-1.453774 -0.3934,-0.355277 -0.86029,-0.539722 -1.42724,-0.539722 z"
   id="path145"
   style="stroke-width:0.680606" />
			</g>
			<g
   id="g151">
				<path
   fill="#484848"
   d="m 97.447864,70.204105 h -3.91962 c -1.88323,0 -3.5793,-0.331454 -5.18349,-1.012741 -1.55111,-0.664953 -2.93751,-1.594662 -4.24018,-2.844255 -1.253,-1.295195 -2.15276,-2.625099 -2.7626,-4.074792 -0.0517,-0.05378 -0.0932,-0.114344 -0.12038,-0.183082 -0.68061,-1.736906 -1.01275,-3.418006 -1.01275,-5.14062 V 43.937461 c 0,-0.907248 0.35597,-1.72806 1.00253,-2.310657 0.54653,-0.598935 1.36939,-0.95217 2.27459,-0.95217 0.91542,0 1.6811,0.317843 2.33992,0.973268 0.60506,0.597573 0.93788,1.410895 0.93788,2.289559 v 13.011154 c 0,0.861648 0.17628,1.741672 0.52475,2.61557 0.0147,0.03606 0.0246,0.07282 0.0326,0.110264 0.34711,0.737778 0.80243,1.393203 1.42723,2.052711 0.76909,0.714637 1.41701,1.148181 2.13914,1.419743 0.84803,0.363446 1.67906,0.527471 2.63803,0.527471 h 3.92029 c 0.96784,0 1.84514,-0.172873 2.602636,-0.513177 0.74935,-0.283813 1.41907,-0.730971 2.20244,-1.461943 0.70375,-0.745944 1.15364,-1.410897 1.43064,-2.128255 0.35391,-0.790185 0.52611,-1.662042 0.52611,-2.622376 V 43.937467 c 0,-0.903165 0.35596,-1.723295 1.00186,-2.309296 0.54991,-0.600975 1.37277,-0.95353 2.27594,-0.95353 0.90793,0 1.69539,0.328051 2.34196,0.975309 0.59893,0.588724 0.93515,1.400008 0.94401,2.282074 v 13.017277 c 0,1.855333 -0.3335,3.556169 -1.01955,5.197793 -0.0218,0.05172 -0.0483,0.09937 -0.0817,0.142254 -0.65543,1.45922 -1.5654,2.782998 -2.77688,4.040759 -1.2775,1.220327 -2.61012,2.126895 -4.08704,2.784361 -0.0408,0.032 -0.0865,0.05855 -0.13678,0.07894 -1.64638,0.679927 -3.354016,1.0107 -5.221596,1.0107 z m -15.11083,-8.753958 c 0.047,0.05037 0.0844,0.108213 0.10957,0.170832 0.54722,1.364614 1.38232,2.616249 2.55297,3.82773 1.17404,1.12436 2.43656,1.971717 3.84337,2.574734 1.44222,0.613227 2.97562,0.912011 4.6853,0.912011 h 3.91962 c 1.6355,0 3.132146,-0.277006 4.569576,-0.847354 0.0341,-0.02518 0.0714,-0.04629 0.11368,-0.06467 1.40339,-0.600977 2.66796,-1.449013 3.86582,-2.593112 1.13459,-1.178809 1.9867,-2.435207 2.58564,-3.824327 0.0183,-0.04219 0.0408,-0.08166 0.0667,-0.118424 0.57308,-1.431996 0.8528,-2.919122 0.8528,-4.538964 V 43.937455 c -0.007,-0.536315 -0.20826,-1.031798 -0.56832,-1.386394 -0.41516,-0.414489 -0.87389,-0.6071 -1.44899,-0.6071 -0.55334,0 -1.03045,0.20282 -1.38232,0.584641 -0.41722,0.381821 -0.62548,0.868452 -0.62548,1.408853 v 13.011156 c 0,1.140015 -0.2103,2.186788 -0.6248,3.110371 -0.32532,0.847354 -0.85552,1.641622 -1.70628,2.540703 -0.6418,0.599614 -1.4912,1.310848 -2.61216,1.735547 -0.889546,0.399514 -1.940396,0.609143 -3.088596,0.609143 h -3.9203 c -1.12163,0 -2.1405,-0.202142 -3.1124,-0.619352 -1.09305,-0.411767 -1.94313,-1.123682 -2.55772,-1.696072 -0.77112,-0.811963 -1.32787,-1.629371 -1.73488,-2.526411 -0.0231,-0.05241 -0.0402,-0.107536 -0.0483,-0.164026 -0.38318,-0.993685 -0.57715,-1.998942 -0.57715,-2.989903 V 43.937455 c 0,-0.536315 -0.2001,-1.029756 -0.56218,-1.388435 -0.41585,-0.413129 -0.87594,-0.605059 -1.44629,-0.605059 -0.54585,0 -1.03657,0.207585 -1.38163,0.582598 -0.52407,0.476425 -0.62411,1.025675 -0.62411,1.410217 V 56.94793 c -6.9e-4,1.504138 0.28041,2.978333 0.85687,4.502211 z"
   id="path149"
   style="stroke-width:0.680606" />
			</g>
			<g
   id="g155">
				<path
   fill="#484848"
   d="m 114.99117,69.735849 c -0.92631,0 -1.77229,-0.328053 -2.4461,-0.950126 -0.64591,-0.604379 -0.99845,-1.418387 -0.99845,-2.294325 V 43.861234 c 0,-0.815368 0.3124,-1.549059 0.92768,-2.181344 0.6418,-0.651339 1.39727,-1.007979 2.24394,-1.066509 8.36194,-0.658829 14.712,-0.331457 18.92291,0.982795 5.64971,1.662039 8.41705,4.775133 8.21899,9.250802 -0.053,3.77192 -1.80087,6.495707 -5.19507,8.076756 -0.47029,0.229365 -0.9964,0.43695 -1.58649,0.626159 l 6.30991,4.27693 c 0.76024,0.545847 1.22441,1.264568 1.39388,2.146632 0.11651,0.88547 -0.10356,1.706282 -0.63364,2.413431 -0.57851,0.756154 -1.35372,1.191743 -2.30998,1.299277 -0.16068,0.02792 -0.35733,0.04493 -0.54926,0.04493 -0.69557,0 -1.35168,-0.213031 -1.94856,-0.635688 l -14.04296,-9.565924 c -0.66972,-0.451242 -1.10394,-0.999809 -1.32583,-1.674971 -0.20146,-0.801075 -0.15725,-1.495973 0.11711,-2.1092 0.2879,-0.697621 0.77793,-1.243467 1.449,-1.605551 0.60437,-0.37161 1.29861,-0.519982 2.1269,-0.466214 3.55482,0.38318 6.21597,0.185805 8.00054,-0.558779 0.91201,-0.443075 1.33329,-1.1686 1.29382,-2.2671 -0.11363,-1.389799 -1.23802,-2.40254 -3.4357,-3.068854 -3.05592,-0.86505 -7.47239,-1.165879 -13.08807,-0.877302 v 19.590575 c 0,0.905207 -0.37909,1.72602 -1.06582,2.31134 -0.6003,0.605739 -1.41294,0.932431 -2.37872,0.932431 z m 7.47782,-28.185954 c -2.30045,0 -4.87722,0.110937 -7.6575,0.330774 -0.5438,0.03675 -1.00866,0.262715 -1.43064,0.690136 -0.38387,0.39475 -0.56627,0.805837 -0.56627,1.29179 v 22.630164 c 0,0.520663 0.21236,1.005254 0.59487,1.363934 0.43217,0.398156 0.9787,0.610505 1.58103,0.610505 0.62277,0 1.11893,-0.194654 1.5164,-0.59417 0.44443,-0.38182 0.65882,-0.846674 0.65882,-1.380269 V 46.299165 c 0,-0.336898 0.26272,-0.614587 0.59894,-0.633644 6.03221,-0.345066 10.79578,-0.04289 14.11578,0.893637 2.72787,0.827618 4.18573,2.243959 4.34568,4.214314 0.0585,1.623928 -0.64726,2.823837 -2.03912,3.497637 -2.04112,0.854842 -4.92417,1.068553 -8.6328,0.666994 -0.0634,-0.0035 -0.1484,-0.0069 -0.2321,-0.0069 -0.44919,0 -0.80447,0.0946 -1.15022,0.306953 -0.44919,0.243658 -0.73097,0.558097 -0.91609,1.00866 -0.16675,0.369566 -0.18444,0.774529 -0.0641,1.255717 0.11843,0.358 0.38318,0.681967 0.81741,0.97599 l 14.05521,9.575451 c 0.49615,0.350513 1.03112,0.475746 1.59602,0.376376 0.65338,-0.0735 1.11007,-0.329414 1.47555,-0.807879 0.32737,-0.438311 0.46076,-0.925626 0.3927,-1.445609 -0.10269,-0.531554 -0.38045,-0.958294 -0.86709,-1.308125 l -7.43289,-5.038529 c -0.20759,-0.141565 -0.31308,-0.39203 -0.26749,-0.638408 0.0435,-0.248421 0.23141,-0.445798 0.47575,-0.504331 1.07671,-0.257269 1.95402,-0.554694 2.68091,-0.908608 2.96608,-1.381633 4.4253,-3.658941 4.47159,-6.967369 0.17287,-3.889666 -2.22152,-6.49979 -7.31721,-7.998487 -2.68295,-0.839187 -6.31604,-1.263205 -10.80328,-1.263205 z"
   id="path153"
   style="stroke-width:0.680606" />
			</g>
			<g
   id="g159">
				<path
   fill="#484848"
   d="m 169.63094,70.115628 c -0.20353,0 -0.40907,-0.01769 -0.62004,-0.05241 -0.66835,-0.16063 -1.21352,-0.47166 -1.70969,-0.961016 L 150.8979,52.16735 v 14.684766 c 0,0.879344 -0.33347,1.692669 -0.93923,2.291601 -0.64452,0.643855 -1.43198,0.971225 -2.33787,0.971225 -0.90589,0 -1.72806,-0.353235 -2.31678,-0.993683 -0.60438,-0.541764 -0.9583,-1.362576 -0.9583,-2.269143 v -22.78534 c 0,-0.677884 0.19533,-1.284984 0.59961,-1.856014 0.29811,-0.49412 0.83783,-0.915414 1.49462,-1.149544 0.49684,-0.231405 1.18154,-0.314439 1.85396,-0.206902 0.64591,0.161989 1.17745,0.451241 1.68519,0.895676 l 16.38696,16.999506 V 44.066776 c 0,-0.899082 0.32806,-1.6845 0.97802,-2.332436 0.61187,-0.603019 1.42725,-0.932432 2.29841,-0.932432 0.87186,0 1.65185,0.306272 2.31815,0.910652 0.65134,0.700343 0.9617,1.478957 0.9617,2.354216 v 22.785343 c 0,0.677883 -0.18785,1.288388 -0.5574,1.813816 -0.34508,0.534958 -0.80926,0.929027 -1.44632,1.220329 -0.49002,0.163349 -0.88885,0.229364 -1.28768,0.229364 z M 150.2636,49.964912 c 0.16878,0 0.33349,0.06738 0.45667,0.193291 l 17.48342,18.050364 c 0.32126,0.317844 0.66292,0.514539 1.06107,0.611185 0.28177,0.04354 0.7473,0.02994 1.19379,-0.115704 0.34506,-0.16199 0.62956,-0.400878 0.85484,-0.747987 0.23548,-0.336899 0.33961,-0.680606 0.33961,-1.103943 V 44.066776 c 0,-0.560139 -0.18648,-1.021589 -0.58326,-1.452412 -0.39884,-0.358 -0.86506,-0.543124 -1.42725,-0.543124 -0.53562,0 -1.03452,0.200098 -1.40408,0.564903 -0.41108,0.409723 -0.60371,0.86505 -0.60371,1.431314 v 16.256284 c 0,0.259313 -0.15593,0.492079 -0.39612,0.588725 -0.24091,0.09597 -0.51589,0.03812 -0.69488,-0.14769 L 149.10453,42.669493 c -0.31922,-0.277008 -0.67108,-0.46962 -1.06652,-0.571711 -0.0755,-0.0095 -0.20895,-0.0211 -0.34029,-0.0211 -0.28382,0 -0.54586,0.05445 -0.77862,0.161303 -0.43559,0.157895 -0.7412,0.387946 -0.91202,0.669716 -0.27427,0.390667 -0.39067,0.747986 -0.39067,1.159753 v 22.785343 c 0,0.55129 0.20078,1.023632 0.58124,1.368019 0.3934,0.423337 0.8705,0.624797 1.42452,0.624797 0.57237,0 1.03043,-0.191932 1.44355,-0.603699 0.36412,-0.36004 0.56423,-0.852119 0.56423,-1.389798 v -16.25288 c 0,-0.258629 0.15594,-0.492078 0.39543,-0.588044 0.077,-0.032 0.15856,-0.04629 0.23822,-0.04629 z"
   id="path157"
   style="stroke-width:0.680606" />
			</g>
		</g>
	</g>
</g>
</svg>
