<?xml version="1.0" encoding="UTF-8" standalone="no"?>
<svg
   xmlns:dc="http://purl.org/dc/elements/1.1/"
   xmlns:cc="http://creativecommons.org/ns#"
   xmlns:rdf="http://www.w3.org/1999/02/22-rdf-syntax-ns#"
   xmlns:svg="http://www.w3.org/2000/svg"
   xmlns="http://www.w3.org/2000/svg"
   xmlns:sodipodi="http://sodipodi.sourceforge.net/DTD/sodipodi-0.dtd"
   xmlns:inkscape="http://www.inkscape.org/namespaces/inkscape"
   version="1.0"
   width="598"
   height="174.16856"
   viewBox="0 0 5980 1741.6856"
   preserveAspectRatio="xMidYMid meet"
   id="svg27"
   sodipodi:docname="semicom.svg"
   inkscape:version="0.92.5 (2060ec1f9f, 2020-04-08)">
  <metadata
     id="metadata33">
    <rdf:RDF>
      <cc:Work
         rdf:about="">
        <dc:format>image/svg+xml</dc:format>
        <dc:type
           rdf:resource="http://purl.org/dc/dcmitype/StillImage" />
        <dc:title></dc:title>
      </cc:Work>
    </rdf:RDF>
  </metadata>
  <defs
     id="defs31" />
  <sodipodi:namedview
     pagecolor="#ffffff"
     bordercolor="#666666"
     borderopacity="1"
     objecttolerance="10"
     gridtolerance="10"
     guidetolerance="10"
     inkscape:pageopacity="0"
     inkscape:pageshadow="2"
     inkscape:window-width="1845"
     inkscape:window-height="480"
     id="namedview29"
     showgrid="false"
     inkscape:zoom="1.5"
     inkscape:cx="125.62405"
     inkscape:cy="24.848126"
     inkscape:window-x="72"
     inkscape:window-y="27"
     inkscape:window-maximized="0"
     inkscape:current-layer="svg27"
     fit-margin-top="0"
     fit-margin-left="0"
     fit-margin-right="0"
     fit-margin-bottom="0" />
  <g
     id="layer101"
     style="fill:#000000;fill-rule:evenodd;stroke:#000000;stroke-width:10"
     transform="translate(-15,-631.87943)">
    <path
       d="m 200,1720 v 10 c 0,5 12,39 28,74 16,35 47,90 69,122 22,32 65,82 95,110 30,29 81,69 113,89 32,21 83,48 114,60 31,13 95,31 141,40 60,12 108,16 169,11 47,-3 113,-13 146,-21 33,-9 96,-33 140,-55 44,-22 107,-62 141,-89 33,-28 82,-79 109,-113 26,-35 64,-99 85,-143 20,-44 42,-105 49,-135 6,-31 14,-66 16,-78 5,-22 3,-22 -84,-22 h -88 l -13,55 c -6,30 -28,87 -48,127 -24,47 -58,94 -102,137 -36,36 -92,80 -125,97 -33,18 -88,39 -122,48 -34,8 -97,16 -140,16 -44,0 -106,-7 -138,-16 -32,-8 -89,-31 -127,-51 -45,-24 -90,-59 -132,-104 -37,-39 -78,-96 -97,-134 -18,-36 -38,-89 -44,-118 l -12,-52 -87,-3 -86,-2 v 0 h -20 c -11,0 -38,0 -60,0 -22,0 -46,-7 -55,-16 -8,-9 -15,-30 -15,-48 0,-17 6,-74 15,-126 8,-51 26,-128 40,-169 14,-41 41,-103 60,-136 18,-33 45,-76 59,-95 14,-20 54,-64 88,-99 34,-35 89,-82 121,-103 32,-22 90,-55 130,-74 39,-19 108,-44 152,-55 58,-16 111,-22 200,-22 92,-1 140,4 210,21 49,12 126,40 170,61 44,21 109,61 145,88 36,27 88,75 116,105 28,31 67,81 88,113 21,31 53,92 72,134 18,43 33,88 34,100 0,19 -6,21 -65,21 h -65 v 0 l -4,-8 c -2,-4 -19,-41 -38,-82 -20,-42 -57,-104 -83,-139 -27,-34 -76,-85 -109,-112 -34,-27 -91,-65 -126,-84 -36,-18 -97,-43 -135,-55 -39,-12 -111,-24 -161,-27 -65,-5 -113,-2 -174,11 -46,9 -110,27 -141,40 -31,12 -82,39 -114,60 -32,20 -83,60 -113,89 -30,28 -72,76 -92,107 -21,30 -50,79 -65,108 -15,29 -36,87 -46,129 -11,42 -20,84 -20,94 0,18 8,19 87,16 l 87,-2 12,-53 c 6,-29 26,-82 44,-118 19,-38 60,-95 97,-134 42,-45 87,-80 132,-104 38,-20 95,-43 127,-51 32,-9 94,-15 138,-15 43,0 106,7 140,15 34,9 88,30 121,48 33,17 90,61 126,97 36,35 77,88 92,116 15,28 28,54 28,57 v 7 0 l 1,2 c 0,1 10,33 21,70 l 21,67 156,3 156,3 3,52 c 1,29 -5,94 -13,145 -9,50 -27,122 -40,160 -13,38 -43,103 -67,146 -29,51 -75,108 -138,173 -66,66 -121,110 -175,142 -44,26 -123,61 -175,78 -83,28 -113,32 -230,36 -113,4 -150,1 -224,-16 -48,-12 -120,-36 -160,-55 -40,-18 -96,-49 -123,-68 -28,-18 -68,-49 -90,-69 -21,-19 -60,-60 -87,-89 -26,-30 -66,-85 -88,-122 -21,-38 -50,-98 -64,-134 -13,-36 -24,-72 -24,-80 0,-11 13,-14 60,-14 33,0 64,0 70,0 h 10 m 594,210 c -62,-18 -137,-62 -190,-112 -135,-128 -172,-328 -91,-493 82,-166 232,-254 413,-243 187,12 331,134 387,329 21,72 21,125 0,197 -47,164 -155,276 -306,316 -66,18 -161,20 -213,6 M 550,1528 c 0,-12 11,-41 25,-65 35,-60 90,-87 162,-81 61,5 96,26 132,81 l 24,36 22,-36 c 55,-92 186,-112 263,-40 26,24 61,88 62,111 0,12 -13,16 -54,16 -45,0 -55,-4 -59,-19 -3,-11 -17,-27 -31,-36 -33,-22 -76,-10 -95,28 -12,26 -14,27 -111,27 -88,0 -99,-2 -103,-19 -3,-11 -17,-27 -31,-36 -34,-22 -77,-9 -94,28 -11,24 -18,27 -62,27 -45,0 -50,-3 -50,-22"
       id="path2"
       inkscape:connector-curvature="0" />
    <path
       d="m 2026,1747 c -94,-29 -177,-96 -163,-132 11,-29 89,-19 162,20 56,29 76,35 132,35 46,0 79,-7 108,-21 52,-25 89,-63 81,-85 -6,-14 -34,-15 -245,-14 -132,1 -244,-1 -250,-5 -19,-11 -13,-78 11,-120 27,-48 106,-110 167,-130 58,-20 214,-20 269,-1 50,18 131,71 139,92 15,40 -59,43 -152,9 -91,-35 -165,-34 -236,2 -38,19 -55,34 -58,50 l -3,23 h 230 c 207,0 231,1 252,18 22,18 22,18 5,70 -26,79 -94,146 -178,177 -78,28 -198,33 -271,12"
       id="path4"
       inkscape:connector-curvature="0" />
    <path
       d="m 4154,1733 c -52,-19 -138,-91 -160,-134 -21,-42 -19,-132 6,-180 26,-52 108,-115 173,-135 58,-17 184,-20 235,-5 85,25 196,120 190,164 -3,18 -11,22 -53,25 -45,2 -51,0 -90,-37 -90,-90 -238,-94 -324,-10 -28,27 -31,37 -31,86 0,51 2,58 38,92 90,86 226,80 330,-14 35,-32 46,-36 83,-34 37,3 44,7 47,27 5,36 -89,123 -161,150 -73,27 -215,30 -283,5"
       id="path6"
       inkscape:connector-curvature="0" />
    <path
       d="m 4878,1734 c -92,-27 -162,-85 -194,-161 -21,-52 -18,-92 11,-152 82,-163 335,-214 503,-100 75,50 104,95 110,168 5,71 -18,121 -82,177 -77,67 -241,100 -348,68 m 14,-103 c -91,-46 -125,-126 -81,-191 56,-82 200,-108 300,-53 28,14 56,39 64,54 20,37 18,104 -3,135 -43,67 -196,97 -280,55"
       id="path8"
       inkscape:connector-curvature="0" />
    <path
       d="m 2564,1717 c -3,-7 -4,-105 -2,-218 l 3,-204 h 223 c 203,0 225,1 235,17 8,13 8,22 0,35 -9,15 -32,18 -170,23 l -158,5 v 45 45 l 156,2 c 169,3 191,10 169,52 -11,19 -20,21 -159,21 -101,0 -151,3 -159,12 -7,6 -12,28 -12,49 0,54 16,60 179,58 76,-1 143,1 149,5 14,8 15,37 2,53 -15,18 -448,18 -456,0"
       id="path10"
       inkscape:connector-curvature="0" />
    <path
       d="m 3095,1723 c -3,-4 -5,-97 -5,-208 0,-143 3,-205 12,-214 6,-6 38,-11 73,-11 75,0 75,0 138,140 58,126 74,152 88,143 10,-5 39,-65 105,-212 26,-57 47,-71 106,-71 30,0 59,5 65,12 9,8 13,68 13,204 0,161 -3,195 -16,208 -19,19 -90,21 -101,3 -5,-7 -8,-50 -8,-97 0,-116 -15,-116 -71,3 -25,52 -52,97 -60,100 -32,13 -85,6 -103,-12 -10,-10 -35,-55 -56,-100 -53,-112 -59,-111 -56,14 3,88 -10,105 -74,105 -25,0 -48,-3 -50,-7"
       id="path12"
       inkscape:connector-curvature="0" />
    <path
       d="m 3783,1719 c -8,-15 -7,-405 1,-419 4,-6 24,-10 45,-10 74,0 71,-11 71,214 0,120 -5,206 -10,214 -13,14 -98,15 -107,1"
       id="path14"
       inkscape:connector-curvature="0" />
    <path
       d="m 5390,1718 c -16,-19 -14,-401 2,-417 6,-6 39,-11 74,-11 71,0 87,12 120,97 31,77 88,185 99,186 10,0 42,-58 94,-173 47,-107 52,-110 127,-110 52,0 65,3 73,19 6,11 11,95 11,201 0,105 -5,189 -11,200 -8,15 -21,20 -59,20 -64,0 -75,-15 -67,-89 6,-60 0,-101 -15,-101 -4,0 -29,40 -53,89 -49,96 -60,105 -127,99 -32,-3 -36,-9 -78,-95 -25,-51 -49,-96 -54,-100 -17,-17 -27,24 -21,92 5,58 3,74 -9,88 -19,19 -91,23 -106,5"
       id="path16"
       inkscape:connector-curvature="0" />
  </g>
  <g
     id="layer102"
     style="fill:#3939fd;fill-rule:evenodd;stroke:#3939fd;stroke-width:10"
     transform="translate(-15,-631.87943)">
    <path
       d="m 200,1720 v -5 c 0,-2 -4,-15 -9,-27 -5,-13 -12,-43 -15,-66 l -6,-42 v 0 l 86,2 87,3 12,52 c 6,29 26,82 44,118 19,38 60,95 97,134 42,45 87,80 132,104 38,20 95,43 127,51 32,9 94,16 138,16 43,0 106,-8 140,-16 34,-9 89,-30 122,-48 33,-17 89,-61 125,-97 44,-43 78,-90 102,-137 20,-40 42,-97 48,-127 l 13,-55 h 88 c 87,0 89,0 84,22 -2,12 -10,47 -16,78 -7,30 -29,91 -49,135 -21,44 -59,108 -85,143 -27,34 -76,85 -109,113 -34,27 -97,67 -141,89 -44,22 -107,46 -140,55 -33,8 -99,18 -146,21 -61,5 -109,1 -169,-11 -46,-9 -110,-27 -141,-40 -31,-12 -82,-39 -114,-60 -32,-20 -83,-60 -113,-89 -30,-28 -73,-78 -95,-110 -22,-32 -53,-87 -69,-122 -16,-35 -28,-69 -28,-74 v -10"
       id="path19"
       inkscape:connector-curvature="0" />
    <path
       d="m 1590,1280 -43,5 c -23,3 -46,5 -50,5 -4,0 -28,0 -52,0 h -45 v 0 -7 c 0,-3 -13,-29 -28,-57 -15,-28 -56,-81 -92,-116 -36,-36 -93,-80 -126,-97 -33,-18 -87,-39 -121,-48 -34,-8 -97,-15 -140,-15 -44,0 -106,6 -138,15 -32,8 -89,31 -127,51 -45,24 -90,59 -132,104 -37,39 -78,96 -97,134 -18,36 -38,89 -44,118 l -12,53 -87,2 c -79,3 -87,2 -87,-16 0,-10 9,-52 20,-94 10,-42 31,-100 46,-129 15,-29 44,-78 65,-108 20,-31 62,-79 92,-107 30,-29 81,-69 113,-89 32,-21 83,-48 114,-60 31,-13 95,-31 141,-40 61,-13 109,-16 174,-11 50,3 122,15 161,27 38,12 99,37 135,55 35,19 92,57 126,84 33,27 82,78 109,112 26,35 63,97 83,139 19,41 36,78 38,82 l 4,8"
       id="path21"
       inkscape:connector-curvature="0" />
  </g>
  <g
     id="layer103"
     style="fill:#ffc600;fill-rule:evenodd;stroke:#ffc600;stroke-width:10"
     transform="translate(-15,-631.87943)">
    <path
       d="m 794,1930 c -62,-18 -137,-62 -190,-112 -135,-128 -172,-328 -91,-493 82,-166 232,-254 413,-243 187,12 331,134 387,329 21,72 21,125 0,197 -47,164 -155,276 -306,316 -66,18 -161,20 -213,6 M 550,1528 c 0,-12 11,-41 25,-65 35,-60 90,-87 162,-81 61,5 96,26 132,81 l 24,36 22,-36 c 55,-92 186,-112 263,-40 26,24 61,88 62,111 0,12 -13,16 -54,16 -45,0 -55,-4 -59,-19 -3,-11 -17,-27 -31,-36 -33,-22 -76,-10 -95,28 -12,26 -14,27 -111,27 -88,0 -99,-2 -103,-19 -3,-11 -17,-27 -31,-36 -34,-22 -77,-9 -94,28 -11,24 -18,27 -62,27 -45,0 -50,-3 -50,-22"
       id="path24"
       inkscape:connector-curvature="0" />
  </g>
</svg>
