<?xml version="1.0" encoding="UTF-8" standalone="no"?>
<svg
   xmlns:dc="http://purl.org/dc/elements/1.1/"
   xmlns:cc="http://creativecommons.org/ns#"
   xmlns:rdf="http://www.w3.org/1999/02/22-rdf-syntax-ns#"
   xmlns:svg="http://www.w3.org/2000/svg"
   xmlns="http://www.w3.org/2000/svg"
   xmlns:sodipodi="http://sodipodi.sourceforge.net/DTD/sodipodi-0.dtd"
   xmlns:inkscape="http://www.inkscape.org/namespaces/inkscape"
   version="1.0"
   width="550.66669"
   height="119.50189"
   viewBox="0 0 5506.6667 1195.0189"
   preserveAspectRatio="xMidYMid meet"
   id="svg27"
   sodipodi:docname="semicom-clear.svg"
   inkscape:version="0.92.5 (2060ec1f9f, 2020-04-08)">
  <metadata
     id="metadata33">
    <rdf:RDF>
      <cc:Work
         rdf:about="">
        <dc:format>image/svg+xml</dc:format>
        <dc:type
           rdf:resource="http://purl.org/dc/dcmitype/StillImage" />
        <dc:title></dc:title>
      </cc:Work>
    </rdf:RDF>
  </metadata>
  <defs
     id="defs31" />
  <sodipodi:namedview
     pagecolor="#ffffff"
     bordercolor="#666666"
     borderopacity="1"
     objecttolerance="10"
     gridtolerance="10"
     guidetolerance="10"
     inkscape:pageopacity="0"
     inkscape:pageshadow="2"
     inkscape:window-width="1845"
     inkscape:window-height="480"
     id="namedview29"
     showgrid="false"
     inkscape:zoom="1.5"
     inkscape:cx="127.12405"
     inkscape:cy="87.491621"
     inkscape:window-x="72"
     inkscape:window-y="27"
     inkscape:window-maximized="0"
     inkscape:current-layer="svg27"
     fit-margin-top="0"
     fit-margin-left="0"
     fit-margin-right="0"
     fit-margin-bottom="0" />
  <g
     id="layer101"
     style="fill:#000000;fill-rule:evenodd;stroke:#000000;stroke-width:10"
     transform="translate(-488.33333,-938.54612)">
    <path
       d="m 615.26698,1685.1359 v 6.8613 c 0,3.4306 8.23353,26.759 19.21157,50.7734 10.97805,24.0145 32.24801,61.7515 47.34282,83.7076 15.09482,21.9561 44.59831,56.2625 65.18215,75.4741 20.58383,19.8977 55.57635,47.3428 77.53244,61.0654 21.95609,14.4086 56.94861,32.9341 78.21857,41.1676 21.26996,8.9197 65.18214,21.27 96.74402,27.4451 41.16765,8.2336 74.10185,10.9781 115.95565,7.5474 32.248,-2.0583 77.5324,-8.9196 100.1746,-14.4086 22.6422,-6.1752 65.8683,-22.6423 96.0579,-37.7371 30.1896,-15.0948 73.4157,-42.5399 96.744,-61.0653 22.6423,-19.2116 56.2625,-54.2041 74.7879,-77.5325 17.8394,-24.0145 43.9122,-67.9266 58.3209,-98.1163 13.7226,-30.1896 28.8174,-72.0434 33.6203,-92.6272 4.1167,-21.27 9.6058,-45.2845 10.978,-53.518 3.4306,-15.0948 2.0584,-15.0948 -57.6347,-15.0948 h -60.3792 l -8.9197,37.737 c -4.1168,20.5839 -19.2116,59.6931 -32.9341,87.1383 -16.4671,32.248 -39.7955,64.496 -69.9851,93.9995 -24.7006,24.7006 -63.1237,54.8902 -85.766,66.5544 -22.6422,12.3503 -60.3792,26.759 -83.7075,32.9341 -23.3284,5.489 -66.5544,10.978 -96.0579,10.978 -30.1897,0 -72.7296,-4.8028 -94.68569,-10.978 -21.95609,-5.489 -61.06537,-21.27 -87.13823,-34.9925 -30.87575,-16.4671 -61.7515,-40.4816 -90.56887,-71.3573 -25.38673,-26.759 -53.51797,-65.8683 -66.5544,-91.9411 -12.3503,-24.7006 -26.07286,-61.0654 -30.18962,-80.9631 l -8.23354,-35.6787 -59.69312,-2.0584 -59.00699,-1.3722 v 0 h -13.72255 c -7.54741,0 -26.07286,0 -41.16767,0 -15.09481,0 -31.56188,-4.8029 -37.73703,-10.9781 -5.48902,-6.1751 -10.29192,-20.5838 -10.29192,-32.9341 0,-11.6642 4.11677,-50.7734 10.29192,-86.4521 5.48902,-34.9925 17.83932,-87.8244 27.44511,-115.9556 9.60579,-28.1312 28.13124,-70.6712 41.16767,-93.3134 12.3503,-22.6422 30.87575,-52.1457 40.48154,-65.1821 9.60579,-13.7226 37.0509,-43.9122 60.37925,-67.9267 23.32834,-24.0144 61.06537,-56.2625 83.02146,-70.6711 21.95609,-15.0948 61.75151,-37.7371 89.19662,-50.7735 26.75898,-13.0364 74.1018,-30.1896 104.29143,-37.737 39.79541,-10.9781 76.16023,-15.0948 137.22553,-15.0948 63.1238,-0.6862 96.0579,2.7445 144.0869,14.4086 33.6202,8.2336 86.4521,27.4452 116.6417,41.8538 30.1896,14.4087 74.7879,41.8538 99.4885,60.3793 24.7006,18.5254 60.3793,51.4596 79.5908,72.0434 19.2116,21.27 45.9706,55.5764 60.3793,77.5325 14.4087,21.2699 36.3648,63.1237 49.4012,91.9411 12.3503,29.5035 22.6422,60.3792 23.3283,68.6128 0,13.0364 -4.1167,14.4086 -44.5983,14.4086 h -44.5983 v 0 l -2.7445,-5.489 c -1.3723,-2.7445 -13.0364,-28.1312 -26.0729,-56.2625 -13.7225,-28.8173 -39.1092,-71.3572 -56.9486,-95.3717 -18.5254,-23.3284 -52.1456,-58.3209 -74.7879,-76.8463 -23.3283,-18.5255 -62.4376,-44.5983 -86.4521,-57.6348 -24.7006,-12.3503 -66.5544,-29.5035 -92.6272,-37.737 -26.759,-8.2335 -76.1602,-16.4671 -110.4666,-18.5255 -44.5983,-3.4306 -77.5324,-1.3722 -119.38625,7.5475 -31.56188,6.1751 -75.47406,18.5254 -96.74402,27.4451 -21.26996,8.2335 -56.26248,26.7589 -78.21857,41.1676 -21.95609,13.7226 -56.94861,41.1677 -77.53244,61.0654 -20.58384,19.2116 -49.40121,52.1457 -63.12376,73.4157 -14.40869,20.5838 -34.30639,54.2041 -44.59831,74.1018 -10.29192,19.8977 -24.7006,59.6931 -31.56188,88.5105 -7.54741,28.8173 -13.72256,57.6347 -13.72256,64.496 0,12.3503 5.48903,13.0364 59.69312,10.978 l 59.69312,-1.3722 8.23354,-36.3648 c 4.11676,-19.8977 17.83932,-56.2625 30.18962,-80.9631 13.03643,-26.0728 41.16767,-65.1821 66.5544,-91.9411 28.81737,-30.8758 59.69312,-54.8902 90.56887,-71.3573 26.07286,-13.7226 65.18214,-29.5035 87.13823,-34.9925 21.95609,-6.1752 64.49599,-10.2919 94.68569,-10.2919 29.5035,0 72.7295,4.8029 96.0579,10.2919 23.3283,6.1751 60.3792,20.5838 83.0214,32.9341 22.6422,11.6642 61.7515,41.8538 86.4521,66.5544 24.7006,24.0145 52.8319,60.3793 63.1238,79.5908 10.2919,19.2116 19.2116,37.0509 19.2116,39.1093 v 4.8029 0 l 0.6861,1.3723 c 0,0.6861 6.8613,22.6422 14.4087,48.0289 l 14.4087,45.9706 107.0359,2.0584 107.0359,2.0584 2.0584,35.6786 c 0.6861,19.8977 -3.4307,64.496 -8.9197,99.4885 -6.1751,34.3064 -18.5254,83.7076 -27.4451,109.7805 -8.9197,26.0728 -29.5035,70.6712 -45.9706,100.1747 -19.8977,34.9925 -51.4595,74.1018 -94.6856,118.7001 -45.2844,45.2844 -83.0214,75.474 -120.0723,97.4301 -30.1896,17.8393 -84.3937,41.8538 -120.0724,53.518 -56.9486,19.2116 -77.5324,21.9561 -157.8094,24.7006 -77.5324,2.7445 -102.9192,0.6861 -153.69263,-10.9781 -32.93413,-8.2335 -82.33534,-24.7006 -109.78045,-37.737 -27.44511,-12.3503 -65.86827,-33.6203 -84.39372,-46.6567 -19.21158,-12.3503 -46.65669,-33.6202 -61.7515,-47.3428 -14.40869,-13.0364 -41.16767,-41.1677 -59.69312,-61.0654 -17.83933,-20.5838 -45.28444,-58.3208 -60.37925,-83.7076 -14.40868,-26.0728 -34.30639,-67.2405 -43.91218,-91.9411 -8.91966,-24.7006 -16.46706,-49.4012 -16.46706,-54.8902 0,-7.5474 8.91966,-9.6058 41.16766,-9.6058 22.64222,0 43.91218,0 48.02895,0 h 6.86128 m 407.55992,144.0868 c -42.53993,-12.3503 -93.99951,-42.5399 -130.36429,-76.8463 -92.62725,-87.8243 -118.01398,-225.0499 -62.43763,-338.261 56.26248,-113.8972 159.18166,-174.2765 283.37082,-166.7291 128.3059,8.2336 227.1083,91.9412 265.5314,225.7361 14.4087,49.4012 14.4087,85.766 0,135.1672 -32.248,112.5249 -106.3498,189.3713 -209.9551,216.8164 -45.2844,12.3503 -110.4665,13.7225 -146.1452,4.1167 M 855.41171,1553.3993 c 0,-8.2335 7.54741,-28.1312 17.1532,-44.5983 24.01447,-41.1676 61.7515,-59.6931 111.1527,-55.5763 41.85379,3.4306 65.86829,17.8393 90.56889,55.5763 l 16.4671,24.7006 15.0948,-24.7006 c 37.737,-63.1237 127.6197,-76.8463 180.4516,-27.4451 17.8393,16.4671 41.8538,60.3793 42.5399,76.1602 0,8.2335 -8.9197,10.9781 -37.0509,10.9781 -30.8757,0 -37.737,-2.7446 -40.4815,-13.0365 -2.0584,-7.5474 -11.6642,-18.5254 -21.27,-24.7006 -22.6422,-15.0948 -52.1457,-6.8612 -65.1821,19.2116 -8.2336,17.8393 -9.6058,18.5255 -76.1602,18.5255 -60.3793,0 -67.9267,-1.3723 -70.6712,-13.0365 -2.0584,-7.5474 -11.6642,-18.5254 -21.26996,-24.7006 -23.32834,-15.0948 -52.83184,-6.1751 -64.49601,19.2116 -7.54741,16.4671 -12.3503,18.5255 -42.53993,18.5255 -30.87575,0 -34.30639,-2.0584 -34.30639,-15.0949"
       id="path2"
       inkscape:connector-curvature="0"
       style="stroke-width:6.86127806" />
    <path
       d="m 2026,1747 c -94,-29 -177,-96 -163,-132 11,-29 89,-19 162,20 56,29 76,35 132,35 46,0 79,-7 108,-21 52,-25 89,-63 81,-85 -6,-14 -34,-15 -245,-14 -132,1 -244,-1 -250,-5 -19,-11 -13,-78 11,-120 27,-48 106,-110 167,-130 58,-20 214,-20 269,-1 50,18 131,71 139,92 15,40 -59,43 -152,9 -91,-35 -165,-34 -236,2 -38,19 -55,34 -58,50 l -3,23 h 230 c 207,0 231,1 252,18 22,18 22,18 5,70 -26,79 -94,146 -178,177 -78,28 -198,33 -271,12"
       id="path4"
       style="stroke:#808080"
       inkscape:connector-curvature="0" />
    <path
       d="m 4154,1733 c -52,-19 -138,-91 -160,-134 -21,-42 -19,-132 6,-180 26,-52 108,-115 173,-135 58,-17 184,-20 235,-5 85,25 196,120 190,164 -3,18 -11,22 -53,25 -45,2 -51,0 -90,-37 -90,-90 -238,-94 -324,-10 -28,27 -31,37 -31,86 0,51 2,58 38,92 90,86 226,80 330,-14 35,-32 46,-36 83,-34 37,3 44,7 47,27 5,36 -89,123 -161,150 -73,27 -215,30 -283,5"
       id="path6"
       style="stroke:#808080"
       inkscape:connector-curvature="0" />
    <path
       d="m 4878,1734 c -92,-27 -162,-85 -194,-161 -21,-52 -18,-92 11,-152 82,-163 335,-214 503,-100 75,50 104,95 110,168 5,71 -18,121 -82,177 -77,67 -241,100 -348,68 m 14,-103 c -91,-46 -125,-126 -81,-191 56,-82 200,-108 300,-53 28,14 56,39 64,54 20,37 18,104 -3,135 -43,67 -196,97 -280,55"
       id="path8"
       style="stroke:#808080"
       inkscape:connector-curvature="0" />
    <path
       d="m 2564,1717 c -3,-7 -4,-105 -2,-218 l 3,-204 h 223 c 203,0 225,1 235,17 8,13 8,22 0,35 -9,15 -32,18 -170,23 l -158,5 v 45 45 l 156,2 c 169,3 191,10 169,52 -11,19 -20,21 -159,21 -101,0 -151,3 -159,12 -7,6 -12,28 -12,49 0,54 16,60 179,58 76,-1 143,1 149,5 14,8 15,37 2,53 -15,18 -448,18 -456,0"
       id="path10"
       style="stroke:#808080"
       inkscape:connector-curvature="0" />
    <path
       d="m 3095,1723 c -3,-4 -5,-97 -5,-208 0,-143 3,-205 12,-214 6,-6 38,-11 73,-11 75,0 75,0 138,140 58,126 74,152 88,143 10,-5 39,-65 105,-212 26,-57 47,-71 106,-71 30,0 59,5 65,12 9,8 13,68 13,204 0,161 -3,195 -16,208 -19,19 -90,21 -101,3 -5,-7 -8,-50 -8,-97 0,-116 -15,-116 -71,3 -25,52 -52,97 -60,100 -32,13 -85,6 -103,-12 -10,-10 -35,-55 -56,-100 -53,-112 -59,-111 -56,14 3,88 -10,105 -74,105 -25,0 -48,-3 -50,-7"
       id="path12"
       style="stroke:#808080"
       inkscape:connector-curvature="0" />
    <path
       d="m 3783,1719 c -8,-15 -7,-405 1,-419 4,-6 24,-10 45,-10 74,0 71,-11 71,214 0,120 -5,206 -10,214 -13,14 -98,15 -107,1"
       id="path14"
       style="stroke:#808080"
       inkscape:connector-curvature="0" />
    <path
       d="m 5390,1718 c -16,-19 -14,-401 2,-417 6,-6 39,-11 74,-11 71,0 87,12 120,97 31,77 88,185 99,186 10,0 42,-58 94,-173 47,-107 52,-110 127,-110 52,0 65,3 73,19 6,11 11,95 11,201 0,105 -5,189 -11,200 -8,15 -21,20 -59,20 -64,0 -75,-15 -67,-89 6,-60 0,-101 -15,-101 -4,0 -29,40 -53,89 -49,96 -60,105 -127,99 -32,-3 -36,-9 -78,-95 -25,-51 -49,-96 -54,-100 -17,-17 -27,24 -21,92 5,58 3,74 -9,88 -19,19 -91,23 -106,5"
       id="path16"
       style="stroke:#808080"
       inkscape:connector-curvature="0" />
  </g>
  <g
     id="layer102"
     style="fill:#3939fd;fill-rule:evenodd;stroke:#3939fd;stroke-width:10"
     transform="translate(-488.33333,-938.54612)">
    <path
       d="m 615.26698,1685.1359 v -3.4307 c 0,-1.3722 -2.74452,-10.2919 -6.17515,-18.5254 -3.43064,-8.9197 -8.23354,-29.5035 -10.29192,-45.2844 l -4.11677,-28.8174 v 0 l 59.00699,1.3722 59.69312,2.0584 8.23354,35.6787 c 4.11676,19.8977 17.83932,56.2625 30.18962,80.9631 13.03643,26.0728 41.16767,65.1821 66.5544,91.9411 28.81737,30.8757 59.69312,54.8902 90.56887,71.3573 26.07286,13.7225 65.18214,29.5035 87.13823,34.9925 21.95609,6.1752 64.49599,10.978 94.68569,10.978 29.5035,0 72.7295,-5.489 96.0579,-10.978 23.3283,-6.1751 61.0653,-20.5838 83.7075,-32.9341 22.6423,-11.6642 61.0654,-41.8538 85.766,-66.5544 30.1896,-29.5035 53.518,-61.7515 69.9851,-93.9995 13.7225,-27.4452 28.8173,-66.5544 32.9341,-87.1383 l 8.9197,-37.737 h 60.3792 c 59.6931,0 61.0653,0 57.6347,15.0948 -1.3722,8.2335 -6.8613,32.248 -10.978,53.518 -4.8029,20.5838 -19.8977,62.4376 -33.6203,92.6272 -14.4087,30.1897 -40.4815,74.1018 -58.3209,98.1163 -18.5254,23.3284 -52.1456,58.3209 -74.7879,77.5325 -23.3283,18.5254 -66.5544,45.9705 -96.744,61.0653 -30.1896,15.0948 -73.4157,31.5619 -96.0579,37.7371 -22.6422,5.489 -67.9266,12.3503 -100.1746,14.4086 -41.8538,3.4307 -74.788,0.6862 -115.95565,-7.5474 -31.56188,-6.1751 -75.47406,-18.5254 -96.74402,-27.4451 -21.26996,-8.2335 -56.26248,-26.759 -78.21857,-41.1676 -21.95609,-13.7226 -56.94861,-41.1677 -77.53244,-61.0654 -20.58384,-19.2116 -50.08733,-53.518 -65.18215,-75.4741 -15.09481,-21.9561 -36.36477,-59.6931 -47.34282,-83.7076 -10.97804,-24.0144 -19.21157,-47.3428 -19.21157,-50.7734 v -6.8613"
       id="path19"
       inkscape:connector-curvature="0"
       style="stroke-width:6.86127806" />
    <path
       d="m 1568.9846,1383.2396 -29.5035,3.4307 c -15.7809,2.0584 -31.5619,3.4306 -34.3064,3.4306 -2.7445,0 -19.2116,0 -35.6786,0 h -30.8757 v 0 -4.8029 c 0,-2.0584 -8.9197,-19.8977 -19.2116,-39.1093 -10.2919,-19.2115 -38.4232,-55.5763 -63.1238,-79.5908 -24.7006,-24.7006 -63.8099,-54.8902 -86.4521,-66.5544 -22.6422,-12.3503 -59.6931,-26.759 -83.0214,-32.9341 -23.3284,-5.489 -66.5544,-10.2919 -96.0579,-10.2919 -30.1897,0 -72.7296,4.1167 -94.68569,10.2919 -21.95609,5.489 -61.06537,21.2699 -87.13823,34.9925 -30.87575,16.4671 -61.7515,40.4815 -90.56887,71.3573 -25.38673,26.759 -53.51797,65.8683 -66.5544,91.9411 -12.3503,24.7006 -26.07286,61.0654 -30.18962,80.9631 l -8.23354,36.3648 -59.69312,1.3722 c -54.20409,2.0584 -59.69312,1.3723 -59.69312,-10.978 0,-6.8613 6.17515,-35.6787 13.72256,-64.496 6.86128,-28.8174 21.26996,-68.6128 31.56188,-88.5105 10.29192,-19.8977 30.18962,-53.518 44.59831,-74.1018 13.72255,-21.27 42.53992,-54.2041 63.12376,-73.4157 20.58383,-19.8977 55.57635,-47.3428 77.53244,-61.0654 21.95609,-14.4087 56.94861,-32.9341 78.21857,-41.1676 21.26996,-8.9197 65.18214,-21.27 96.74402,-27.4451 41.85385,-8.9197 74.78795,-10.9781 119.38625,-7.5475 34.3064,2.0584 83.7076,10.292 110.4666,18.5255 26.0728,8.2335 67.9266,25.3867 92.6272,37.737 24.0145,13.0365 63.1238,39.1093 86.4521,57.6348 22.6423,18.5254 56.2625,53.5179 74.7879,76.8463 17.8394,24.0145 43.2261,66.5544 56.9486,95.3717 13.0365,28.1313 24.7006,53.518 26.0729,56.2625 l 2.7445,5.489"
       id="path21"
       inkscape:connector-curvature="0"
       style="stroke-width:6.86127806" />
  </g>
  <g
     id="layer103"
     style="fill:#ffc600;fill-rule:evenodd;stroke:#ffc600;stroke-width:10"
     transform="translate(-488.33333,-938.54612)">
    <path
       d="m 1022.8269,1829.2227 c -42.53993,-12.3503 -93.99951,-42.5399 -130.36429,-76.8463 -92.62725,-87.8243 -118.01398,-225.0499 -62.43763,-338.261 56.26248,-113.8972 159.18166,-174.2765 283.37082,-166.7291 128.3059,8.2336 227.1083,91.9412 265.5314,225.7361 14.4087,49.4012 14.4087,85.766 0,135.1672 -32.248,112.5249 -106.3498,189.3713 -209.9551,216.8164 -45.2844,12.3503 -110.4665,13.7225 -146.1452,4.1167 M 855.41171,1553.3993 c 0,-8.2335 7.54741,-28.1312 17.1532,-44.5983 24.01447,-41.1676 61.7515,-59.6931 111.1527,-55.5763 41.85379,3.4306 65.86829,17.8393 90.56889,55.5763 l 16.4671,24.7006 15.0948,-24.7006 c 37.737,-63.1237 127.6197,-76.8463 180.4516,-27.4451 17.8393,16.4671 41.8538,60.3793 42.5399,76.1602 0,8.2335 -8.9197,10.9781 -37.0509,10.9781 -30.8757,0 -37.737,-2.7446 -40.4815,-13.0365 -2.0584,-7.5474 -11.6642,-18.5254 -21.27,-24.7006 -22.6422,-15.0948 -52.1457,-6.8612 -65.1821,19.2116 -8.2336,17.8393 -9.6058,18.5255 -76.1602,18.5255 -60.3793,0 -67.9267,-1.3723 -70.6712,-13.0365 -2.0584,-7.5474 -11.6642,-18.5254 -21.26996,-24.7006 -23.32834,-15.0948 -52.83184,-6.1751 -64.49601,19.2116 -7.54741,16.4671 -12.3503,18.5255 -42.53993,18.5255 -30.87575,0 -34.30639,-2.0584 -34.30639,-15.0949"
       id="path24"
       inkscape:connector-curvature="0"
       style="stroke-width:6.86127806" />
  </g>
</svg>
