<?xml version="1.0" encoding="UTF-8" standalone="no"?>
<svg
   xmlns:dc="http://purl.org/dc/elements/1.1/"
   xmlns:cc="http://creativecommons.org/ns#"
   xmlns:rdf="http://www.w3.org/1999/02/22-rdf-syntax-ns#"
   xmlns:svg="http://www.w3.org/2000/svg"
   xmlns="http://www.w3.org/2000/svg"
   xmlns:sodipodi="http://sodipodi.sourceforge.net/DTD/sodipodi-0.dtd"
   xmlns:inkscape="http://www.inkscape.org/namespaces/inkscape"
   version="1.0"
   width="998.49707pt"
   height="215.34233pt"
   viewBox="0 0 998.49706 215.34233"
   preserveAspectRatio="xMidYMid meet"
   id="svg40"
   sodipodi:docname="switch.svg"
   inkscape:version="0.92.5 (2060ec1f9f, 2020-04-08)">
  <defs
     id="defs44" />
  <sodipodi:namedview
     pagecolor="#ffffff"
     bordercolor="#666666"
     borderopacity="1"
     objecttolerance="10"
     gridtolerance="10"
     guidetolerance="10"
     inkscape:pageopacity="0"
     inkscape:pageshadow="2"
     inkscape:window-width="2059"
     inkscape:window-height="1040"
     id="namedview42"
     showgrid="false"
     inkscape:zoom="1.1125147"
     inkscape:cx="565.52965"
     inkscape:cy="80.045816"
     inkscape:window-x="72"
     inkscape:window-y="27"
     inkscape:window-maximized="0"
     inkscape:current-layer="svg40"
     fit-margin-top="0"
     fit-margin-left="0"
     fit-margin-right="0"
     fit-margin-bottom="0" />
  <metadata
     id="metadata2">
Created by potrace 1.13, written by Peter Selinger 2001-2015
<rdf:RDF>
  <cc:Work
     rdf:about="">
    <dc:format>image/svg+xml</dc:format>
    <dc:type
       rdf:resource="http://purl.org/dc/dcmitype/StillImage" />
    <dc:title></dc:title>
  </cc:Work>
</rdf:RDF>
</metadata>
  <g
     transform="matrix(0.1,0,0,-0.1,207.99708,280.1983)"
     id="g38"
     style="fill:#ff0000;stroke:none">
    <path
       d="m -1619.0437,2794.8492 c -214.4597,-38.3441 -387.0086,-197.0712 -441.4038,-405.7349 -19.6179,-75.3507 -20.9555,-119.4911 -18.7262,-704.0168 1.3376,-536.8184 1.7834,-549.3026 10.7007,-590.7679 49.4908,-223.37703 208.2177,-382.54993 433.8242,-435.16171 29.4269,-6.68793 66.8793,-8.02552 308.0909,-9.36311 249.683,-1.78346 275.5431,-1.33759 282.231,5.35035 6.6879,6.68793 7.1338,92.7394 7.1338,1068.28647 0,723.189 -1.3376,1063.8279 -4.4586,1070.07 -4.4586,8.0254 -12.0383,8.4714 -273.3138,8.0254 -212.2304,-0.4457 -275.9888,-1.7833 -304.0782,-6.6878 z m 403.5056,-1070.07 V 821.46183 l -181.466,2.22932 c -167.1984,1.78345 -185.0329,2.67516 -218.4726,11.14656 -143.5678,37.00658 -250.1289,147.58048 -280.0017,291.59409 -9.809,45.0321 -9.809,1154.3379 -0.4458,1198.4783 26.7516,125.2873 113.6949,229.1733 230.9567,275.9889 58.8538,23.6308 86.0515,26.3059 276.8806,26.7518 l 172.5488,0.4457 z"
       id="path4"
       style="fill:#ff0000;stroke-width:0.4458625"
       inkscape:connector-curvature="0" />
    <path
       d="m -1580.6994,2355.6746 c -28.0894,-5.3503 -70.8922,-26.7517 -93.6311,-46.8156 -46.8156,-40.5734 -70.0005,-98.0896 -66.4335,-165.8608 1.7834,-35.2231 4.0126,-44.5862 18.2803,-73.1214 20.9555,-43.2487 52.6118,-74.9049 95.8604,-96.3064 29.8729,-14.7134 37.4525,-16.4968 76.2425,-17.8344 35.2231,-1.3376 47.7073,0 71.338,8.0255 96.7521,32.548 155.1601,126.625 138.6633,222.9312 -19.1722,114.5867 -127.9626,191.2751 -240.3199,168.9819 z"
       id="path6"
       style="fill:#ff0000;stroke-width:0.4458625"
       inkscape:connector-curvature="0" />
    <path
       d="m -820.05804,2798.862 c -1.78344,-1.3376 -3.12102,-484.6526 -3.12102,-1074.0828 0,-972.42605 0.44577,-1070.96165 7.13375,-1073.63683 12.0383,-4.45864 358.02761,-2.67518 400.8304,1.78345 181.0202,20.50967 340.638935,130.63771 427.582089,294.26924 11.146622,20.95554 25.860074,56.17874 33.439703,78.02594 28.089336,83.8222 27.197643,61.529 27.197643,702.2334 0,511.4043 -0.891763,587.6468 -7.133814,620.1947 -44.140366,232.2944 -221.147781,407.5184 -453.887981,447.6459 -31.21044,5.3504 -79.36351,6.688 -234.52372,6.688 -107.00698,0 -196.17947,-1.3376 -197.51705,-3.121 z m 476.18114,-971.0886 c 69.55455,-18.2803 126.6249,-71.338 149.80976,-139.109 14.71345,-41.9111 14.26764,-103.4402 -0.44581,-141.7843 -27.19764,-70.4463 -80.70116,-119.937 -149.36395,-138.2174 -111.46565,-28.981 -230.06505,38.3442 -262.61299,148.9181 -9.80897,33.8856 -9.36317,90.9559 1.78346,125.7332 33.43962,109.2363 149.36388,173.4405 260.82953,144.4594 z"
       id="path8"
       style="fill:#ff0000;stroke-width:0.4458625"
       inkscape:connector-curvature="0" />
    <path
       d="m 7493,2776 c -155,-51 -247,-200 -221,-362 16,-104 76,-186 168,-233 125,-62 258,-46 358,44 75,68 107,139 107,240 0,95 -28,166 -91,229 -79,79 -221,115 -321,82 z m 177,-146 c 60,-31 93,-81 98,-149 6,-89 -32,-153 -111,-186 -134,-56 -286,73 -248,212 16,62 43,97 93,122 54,26 117,27 168,1 z"
       id="path10"
       style="fill:#ff0000"
       inkscape:connector-curvature="0" />
    <path
       d="m 790,2465 v -306 l 63,3 62,3 5,193 5,193 145,-195 145,-196 60,2 60,3 v 300 300 l -62,3 -63,3 v -197 -198 l -147,197 -148,197 h -62 -63 z"
       id="path12"
       style="fill:#ff0000"
       inkscape:connector-curvature="0" />
    <path
       d="m 1790,2465 v -305 h 65 65 v 305 305 h -65 -65 z"
       id="path14"
       style="fill:#ff0000"
       inkscape:connector-curvature="0" />
    <path
       d="m 2375,2757 c -3,-7 -4,-143 -3,-302 l 3,-290 63,-3 62,-3 v 202 203 l 150,-202 150,-202 h 60 60 v 305 305 h -65 -65 l -2,-192 -3,-192 -144,192 -143,192 h -59 c -39,0 -61,-4 -64,-13 z"
       id="path16"
       style="fill:#ff0000"
       inkscape:connector-curvature="0" />
    <path
       d="m 3347,2763 c -4,-3 -7,-33 -7,-65 v -58 h 100 100 v -240 -240 h 65 65 v 240 240 h 95 95 v 65 65 h -253 c -140,0 -257,-3 -260,-7 z"
       id="path18"
       style="fill:#ff0000"
       inkscape:connector-curvature="0" />
    <path
       d="m 4300,2465 v -305 h 235 235 v 60 60 h -175 -175 v 70 70 h 160 160 v 55 55 h -160 -160 v 60 60 l 173,2 172,3 3,58 3,57 h -236 -235 z"
       id="path20"
       style="fill:#ff0000"
       inkscape:connector-curvature="0" />
    <path
       d="m 5265,2757 c -3,-7 -4,-143 -3,-302 l 3,-290 63,-3 62,-3 v 203 202 l 150,-202 150,-202 h 60 60 v 305 305 h -65 -65 l -2,-192 -3,-192 -144,192 -143,192 h -59 c -39,0 -61,-4 -64,-13 z"
       id="path22"
       style="fill:#ff0000"
       inkscape:connector-curvature="0" />
    <path
       d="m 6320,2466 v -306 h 133 c 154,0 227,15 293,61 195,134 165,421 -54,522 -41,19 -69,22 -209,25 l -163,4 z m 327,155 c 84,-39 120,-146 78,-235 -32,-66 -97,-96 -211,-96 h -74 v 175 175 h 83 c 59,0 94,-6 124,-19 z"
       id="path24"
       style="fill:#ff0000"
       inkscape:connector-curvature="0" />
    <path
       d="m 6018,1889 c -139,-18 -263,-83 -365,-192 -223,-240 -216,-605 17,-837 86,-87 164,-132 276,-160 184,-47 370,-10 522,105 59,44 136,130 130,145 -2,4 -43,41 -92,84 l -88,77 -27,-35 c -129,-169 -390,-187 -541,-36 -22,22 -52,63 -67,92 -25,48 -28,63 -28,153 0,86 3,107 25,150 74,153 257,236 416,190 74,-21 144,-65 188,-118 l 34,-41 44,36 c 24,19 66,56 93,80 l 50,45 -39,48 c -130,158 -340,240 -548,214 z"
       id="path26"
       style="fill:#ff0000"
       inkscape:connector-curvature="0" />
    <path
       d="m 1072,1850 c -238,-63 -361,-222 -308,-402 38,-133 164,-198 499,-258 225,-40 291,-73 291,-144 0,-49 -29,-85 -92,-114 -54,-25 -66,-27 -202,-27 -161,0 -224,13 -343,67 -37,17 -69,29 -71,27 -12,-15 -107,-192 -104,-194 10,-11 170,-69 236,-87 110,-29 345,-36 465,-14 224,42 335,145 345,318 8,143 -32,217 -155,281 -88,46 -164,68 -358,107 -169,33 -217,49 -252,82 -31,29 -31,81 1,113 72,72 330,75 530,5 33,-11 63,-17 67,-13 7,8 79,177 79,187 0,9 -153,54 -239,70 -116,22 -296,20 -389,-4 z"
       id="path28"
       style="fill:#ff0000"
       inkscape:connector-curvature="0" />
    <path
       d="m 1924,1843 c 3,-10 73,-259 156,-553 83,-294 153,-543 156,-552 5,-16 21,-18 144,-18 h 139 l 11,38 c 99,358 199,694 204,682 3,-8 50,-172 104,-365 l 98,-350 140,-3 140,-3 159,558 c 87,307 160,564 163,571 3,9 -25,12 -122,12 h -125 l -14,-47 c -8,-27 -56,-207 -107,-400 -52,-194 -96,-353 -100,-353 -3,0 -50,152 -104,338 -54,185 -107,365 -118,400 l -19,63 -102,-3 -102,-3 -117,-400 c -64,-220 -117,-402 -118,-405 -1,-3 -46,159 -99,360 -54,201 -104,384 -110,408 l -12,42 h -125 c -115,0 -125,-1 -120,-17 z"
       id="path30"
       style="fill:#ff0000"
       inkscape:connector-curvature="0" />
    <path
       d="M 3820,1290 V 720 h 130 130 l -2,568 -3,567 -127,3 -128,3 z"
       id="path32"
       style="fill:#ff0000"
       inkscape:connector-curvature="0" />
    <path
       d="m 4350,1735 v -125 h 180 180 V 1165 720 h 125 125 v 445 445 l 178,2 177,3 v 120 120 l -482,3 -483,2 z"
       id="path34"
       style="fill:#ff0000"
       inkscape:connector-curvature="0" />
    <path
       d="M 6860,1290 V 720 h 120 120 v 225 225 h 265 265 V 945 720 h 120 120 l -2,568 -3,567 -117,3 -118,3 v -226 -225 h -265 -265 v 225 225 h -120 -120 z"
       id="path36"
       style="fill:#ff0000"
       inkscape:connector-curvature="0" />
  </g>
</svg>
