<?xml version="1.0" encoding="UTF-8" standalone="no"?>
<svg
   xmlns:dc="http://purl.org/dc/elements/1.1/"
   xmlns:cc="http://creativecommons.org/ns#"
   xmlns:rdf="http://www.w3.org/1999/02/22-rdf-syntax-ns#"
   xmlns:svg="http://www.w3.org/2000/svg"
   xmlns="http://www.w3.org/2000/svg"
   xmlns:sodipodi="http://sodipodi.sourceforge.net/DTD/sodipodi-0.dtd"
   xmlns:inkscape="http://www.inkscape.org/namespaces/inkscape"
   id="svg"
   width="343.64343"
   height="109.38036"
   viewBox="0 0 343.64343 109.38036"
   version="1.1"
   sodipodi:docname="x1-clear.svg"
   inkscape:version="0.92.5 (2060ec1f9f, 2020-04-08)">
  <metadata
     id="metadata9">
    <rdf:RDF>
      <cc:Work
         rdf:about="">
        <dc:format>image/svg+xml</dc:format>
        <dc:type
           rdf:resource="http://purl.org/dc/dcmitype/StillImage" />
        <dc:title></dc:title>
      </cc:Work>
    </rdf:RDF>
  </metadata>
  <defs
     id="defs7" />
  <sodipodi:namedview
     pagecolor="#ffffff"
     bordercolor="#666666"
     borderopacity="1"
     objecttolerance="10"
     gridtolerance="10"
     guidetolerance="10"
     inkscape:pageopacity="0"
     inkscape:pageshadow="2"
     inkscape:window-width="1223"
     inkscape:window-height="738"
     id="namedview5"
     showgrid="false"
     inkscape:zoom="1.3222897"
     inkscape:cx="27.460832"
     inkscape:cy="72.721084"
     inkscape:current-layer="svg"
     fit-margin-top="0"
     fit-margin-left="0"
     fit-margin-right="0"
     fit-margin-bottom="0"
     inkscape:window-x="72"
     inkscape:window-y="27"
     inkscape:window-maximized="0" />
  <g
     id="svgg"
     style="fill:#cccccc;stroke:#333333"
     transform="translate(-23.059807,-36.58022)">
    <path
       id="path0"
       d="m 56.727,37.524 c 0,0.66 7.578,13.977 25.828,45.385 3.117,5.365 23.156,40.063 30.347,52.548 l 5.762,10.003 92.812,-0.185 92.812,-0.184 8.59,-14.909 c 4.725,-8.2 8.818,-15.399 9.094,-15.999 0.277,-0.599 10.261,-18.108 22.187,-38.909 l 21.683,-37.819 -51.829,-0.187 -51.829,-0.187 -3.942,4.187 c -2.169,2.303 -7.513,7.95 -11.876,12.55 l -7.934,8.364 14.442,0.363 14.443,0.364 -10.443,18.546 c -5.743,10.2 -11.351,20.181 -12.462,22.181 -1.11,2 -2.933,5.273 -4.05,7.273 -1.117,2 -4.404,7.891 -7.305,13.091 -2.9,5.2 -5.879,10.522 -6.62,11.826 l -1.346,2.371 -13.726,-0.19 -13.726,-0.189 L 168.82,87.466 140,37.115 98.364,37.103 c -22.9,-0.007 -41.637,0.183 -41.637,0.421 m 97.559,2.294 c 3.911,6.953 19.343,34.63 22.303,40 1.819,3.3 3.517,6 3.772,6 0.255,0 5.489,-5.154 11.632,-11.454 6.142,-6.3 16.916,-17.264 23.943,-24.364 l 12.776,-12.909 h -37.98 -37.98 l 1.534,2.727 m -17.19,7.273 c 0.784,1.5 2.377,4.364 3.54,6.364 5.85,10.064 19.405,33.66 23.396,40.727 2.484,4.4 9.106,16.018 14.715,25.818 l 10.199,17.818 -32.751,0.189 c -30.552,0.177 -32.814,0.104 -33.688,-1.09 -0.516,-0.705 -5.828,-9.79 -11.806,-20.19 C 104.724,106.327 93.683,87.182 86.167,74.182 78.65,61.182 71.705,49.155 70.733,47.455 l -1.766,-3.091 h 33.351 33.351 l 1.427,2.727 m 59.577,11.818 C 180.152,75.597 181.959,74.421 179.638,70 c -0.997,-1.9 -4.364,-7.961 -7.482,-13.47 -3.117,-5.508 -5.854,-10.499 -6.081,-11.091 -0.359,-0.935 2.553,-1.075 22.293,-1.075 h 22.704 L 196.673,58.909 M 352.727,44.787 c 0,0.232 -1.145,2.377 -2.545,4.766 -1.4,2.389 -2.546,4.521 -2.546,4.737 0,0.217 -0.607,1.263 -1.349,2.325 -0.743,1.062 -3.819,6.349 -6.837,11.749 -3.018,5.4 -9.164,16.2 -13.659,24 -4.494,7.8 -9.1,15.854 -10.236,17.898 -1.136,2.044 -5.141,9.081 -8.901,15.636 l -6.837,11.92 -32.817,0.189 c -18.05,0.104 -32.818,0.023 -32.818,-0.181 0,-0.357 5.552,-10.439 15.423,-28.008 2.585,-4.6 5.695,-10.163 6.912,-12.363 1.217,-2.2 3.952,-7.11 6.077,-10.91 2.125,-3.8 6.88,-12.309 10.566,-18.909 l 6.703,-12 -12.104,-0.363 -12.103,-0.364 4.998,-5.273 4.998,-5.272 h 43.538 c 23.945,0 43.537,0.19 43.537,0.423 M 74.079,95.818 c -0.635,0.7 -12.101,12.155 -25.481,25.455 l -24.326,24.182 h 40.955 c 22.525,0 40.955,-0.255 40.955,-0.566 0,-0.311 -0.45,-1.211 -0.999,-2 -0.87,-1.248 -12.404,-20.591 -16.743,-28.077 -0.842,-1.453 -3.822,-6.598 -6.622,-11.432 -5.295,-9.143 -5.831,-9.667 -7.739,-7.562 m 3.547,15.273 c 1.586,2.7 5.714,9.701 9.174,15.558 3.46,5.857 6.291,10.848 6.291,11.091 0,0.243 -11.504,0.442 -25.565,0.442 H 41.961 l 16.292,-15.969 c 8.961,-8.783 16.337,-15.983 16.391,-16 0.055,-0.017 1.397,2.178 2.982,4.878"
       style="fill:#cccccc;fill-rule:evenodd;stroke:#333333"
       inkscape:connector-curvature="0" />
  </g>
</svg>
