<?xml version="1.0" encoding="UTF-8" standalone="no"?>
<!-- Created with Inkscape (http://www.inkscape.org/) -->

<svg
   xmlns:dc="http://purl.org/dc/elements/1.1/"
   xmlns:cc="http://creativecommons.org/ns#"
   xmlns:rdf="http://www.w3.org/1999/02/22-rdf-syntax-ns#"
   xmlns:svg="http://www.w3.org/2000/svg"
   xmlns="http://www.w3.org/2000/svg"
   xmlns:sodipodi="http://sodipodi.sourceforge.net/DTD/sodipodi-0.dtd"
   xmlns:inkscape="http://www.inkscape.org/namespaces/inkscape"
   width="567.75757"
   height="84"
   id="svg2"
   version="1.1"
   inkscape:version="0.92.4 (5da689c313, 2019-01-14)"
   sodipodi:docname="zx81.svg">
  <defs
     id="defs4" />
  <sodipodi:namedview
     id="base"
     pagecolor="#ffffff"
     bordercolor="#666666"
     borderopacity="1.0"
     inkscape:pageopacity="0.0"
     inkscape:pageshadow="2"
     inkscape:zoom="128"
     inkscape:cx="565.43665"
     inkscape:cy="80.300379"
     inkscape:document-units="px"
     inkscape:current-layer="layer1"
     showgrid="false"
     inkscape:window-width="1278"
     inkscape:window-height="1368"
     inkscape:window-x="-7"
     inkscape:window-y="40"
     inkscape:window-maximized="0"
     fit-margin-top="0"
     fit-margin-left="0"
     fit-margin-right="0"
     fit-margin-bottom="0" />
  <metadata
     id="metadata7">
    <rdf:RDF>
      <cc:Work
         rdf:about="">
        <dc:format>image/svg+xml</dc:format>
        <dc:type
           rdf:resource="http://purl.org/dc/dcmitype/StillImage" />
        <dc:title />
      </cc:Work>
    </rdf:RDF>
  </metadata>
  <g
     inkscape:label="Calque 1"
     inkscape:groupmode="layer"
     id="layer1"
     transform="translate(-80.036789,-570.6495)">
    <g
       id="g3047"
       transform="translate(-4.7729708,73.715882)">
      <path
         style="fill:#4d4d4d"
         d="m 85.071449,578.78485 c 0,-0.63183 2.025,-3.60852 4.5,-6.61488 2.475,-3.00636 4.5,-5.86441 4.5,-6.35123 l 0,-0.88512 -4,0 -4,0 0,-1.5 0,-1.5 6.531385,0 6.531385,0 0.573134,1.49356 0.573137,1.49357 -5.203466,6.00643 -5.203464,6.00644 5.098945,0 5.098945,0 0,1.5 0,1.5 -7.500001,0 -7.5,0 0,-1.14877 z m 19.043251,-3.41409 3.13933,-4.56286 -2.59129,-3.9157 c -3.00661,-4.54329 -3.10052,-4.95858 -1.12123,-4.95858 l 1.47006,0 2.22375,3.00778 2.22375,3.00778 1.90439,-3.00778 1.90439,-3.00778 1.4018,0 1.4018,0 -0.0222,1.25 c -0.0122,0.6875 -0.90222,2.375 -1.97776,3.75 -2.44574,3.1267 -2.47455,4.5052 -0.16397,7.84563 1.00982,1.4599 2.16138,3.21687 2.55902,3.90437 l 0.72298,1.25 -1.96081,0 -1.96082,0 -1.96095,-3.09712 -1.96096,-3.09711 -2.20534,3.09711 -2.20534,3.09712 -1.97995,0 -1.97994,0 3.13933,-4.56286 z m 25.29469,3.56423 -2.16206,-0.87186 -0.67807,-2.13642 -0.67808,-2.13642 1.61536,-1.78495 1.61537,-1.78496 -1.52523,-1.26582 c -0.83888,-0.69621 -1.52523,-1.86021 -1.52523,-2.58668 l 0,-1.32085 2.2225,-1.55671 2.22251,-1.5567 3.05499,0 3.05499,0 2.2225,1.5567 2.22251,1.55671 0,1.32085 c 0,0.72647 -0.68635,1.89047 -1.52523,2.58668 l -1.52523,1.26583 1.61536,1.78495 1.61536,1.78495 -0.6757,2.12895 -0.6757,2.12895 -2.47953,0.94271 c -2.97002,1.1292 -5.10954,1.11427 -8.01139,-0.0559 z m 7.16206,-4.50137 0,-2 -2.36534,-0.33466 -2.36533,-0.33467 -1.01745,1.01745 -1.01745,1.01745 0.6271,1.63418 0.6271,1.63419 2.75568,-0.31697 2.75569,-0.31697 0,-2 z m 0,-7.5 0,-1.5 -2.36534,-0.33466 -2.36533,-0.33467 -0.99753,0.99753 -0.99754,0.99754 0.70731,1.14444 0.7073,1.14444 2.65556,-0.30731 2.65557,-0.30731 0,-1.5 z m 8.5,11.5 0,-1.5 2,0 2,0 0,-6.11663 0,-6.11663 -2,0.52301 -2,0.52301 0,-1.28975 0,-1.28975 2.25,-0.60297 c 1.2375,-0.33164 3.0375,-0.60912 4,-0.61664 l 1.75,-0.0136 0,7.5 0,7.5 2,0 2,0 0,1.5 0,1.5 -6,0 -6,0 0,-1.5 z m -59.000001,-33 0,-3.5 30.000001,0 30,0 0,-4.5 0,-4.5 -30,0 -30.000001,0 -0.01101,-8.25 c -0.0061,-4.5375 -0.289932,-9.9375 -0.630842,-12 l -0.619837,-3.75 34.63085,0 34.63084,0 0,3.48534 0,3.48533 -30.23665,0.26467 -30.236644,0.26466 -0.351912,1.8291 c -0.193552,1.006 -0.07849,2.9185 0.255697,4.25 l 0.607608,2.4209 29.980951,0 29.98095,0 0,12 0,12 -34,0 -34.000005,0 0,-3.5 z m 74.000001,-16.5 0,-20 3.5,0 3.5,0 0,20 0,20 -3.5,0 -3.5,0 0,-20 z m 12,0 0,-20 34.5,0 34.5,0 0,20 0,20 -4,0 -4,0 0,-16 0,-16 -26.5,0 -26.5,0 0,16 0,16 -4,0 -4,0 0,-20 z m 73.22886,0.25 0.27114,-19.75 34.25,-0.26313 34.25,-0.26312 0,4.01312 0,4.01313 -30.5,0 -30.5,0 0,12.5 0,12.5 30.5,0 30.5,0 0,3.5 0,3.5 -34.52114,0 -34.52114,0 0.27114,-19.75 z m 74.77114,-6.25 0,-26 4,0 4,0 0,26 0,26 -4,0 -4,0 0,-26 z m 12,14.5 0,-11.5 30.5,0 30.5,0 0,-4.48534 0,-4.48533 -30.25,-0.26467 -30.25,-0.26466 0,-3.5 0,-3.5 34.25,-0.26313 34.25,-0.26312 0,20.01312 0,20.01313 -34.5,0 -34.5,0 0,-11.5 z m 61,0 0,-4.5 -26.5,0 -26.5,0 0,4.5 0,4.5 26.5,0 26.5,0 0,-4.5 z m 13,-8.5 0,-20 4,0 4,0 0,20 0,20 -4,0 -4,0 0,-20 z m 13.22886,0.25 0.27114,-19.75 34.25,-0.26313 34.25,-0.26312 0,4.01312 0,4.01313 -30.5,0 -30.5,0 0,16 0,16 -4.02114,0 -4.02114,0 0.27114,-19.75 z m -259.22886,-28.25 0,-4 3.5,0 3.5,0 0,4 0,4 -3.5,0 -3.5,0 0,-4 z m 246,0 0,-4 4,0 4,0 0,4 0,4 -4,0 -4,0 0,-4 z"
         id="path3051"
         inkscape:connector-curvature="0" />
    </g>
    <polygon
       transform="translate(80.865755,570.70143)"
       style="fill:#ca2825"
       points="429.958,2.173 369.855,62.285 404.062,62.285 464.167,2.173 "
       id="polygon42" />
    <polygon
       transform="translate(80.865755,570.70143)"
       style="fill:#fdc601"
       points="464.244,2.173 404.138,62.285 438.347,62.285 498.451,2.173 "
       id="polygon44" />
    <polygon
       transform="translate(80.865755,570.67018)"
       style="fill:#02559c"
       points="472.617,62.285 506.826,62.285 566.929,2.173 532.722,2.173 "
       id="polygon48" />
    <polygon
       transform="translate(80.865755,570.70143)"
       style="fill:#009c37"
       points="498.501,2.173 438.398,62.285 472.605,62.285 532.71,2.173 "
       id="polygon46" />
  </g>
</svg>
